ScopeOne_Rg.ufo
<glyph name="exclam" format="1">
	<unicode hex="0021"/>
	<advance width="220"/>
	<outline>
		<contour>
			<point x="91" y="170" type="line"/>
			<point x="96" y="169"/>
			<point x="104" y="168"/>
			<point x="110" y="168" type="curve" smooth="yes"/>
			<point x="116" y="168"/>
			<point x="124" y="169"/>
			<point x="129" y="170" type="curve"/>
			<point x="138" y="286" type="line"/>
			<point x="139" y="645" type="line"/>
			<point x="131" y="646"/>
			<point x="118" y="647"/>
			<point x="110" y="647" type="curve" smooth="yes"/>
			<point x="102" y="647"/>
			<point x="89" y="646"/>
			<point x="81" y="645" type="curve"/>
			<point x="82" y="286" type="line"/>
		</contour>
		<contour>
			<point x="160" y="37" type="curve" smooth="yes"/>
			<point x="160" y="65"/>
			<point x="141" y="84"/>
			<point x="110" y="84" type="curve" smooth="yes"/>
			<point x="79" y="84"/>
			<point x="60" y="65"/>
			<point x="60" y="37" type="curve" smooth="yes"/>
			<point x="60" y="9"/>
			<point x="79" y="-10"/>
			<point x="110" y="-10" type="curve" smooth="yes"/>
			<point x="141" y="-10"/>
			<point x="160" y="9"/>
		</contour>
	</outline>
</glyph>
<glyph name="numbersign" format="1">
	<unicode hex="0023"/>
	<advance width="560"/>
	<outline>
		<contour>
			<point x="511" y="176" type="line"/>
			<point x="515" y="185"/>
			<point x="516" y="192"/>
			<point x="516" y="200" type="curve" smooth="yes"/>
			<point x="516" y="206"/>
			<point x="515" y="214"/>
			<point x="513" y="222" type="curve"/>
			<point x="381" y="222" type="line"/>
			<point x="422" y="423" type="line"/>
			<point x="526" y="423" type="line"/>
			<point x="530" y="432"/>
			<point x="531" y="439"/>
			<point x="531" y="447" type="curve" smooth="yes"/>
			<point x="531" y="453"/>
			<point x="530" y="461"/>
			<point x="528" y="469" type="curve"/>
			<point x="432" y="469" type="line"/>
			<point x="468" y="645" type="line"/>
			<point x="461" y="646"/>
			<point x="451" y="647"/>
			<point x="442" y="647" type="curve" smooth="yes"/>
			<point x="433" y="647"/>
			<point x="425" y="646"/>
			<point x="419" y="645" type="curve"/>
			<point x="383" y="469" type="line"/>
			<point x="238" y="469" type="line"/>
			<point x="274" y="645" type="line"/>
			<point x="267" y="646"/>
			<point x="257" y="647"/>
			<point x="248" y="647" type="curve" smooth="yes"/>
			<point x="239" y="647"/>
			<point x="231" y="646"/>
			<point x="225" y="645" type="curve"/>
			<point x="189" y="469" type="line"/>
			<point x="49" y="469" type="line"/>
			<point x="45" y="460"/>
			<point x="44" y="453"/>
			<point x="44" y="445" type="curve" smooth="yes"/>
			<point x="44" y="439"/>
			<point x="45" y="431"/>
			<point x="47" y="423" type="curve"/>
			<point x="179" y="423" type="line"/>
			<point x="138" y="222" type="line"/>
			<point x="34" y="222" type="line"/>
			<point x="30" y="213"/>
			<point x="29" y="206"/>
			<point x="29" y="198" type="curve" smooth="yes"/>
			<point x="29" y="192"/>
			<point x="30" y="184"/>
			<point x="32" y="176" type="curve"/>
			<point x="128" y="176" type="line"/>
			<point x="92" y="0" type="line"/>
			<point x="99" y="-1"/>
			<point x="109" y="-2"/>
			<point x="118" y="-2" type="curve" smooth="yes"/>
			<point x="127" y="-2"/>
			<point x="135" y="-1"/>
			<point x="141" y="0" type="curve"/>
			<point x="177" y="176" type="line"/>
			<point x="322" y="176" type="line"/>
			<point x="286" y="0" type="line"/>
			<point x="293" y="-1"/>
			<point x="303" y="-2"/>
			<point x="312" y="-2" type="curve" smooth="yes"/>
			<point x="321" y="-2"/>
			<point x="329" y="-1"/>
			<point x="335" y="0" type="curve"/>
			<point x="371" y="176" type="line"/>
		</contour>
		<contour>
			<point x="332" y="222" type="line"/>
			<point x="187" y="222" type="line"/>
			<point x="228" y="423" type="line"/>
			<point x="373" y="423" type="line"/>
		</contour>
	</outline>
</glyph>
<glyph name="ampersand" format="1">
	<unicode hex="0026"/>
	<advance width="668"/>
	<outline>
		<contour>
			<point x="637" y="319" type="line"/>
			<point x="641" y="326"/>
			<point x="643" y="332"/>
			<point x="643" y="338" type="curve" smooth="yes"/>
			<point x="643" y="342"/>
			<point x="642" y="347"/>
			<point x="640" y="352" type="curve"/>
			<point x="405" y="352" type="line"/>
			<point x="403" y="344" type="line" smooth="yes"/>
			<point x="400" y="333"/>
			<point x="399" y="326"/>
			<point x="399" y="323" type="curve" smooth="yes"/>
			<point x="399" y="314"/>
			<point x="404" y="309"/>
			<point x="415" y="309" type="curve" smooth="yes"/>
			<point x="493" y="309" type="line"/>
			<point x="493" y="236"/>
			<point x="472" y="173"/>
			<point x="436" y="125" type="curve"/>
			<point x="293" y="227"/>
			<point x="172" y="388"/>
			<point x="172" y="507" type="curve" smooth="yes"/>
			<point x="172" y="574"/>
			<point x="211" y="613"/>
			<point x="279" y="613" type="curve" smooth="yes"/>
			<point x="296" y="613"/>
			<point x="313" y="611"/>
			<point x="331" y="606" type="curve"/>
			<point x="360" y="492" type="line"/>
			<point x="366" y="488"/>
			<point x="373" y="486"/>
			<point x="379" y="486" type="curve" smooth="yes"/>
			<point x="384" y="486"/>
			<point x="389" y="487"/>
			<point x="394" y="489" type="curve"/>
			<point x="393" y="606" type="line"/>
			<point x="388" y="617"/>
			<point x="381" y="628"/>
			<point x="374" y="636" type="curve"/>
			<point x="345" y="647"/>
			<point x="304" y="655"/>
			<point x="269" y="655" type="curve" smooth="yes"/>
			<point x="177" y="655"/>
			<point x="117" y="597"/>
			<point x="117" y="507" type="curve" smooth="yes"/>
			<point x="117" y="467"/>
			<point x="128" y="424"/>
			<point x="148" y="380" type="curve"/>
			<point x="71" y="325"/>
			<point x="32" y="257"/>
			<point x="32" y="180" type="curve" smooth="yes"/>
			<point x="32" y="63"/>
			<point x="115" y="-10"/>
			<point x="248" y="-10" type="curve" smooth="yes"/>
			<point x="326" y="-10"/>
			<point x="394" y="16"/>
			<point x="445" y="62" type="curve"/>
			<point x="511" y="22"/>
			<point x="580" y="-4"/>
			<point x="643" y="-10" type="curve"/>
			<point x="646" y="-1"/>
			<point x="648" y="7"/>
			<point x="648" y="14" type="curve" smooth="yes"/>
			<point x="648" y="19"/>
			<point x="647" y="25"/>
			<point x="645" y="31" type="curve"/>
			<point x="591" y="39"/>
			<point x="533" y="63"/>
			<point x="477" y="98" type="curve"/>
			<point x="520" y="153"/>
			<point x="545" y="226"/>
			<point x="545" y="311" type="curve"/>
		</contour>
		<contour>
			<point x="402" y="90" type="curve"/>
			<point x="362" y="54"/>
			<point x="310" y="34"/>
			<point x="251" y="34" type="curve" smooth="yes"/>
			<point x="153" y="34"/>
			<point x="89" y="91"/>
			<point x="89" y="180" type="curve" smooth="yes"/>
			<point x="89" y="246"/>
			<point x="116" y="301"/>
			<point x="168" y="342" type="curve"/>
			<point x="220" y="249"/>
			<point x="306" y="157"/>
		</contour>
	</outline>
</glyph>
<glyph name="parenleft" format="2">
	<unicode hex="0028"/>
	<advance width="304"/>
	<outline>
		<contour>
			<point x="250" y="-119" type="curve"/>
			<point x="263" y="-110"/>
			<point x="271" y="-101"/>
			<point x="278" y="-86" type="curve"/>
			<point x="177" y="13"/>
			<point x="123" y="140"/>
			<point x="123" y="278" type="curve" smooth="yes"/>
			<point x="123" y="416"/>
			<point x="177" y="543"/>
			<point x="278" y="642" type="curve"/>
			<point x="271" y="657"/>
			<point x="263" y="666"/>
			<point x="250" y="675" type="curve"/>
			<point x="125" y="566"/>
			<point x="65" y="428"/>
			<point x="65" y="278" type="curve" smooth="yes"/>
			<point x="65" y="128"/>
			<point x="125" y="-10"/>
		</contour>
	</outline>
</glyph>
<glyph name="asterisk" format="1">
	<unicode hex="002A"/>
	<advance width="334"/>
	<outline>
		<contour>
			<point x="211" y="355" type="line"/>
			<point x="229" y="362"/>
			<point x="239" y="366"/>
			<point x="255" y="378" type="curve"/>
			<point x="192" y="483" type="line"/>
			<point x="314" y="499" type="line"/>
			<point x="314" y="518"/>
			<point x="313" y="530"/>
			<point x="306" y="548" type="curve"/>
			<point x="186" y="520" type="line"/>
			<point x="209" y="642" type="line"/>
			<point x="191" y="648"/>
			<point x="180" y="649"/>
			<point x="161" y="649" type="curve"/>
			<point x="150" y="526" type="line"/>
			<point x="41" y="586" type="line"/>
			<point x="30" y="571"/>
			<point x="25" y="560"/>
			<point x="20" y="542" type="curve"/>
			<point x="132" y="493" type="line"/>
			<point x="42" y="408" type="line"/>
			<point x="54" y="393"/>
			<point x="62" y="385"/>
			<point x="78" y="374" type="curve"/>
			<point x="158" y="466" type="line"/>
		</contour>
	</outline>
</glyph>
<glyph name="plus" format="1">
	<unicode hex="002B"/>
	<advance width="560"/>
	<outline>
		<contour>
			<point x="492" y="299" type="line"/>
			<point x="496" y="312"/>
			<point x="497" y="317"/>
			<point x="497" y="324" type="curve" smooth="yes"/>
			<point x="497" y="330"/>
			<point x="496" y="337"/>
			<point x="494" y="345" type="curve"/>
			<point x="305" y="345" type="line"/>
			<point x="305" y="536" type="line"/>
			<point x="294" y="538"/>
			<point x="287" y="539"/>
			<point x="281" y="539" type="curve" smooth="yes"/>
			<point x="274" y="539"/>
			<point x="267" y="538"/>
			<point x="255" y="534" type="curve"/>
			<point x="255" y="345" type="line"/>
			<point x="68" y="345" type="line"/>
			<point x="64" y="332"/>
			<point x="63" y="327"/>
			<point x="63" y="320" type="curve" smooth="yes"/>
			<point x="63" y="314"/>
			<point x="64" y="307"/>
			<point x="66" y="299" type="curve"/>
			<point x="255" y="299" type="line"/>
			<point x="255" y="108" type="line"/>
			<point x="266" y="106"/>
			<point x="273" y="105"/>
			<point x="279" y="105" type="curve" smooth="yes"/>
			<point x="286" y="105"/>
			<point x="293" y="106"/>
			<point x="305" y="110" type="curve"/>
			<point x="305" y="299" type="line"/>
		</contour>
	</outline>
</glyph>
<glyph name="comma" format="1">
	<unicode hex="002C"/>
	<advance width="220"/>
	<outline>
		<contour>
			<point x="98" y="-7" type="line"/>
			<point x="95" y="-35"/>
			<point x="67" y="-93"/>
			<point x="45" y="-126" type="curve"/>
			<point x="52" y="-137"/>
			<point x="63" y="-144"/>
			<point x="77" y="-146" type="curve"/>
			<point x="117" y="-103"/>
			<point x="160" y="-14"/>
			<point x="160" y="25" type="curve" smooth="yes"/>
			<point x="160" y="64"/>
			<point x="142" y="84"/>
			<point x="109" y="84" type="curve" smooth="yes"/>
			<point x="82" y="84"/>
			<point x="60" y="63"/>
			<point x="60" y="38" type="curve" smooth="yes"/>
			<point x="60" y="32"/>
			<point x="61" y="23"/>
			<point x="64" y="16" type="curve"/>
		</contour>
	</outline>
</glyph>
<glyph name="hyphen" format="2">
	<unicode hex="002D"/>
	<advance width="344"/>
	<outline>
		<contour>
			<point x="290" y="235" type="line"/>
			<point x="292" y="241"/>
			<point x="293" y="250"/>
			<point x="293" y="258" type="curve" smooth="yes"/>
			<point x="293" y="269"/>
			<point x="291" y="279"/>
			<point x="288" y="287" type="curve"/>
			<point x="54" y="265" type="line"/>
			<point x="52" y="259"/>
			<point x="51" y="250"/>
			<point x="51" y="242" type="curve" smooth="yes"/>
			<point x="51" y="231"/>
			<point x="53" y="221"/>
			<point x="56" y="213" type="curve"/>
		</contour>
	</outline>
</glyph>
<glyph name="period" format="1">
	<unicode hex="002E"/>
	<advance width="220"/>
	<outline>
		<contour>
			<point x="160" y="37" type="curve" smooth="yes"/>
			<point x="160" y="65"/>
			<point x="141" y="84"/>
			<point x="110" y="84" type="curve" smooth="yes"/>
			<point x="79" y="84"/>
			<point x="60" y="65"/>
			<point x="60" y="37" type="curve" smooth="yes"/>
			<point x="60" y="9"/>
			<point x="79" y="-10"/>
			<point x="110" y="-10" type="curve" smooth="yes"/>
			<point x="141" y="-10"/>
			<point x="160" y="9"/>
		</contour>
	</outline>
</glyph>
<glyph name="slash" format="1">
	<unicode hex="002F"/>
	<advance width="381"/>
	<outline>
		<contour>
			<point x="50" y="10" type="line"/>
			<point x="65" y="0"/>
			<point x="79" y="-4"/>
			<point x="100" y="-5" type="curve"/>
			<point x="331" y="651" type="line"/>
			<point x="316" y="661"/>
			<point x="302" y="665"/>
			<point x="281" y="666" type="curve"/>
		</contour>
	</outline>
</glyph>
<glyph name="zero" format="2">
	<unicode hex="0030"/>
	<advance width="580"/>
	<outline>
		<contour>
			<point x="290" y="37" type="curve" smooth="yes"/>
			<point x="155" y="37"/>
			<point x="109" y="183"/>
			<point x="109" y="323" type="curve" smooth="yes"/>
			<point x="109" y="462"/>
			<point x="155" y="608"/>
			<point x="290" y="608" type="curve" smooth="yes"/>
			<point x="425" y="608"/>
			<point x="471" y="462"/>
			<point x="471" y="323" type="curve" smooth="yes"/>
			<point x="471" y="183"/>
			<point x="425" y="37"/>
		</contour>
		<contour>
			<point x="290" y="-10" type="curve" smooth="yes"/>
			<point x="469" y="-10"/>
			<point x="530" y="166"/>
			<point x="530" y="323" type="curve" smooth="yes"/>
			<point x="530" y="479"/>
			<point x="469" y="655"/>
			<point x="290" y="655" type="curve" smooth="yes"/>
			<point x="111" y="655"/>
			<point x="50" y="479"/>
			<point x="50" y="323" type="curve" smooth="yes"/>
			<point x="50" y="166"/>
			<point x="111" y="-10"/>
		</contour>
	</outline>
</glyph>
<glyph name="one" format="1">
	<unicode hex="0031"/>
	<advance width="403"/>
	<outline>
		<contour>
			<point x="356" y="0" type="line"/>
			<point x="358" y="8" type="line" smooth="yes"/>
			<point x="361" y="18"/>
			<point x="363" y="28"/>
			<point x="363" y="32" type="curve" smooth="yes"/>
			<point x="363" y="41"/>
			<point x="358" y="46"/>
			<point x="347" y="46" type="curve" smooth="yes"/>
			<point x="249" y="46" type="line"/>
			<point x="249" y="635" type="line"/>
			<point x="239" y="642"/>
			<point x="227" y="646"/>
			<point x="215" y="649" type="curve"/>
			<point x="40" y="535" type="line"/>
			<point x="44" y="522"/>
			<point x="52" y="508"/>
			<point x="61" y="499" type="curve"/>
			<point x="193" y="576" type="line"/>
			<point x="193" y="44" type="line"/>
			<point x="66" y="36" type="line"/>
			<point x="62" y="31"/>
			<point x="59" y="23"/>
			<point x="59" y="16" type="curve" smooth="yes"/>
			<point x="59" y="12"/>
			<point x="61" y="3"/>
			<point x="63" y="0" type="curve"/>
		</contour>
	</outline>
</glyph>
<glyph name="two" format="1">
	<unicode hex="0032"/>
	<advance width="519"/>
	<outline>
		<contour>
			<point x="422" y="0" type="line"/>
			<point x="431" y="7"/>
			<point x="440" y="17"/>
			<point x="446" y="26" type="curve"/>
			<point x="448" y="163" type="line"/>
			<point x="445" y="165"/>
			<point x="436" y="167"/>
			<point x="432" y="167" type="curve" smooth="yes"/>
			<point x="425" y="167"/>
			<point x="417" y="164"/>
			<point x="412" y="160" type="curve"/>
			<point x="387" y="46" type="line"/>
			<point x="91" y="46" type="line"/>
			<point x="93" y="113"/>
			<point x="130" y="161"/>
			<point x="249" y="254" type="curve" smooth="yes"/>
			<point x="383" y="358"/>
			<point x="425" y="415"/>
			<point x="425" y="493" type="curve" smooth="yes"/>
			<point x="425" y="589"/>
			<point x="352" y="655"/>
			<point x="245" y="655" type="curve" smooth="yes"/>
			<point x="171" y="655"/>
			<point x="100" y="618"/>
			<point x="59" y="559" type="curve"/>
			<point x="66" y="546"/>
			<point x="74" y="538"/>
			<point x="91" y="529" type="curve"/>
			<point x="138" y="582"/>
			<point x="189" y="609"/>
			<point x="245" y="609" type="curve" smooth="yes"/>
			<point x="318" y="609"/>
			<point x="368" y="562"/>
			<point x="368" y="493" type="curve" smooth="yes"/>
			<point x="368" y="430"/>
			<point x="332" y="383"/>
			<point x="216" y="293" type="curve" smooth="yes"/>
			<point x="81" y="188"/>
			<point x="37" y="125"/>
			<point x="37" y="39" type="curve" smooth="yes"/>
			<point x="37" y="26" type="line"/>
			<point x="43" y="17"/>
			<point x="52" y="7"/>
			<point x="61" y="0" type="curve"/>
		</contour>
	</outline>
</glyph>
<glyph name="three" format="1">
	<unicode hex="0033"/>
	<advance width="530"/>
	<outline>
		<contour>
			<point x="451" y="614" type="line"/>
			<point x="447" y="624"/>
			<point x="440" y="636"/>
			<point x="432" y="645" type="curve"/>
			<point x="91" y="645" type="line"/>
			<point x="82" y="638"/>
			<point x="73" y="628"/>
			<point x="67" y="619" type="curve"/>
			<point x="65" y="507" type="line"/>
			<point x="68" y="505"/>
			<point x="77" y="503"/>
			<point x="81" y="503" type="curve" smooth="yes"/>
			<point x="88" y="503"/>
			<point x="96" y="506"/>
			<point x="101" y="510" type="curve"/>
			<point x="126" y="599" type="line"/>
			<point x="376" y="599" type="line"/>
			<point x="168" y="351" type="line"/>
			<point x="172" y="340"/>
			<point x="180" y="328"/>
			<point x="187" y="320" type="curve"/>
			<point x="205" y="325"/>
			<point x="231" y="328"/>
			<point x="251" y="328" type="curve" smooth="yes"/>
			<point x="343" y="328"/>
			<point x="403" y="277"/>
			<point x="403" y="191" type="curve" smooth="yes"/>
			<point x="403" y="99"/>
			<point x="332" y="41"/>
			<point x="213" y="41" type="curve" smooth="yes"/>
			<point x="163" y="41"/>
			<point x="115" y="54"/>
			<point x="59" y="83" type="curve"/>
			<point x="49" y="71"/>
			<point x="43" y="58"/>
			<point x="40" y="43" type="curve"/>
			<point x="92" y="9"/>
			<point x="157" y="-10"/>
			<point x="220" y="-10" type="curve" smooth="yes"/>
			<point x="360" y="-10"/>
			<point x="460" y="74"/>
			<point x="460" y="191" type="curve" smooth="yes"/>
			<point x="460" y="304"/>
			<point x="381" y="374"/>
			<point x="264" y="374" type="curve" smooth="yes"/>
			<point x="259" y="374"/>
			<point x="253" y="374"/>
			<point x="247" y="373" type="curve"/>
		</contour>
	</outline>
</glyph>
<glyph name="four" format="1">
	<unicode hex="0034"/>
	<advance width="564"/>
	<outline>
		<contour>
			<point x="484" y="0" type="line"/>
			<point x="486" y="8" type="line" smooth="yes"/>
			<point x="489" y="18"/>
			<point x="491" y="28"/>
			<point x="491" y="32" type="curve" smooth="yes"/>
			<point x="491" y="41"/>
			<point x="486" y="46"/>
			<point x="475" y="46" type="curve" smooth="yes"/>
			<point x="417" y="46" type="line"/>
			<point x="417" y="174" type="line"/>
			<point x="517" y="174" type="line"/>
			<point x="519" y="181" type="line" smooth="yes"/>
			<point x="522" y="191"/>
			<point x="524" y="201"/>
			<point x="524" y="205" type="curve" smooth="yes"/>
			<point x="524" y="214"/>
			<point x="519" y="219"/>
			<point x="508" y="219" type="curve" smooth="yes"/>
			<point x="417" y="219" type="line"/>
			<point x="417" y="635" type="line"/>
			<point x="407" y="642"/>
			<point x="395" y="646"/>
			<point x="383" y="649" type="curve"/>
			<point x="36" y="204" type="line"/>
			<point x="41" y="194"/>
			<point x="48" y="183"/>
			<point x="56" y="174" type="curve"/>
			<point x="362" y="174" type="line"/>
			<point x="362" y="44" type="line"/>
			<point x="265" y="36" type="line"/>
			<point x="261" y="31"/>
			<point x="258" y="23"/>
			<point x="258" y="16" type="curve" smooth="yes"/>
			<point x="258" y="12"/>
			<point x="260" y="3"/>
			<point x="262" y="0" type="curve"/>
		</contour>
		<contour>
			<point x="362" y="219" type="line"/>
			<point x="109" y="219" type="line"/>
			<point x="362" y="547" type="line"/>
		</contour>
	</outline>
</glyph>
<glyph name="five" format="1">
	<unicode hex="0035"/>
	<advance width="530"/>
	<outline>
		<contour>
			<point x="95" y="353" type="line"/>
			<point x="101" y="346"/>
			<point x="114" y="338"/>
			<point x="131" y="331" type="curve"/>
			<point x="157" y="341"/>
			<point x="208" y="350"/>
			<point x="252" y="350" type="curve" smooth="yes"/>
			<point x="351" y="350"/>
			<point x="413" y="294"/>
			<point x="413" y="196" type="curve" smooth="yes"/>
			<point x="413" y="99"/>
			<point x="342" y="41"/>
			<point x="223" y="41" type="curve" smooth="yes"/>
			<point x="173" y="41"/>
			<point x="125" y="54"/>
			<point x="69" y="83" type="curve"/>
			<point x="59" y="71"/>
			<point x="53" y="58"/>
			<point x="50" y="43" type="curve"/>
			<point x="102" y="9"/>
			<point x="167" y="-10"/>
			<point x="230" y="-10" type="curve" smooth="yes"/>
			<point x="372" y="-10"/>
			<point x="470" y="74"/>
			<point x="470" y="196" type="curve" smooth="yes"/>
			<point x="470" y="322"/>
			<point x="387" y="397"/>
			<point x="257" y="397" type="curve" smooth="yes"/>
			<point x="224" y="397"/>
			<point x="177" y="392"/>
			<point x="147" y="385" type="curve"/>
			<point x="164" y="587" type="line"/>
			<point x="201" y="577"/>
			<point x="248" y="572"/>
			<point x="289" y="572" type="curve" smooth="yes"/>
			<point x="344" y="572"/>
			<point x="417" y="586"/>
			<point x="447" y="605" type="curve"/>
			<point x="445" y="620"/>
			<point x="440" y="633"/>
			<point x="432" y="644" type="curve"/>
			<point x="388" y="628"/>
			<point x="337" y="621"/>
			<point x="296" y="621" type="curve" smooth="yes"/>
			<point x="249" y="621"/>
			<point x="194" y="630"/>
			<point x="144" y="649" type="curve"/>
			<point x="134" y="641"/>
			<point x="123" y="628"/>
			<point x="117" y="617" type="curve"/>
		</contour>
	</outline>
</glyph>
<glyph name="six" format="2">
	<unicode hex="0036"/>
	<advance width="517"/>
	<outline>
		<contour>
			<point x="94" y="289" type="curve"/>
			<point x="125" y="430"/>
			<point x="230" y="544"/>
			<point x="396" y="615" type="curve"/>
			<point x="393" y="631"/>
			<point x="384" y="648"/>
			<point x="375" y="655" type="curve"/>
			<point x="176" y="580"/>
			<point x="50" y="420"/>
			<point x="50" y="241" type="curve" smooth="yes"/>
			<point x="50" y="88"/>
			<point x="133" y="-10"/>
			<point x="264" y="-10" type="curve" smooth="yes"/>
			<point x="385" y="-10"/>
			<point x="472" y="77"/>
			<point x="472" y="199" type="curve" smooth="yes"/>
			<point x="472" y="317"/>
			<point x="384" y="410"/>
			<point x="272" y="410" type="curve" smooth="yes"/>
			<point x="190" y="410"/>
			<point x="125" y="364"/>
		</contour>
		<contour>
			<point x="264" y="37" type="curve" smooth="yes"/>
			<point x="174" y="37"/>
			<point x="110" y="104"/>
			<point x="110" y="200" type="curve" smooth="yes"/>
			<point x="110" y="295"/>
			<point x="173" y="363"/>
			<point x="263" y="363" type="curve" smooth="yes"/>
			<point x="352" y="363"/>
			<point x="414" y="296"/>
			<point x="414" y="200" type="curve" smooth="yes"/>
			<point x="414" y="103"/>
			<point x="353" y="37"/>
		</contour>
	</outline>
</glyph>
<glyph name="seven" format="1">
	<unicode hex="0037"/>
	<advance width="483"/>
	<outline>
		<contour>
			<point x="111" y="22" type="line"/>
			<point x="123" y="5"/>
			<point x="139" y="-3"/>
			<point x="162" y="-5" type="curve"/>
			<point x="463" y="609" type="line"/>
			<point x="459" y="621"/>
			<point x="450" y="636"/>
			<point x="442" y="645" type="curve"/>
			<point x="66" y="645" type="line"/>
			<point x="57" y="638"/>
			<point x="48" y="628"/>
			<point x="42" y="619" type="curve"/>
			<point x="40" y="487" type="line"/>
			<point x="43" y="485"/>
			<point x="52" y="483"/>
			<point x="56" y="483" type="curve" smooth="yes"/>
			<point x="63" y="483"/>
			<point x="71" y="486"/>
			<point x="76" y="490" type="curve"/>
			<point x="101" y="596" type="line"/>
			<point x="400" y="596" type="line"/>
		</contour>
	</outline>
</glyph>
<glyph name="eight" format="1">
	<unicode hex="0038"/>
	<advance width="544"/>
	<outline>
		<contour>
			<point x="349" y="349" type="curve"/>
			<point x="421" y="375"/>
			<point x="456" y="429"/>
			<point x="456" y="492" type="curve" smooth="yes"/>
			<point x="456" y="588"/>
			<point x="376" y="655"/>
			<point x="272" y="655" type="curve" smooth="yes"/>
			<point x="168" y="655"/>
			<point x="88" y="588"/>
			<point x="88" y="492" type="curve" smooth="yes"/>
			<point x="88" y="429"/>
			<point x="123" y="375"/>
			<point x="195" y="349" type="curve"/>
			<point x="93" y="318"/>
			<point x="50" y="253"/>
			<point x="50" y="174" type="curve" smooth="yes"/>
			<point x="50" y="56"/>
			<point x="144" y="-10"/>
			<point x="272" y="-10" type="curve" smooth="yes"/>
			<point x="400" y="-10"/>
			<point x="494" y="56"/>
			<point x="494" y="174" type="curve" smooth="yes"/>
			<point x="494" y="253"/>
			<point x="451" y="318"/>
		</contour>
		<contour>
			<point x="436" y="174" type="curve" smooth="yes"/>
			<point x="436" y="90"/>
			<point x="364" y="37"/>
			<point x="272" y="37" type="curve" smooth="yes"/>
			<point x="180" y="37"/>
			<point x="108" y="90"/>
			<point x="108" y="174" type="curve" smooth="yes"/>
			<point x="108" y="259"/>
			<point x="176" y="323"/>
			<point x="272" y="323" type="curve" smooth="yes"/>
			<point x="368" y="323"/>
			<point x="436" y="259"/>
		</contour>
		<contour>
			<point x="400" y="492" type="curve" smooth="yes"/>
			<point x="400" y="422"/>
			<point x="345" y="370"/>
			<point x="272" y="370" type="curve" smooth="yes"/>
			<point x="199" y="370"/>
			<point x="144" y="422"/>
			<point x="144" y="492" type="curve" smooth="yes"/>
			<point x="144" y="560"/>
			<point x="196" y="608"/>
			<point x="272" y="608" type="curve" smooth="yes"/>
			<point x="348" y="608"/>
			<point x="400" y="560"/>
		</contour>
	</outline>
</glyph>
<glyph name="nine" format="2">
	<unicode hex="0039"/>
	<advance width="517"/>
	<outline>
		<contour>
			<point x="121" y="30" type="curve"/>
			<point x="124" y="14"/>
			<point x="133" y="-3"/>
			<point x="142" y="-10" type="curve"/>
			<point x="341" y="65"/>
			<point x="467" y="225"/>
			<point x="467" y="404" type="curve" smooth="yes"/>
			<point x="467" y="557"/>
			<point x="384" y="655"/>
			<point x="253" y="655" type="curve" smooth="yes"/>
			<point x="132" y="655"/>
			<point x="45" y="568"/>
			<point x="45" y="446" type="curve" smooth="yes"/>
			<point x="45" y="328"/>
			<point x="133" y="235"/>
			<point x="245" y="235" type="curve" smooth="yes"/>
			<point x="326" y="235"/>
			<point x="392" y="281"/>
			<point x="423" y="356" type="curve"/>
			<point x="392" y="215"/>
			<point x="287" y="100"/>
		</contour>
		<contour>
			<point x="254" y="282" type="curve" smooth="yes"/>
			<point x="165" y="282"/>
			<point x="103" y="349"/>
			<point x="103" y="445" type="curve" smooth="yes"/>
			<point x="103" y="542"/>
			<point x="164" y="608"/>
			<point x="253" y="608" type="curve" smooth="yes"/>
			<point x="343" y="608"/>
			<point x="407" y="541"/>
			<point x="407" y="445" type="curve" smooth="yes"/>
			<point x="407" y="350"/>
			<point x="344" y="282"/>
		</contour>
	</outline>
</glyph>
<glyph name="question" format="1">
	<unicode hex="003F"/>
	<advance width="471"/>
	<outline>
		<contour>
			<point x="178" y="170" type="line"/>
			<point x="183" y="169"/>
			<point x="191" y="168"/>
			<point x="197" y="168" type="curve" smooth="yes"/>
			<point x="203" y="168"/>
			<point x="211" y="169"/>
			<point x="216" y="170" type="curve"/>
			<point x="221" y="220" type="line" smooth="yes"/>
			<point x="224" y="250"/>
			<point x="244" y="273"/>
			<point x="323" y="337" type="curve" smooth="yes"/>
			<point x="393" y="394"/>
			<point x="421" y="440"/>
			<point x="421" y="500" type="curve" smooth="yes"/>
			<point x="421" y="594"/>
			<point x="348" y="655"/>
			<point x="235" y="655" type="curve" smooth="yes"/>
			<point x="182" y="655"/>
			<point x="124" y="642"/>
			<point x="80" y="619" type="curve"/>
			<point x="72" y="610"/>
			<point x="65" y="598"/>
			<point x="61" y="589" type="curve"/>
			<point x="60" y="458" type="line"/>
			<point x="65" y="456"/>
			<point x="70" y="455"/>
			<point x="75" y="455" type="curve" smooth="yes"/>
			<point x="81" y="455"/>
			<point x="88" y="457"/>
			<point x="94" y="461" type="curve"/>
			<point x="123" y="588" type="line"/>
			<point x="151" y="601"/>
			<point x="193" y="609"/>
			<point x="232" y="609" type="curve" smooth="yes"/>
			<point x="313" y="609"/>
			<point x="365" y="567"/>
			<point x="365" y="500" type="curve" smooth="yes"/>
			<point x="365" y="453"/>
			<point x="340" y="415"/>
			<point x="264" y="350" type="curve" smooth="yes"/>
			<point x="178" y="276"/>
			<point x="170" y="264"/>
			<point x="174" y="220" type="curve" smooth="yes"/>
		</contour>
		<contour>
			<point x="247" y="37" type="curve" smooth="yes"/>
			<point x="247" y="65"/>
			<point x="228" y="84"/>
			<point x="197" y="84" type="curve" smooth="yes"/>
			<point x="166" y="84"/>
			<point x="147" y="65"/>
			<point x="147" y="37" type="curve" smooth="yes"/>
			<point x="147" y="9"/>
			<point x="166" y="-10"/>
			<point x="197" y="-10" type="curve" smooth="yes"/>
			<point x="228" y="-10"/>
			<point x="247" y="9"/>
		</contour>
	</outline>
</glyph>
<glyph name="A" format="1">
	<unicode hex="0041"/>
	<advance width="672"/>
	<outline>
		<contour>
			<point x="658" y="0" type="line"/>
			<point x="660" y="8" type="line" smooth="yes"/>
			<point x="663" y="18"/>
			<point x="665" y="28"/>
			<point x="665" y="32" type="curve" smooth="yes"/>
			<point x="665" y="41"/>
			<point x="660" y="46"/>
			<point x="649" y="46" type="curve" smooth="yes"/>
			<point x="591" y="46" type="line"/>
			<point x="358" y="647" type="line"/>
			<point x="353" y="648"/>
			<point x="343" y="649"/>
			<point x="336" y="649" type="curve" smooth="yes"/>
			<point x="329" y="649"/>
			<point x="319" y="648"/>
			<point x="314" y="647" type="curve"/>
			<point x="80" y="44" type="line"/>
			<point x="13" y="36" type="line"/>
			<point x="9" y="31"/>
			<point x="6" y="23"/>
			<point x="6" y="16" type="curve" smooth="yes"/>
			<point x="6" y="12"/>
			<point x="8" y="3"/>
			<point x="10" y="0" type="curve"/>
			<point x="202" y="0" type="line"/>
			<point x="204" y="8" type="line" smooth="yes"/>
			<point x="207" y="18"/>
			<point x="209" y="28"/>
			<point x="209" y="32" type="curve" smooth="yes"/>
			<point x="209" y="41"/>
			<point x="204" y="46"/>
			<point x="193" y="46" type="curve" smooth="yes"/>
			<point x="135" y="46" type="line"/>
			<point x="197" y="210" type="line"/>
			<point x="469" y="210" type="line"/>
			<point x="533" y="44" type="line"/>
			<point x="466" y="36" type="line"/>
			<point x="462" y="31"/>
			<point x="459" y="23"/>
			<point x="459" y="16" type="curve" smooth="yes"/>
			<point x="459" y="12"/>
			<point x="461" y="3"/>
			<point x="463" y="0" type="curve"/>
		</contour>
		<contour>
			<point x="452" y="255" type="line"/>
			<point x="214" y="255" type="line"/>
			<point x="333" y="569" type="line"/>
		</contour>
		<contour>
			<point name="top.UC" x="336" y="670" type="move"/>
		</contour>
		<contour>
			<point name="bottom.UC" x="336" y="-40" type="move"/>
		</contour>
		<contour>
			<point name="ogonek.UC" x="640" y="-40" type="move"/>
		</contour>
	</outline>
</glyph>
<glyph name="B" format="1">
	<unicode hex="0042"/>
	<advance width="595"/>
	<outline>
		<contour>
			<point x="363" y="0" type="line" smooth="yes"/>
			<point x="480" y="0"/>
			<point x="560" y="70"/>
			<point x="560" y="173" type="curve" smooth="yes"/>
			<point x="560" y="259"/>
			<point x="508" y="320"/>
			<point x="419" y="340" type="curve"/>
			<point x="480" y="367"/>
			<point x="519" y="421"/>
			<point x="519" y="482" type="curve" smooth="yes"/>
			<point x="519" y="578"/>
			<point x="443" y="645"/>
			<point x="335" y="645" type="curve" smooth="yes"/>
			<point x="58" y="645" type="line"/>
			<point x="56" y="637" type="line" smooth="yes"/>
			<point x="53" y="627"/>
			<point x="51" y="617"/>
			<point x="51" y="613" type="curve" smooth="yes"/>
			<point x="51" y="604"/>
			<point x="56" y="599"/>
			<point x="67" y="599" type="curve" smooth="yes"/>
			<point x="125" y="599" type="line"/>
			<point x="125" y="44" type="line"/>
			<point x="58" y="36" type="line"/>
			<point x="54" y="31"/>
			<point x="51" y="23"/>
			<point x="51" y="16" type="curve" smooth="yes"/>
			<point x="51" y="12"/>
			<point x="53" y="3"/>
			<point x="55" y="0" type="curve"/>
		</contour>
		<contour>
			<point x="181" y="46" type="line"/>
			<point x="181" y="312" type="line"/>
			<point x="359" y="312" type="line" smooth="yes"/>
			<point x="442" y="312"/>
			<point x="501" y="254"/>
			<point x="501" y="172" type="curve" smooth="yes"/>
			<point x="501" y="95"/>
			<point x="448" y="46"/>
			<point x="363" y="46" type="curve" smooth="yes"/>
		</contour>
		<contour>
			<point x="181" y="357" type="line"/>
			<point x="181" y="599" type="line"/>
			<point x="335" y="599" type="line" smooth="yes"/>
			<point x="409" y="599"/>
			<point x="460" y="551"/>
			<point x="460" y="480" type="curve" smooth="yes"/>
			<point x="460" y="409"/>
			<point x="408" y="357"/>
			<point x="335" y="357" type="curve" smooth="yes"/>
		</contour>
		<contour>
			<point name="top.UC" x="285" y="670" type="move"/>
		</contour>
		<contour>
			<point name="bottom.UC" x="305" y="-40" type="move"/>
		</contour>
	</outline>
</glyph>
<glyph name="C" format="1">
	<unicode hex="0043"/>
	<advance width="593"/>
	<outline>
		<contour>
			<point x="503" y="460" type="line"/>
			<point x="508" y="456"/>
			<point x="516" y="453"/>
			<point x="523" y="453" type="curve" smooth="yes"/>
			<point x="527" y="453"/>
			<point x="536" y="455"/>
			<point x="539" y="457" type="curve"/>
			<point x="537" y="587" type="line"/>
			<point x="533" y="596"/>
			<point x="526" y="608"/>
			<point x="518" y="617" type="curve"/>
			<point x="465" y="641"/>
			<point x="399" y="655"/>
			<point x="344" y="655" type="curve" smooth="yes"/>
			<point x="167" y="655"/>
			<point x="50" y="523"/>
			<point x="50" y="323" type="curve" smooth="yes"/>
			<point x="50" y="121"/>
			<point x="169" y="-10"/>
			<point x="351" y="-10" type="curve" smooth="yes"/>
			<point x="423" y="-10"/>
			<point x="501" y="11"/>
			<point x="550" y="43" type="curve"/>
			<point x="547" y="58"/>
			<point x="541" y="71"/>
			<point x="531" y="83" type="curve"/>
			<point x="478" y="56"/>
			<point x="417" y="41"/>
			<point x="360" y="41" type="curve" smooth="yes"/>
			<point x="206" y="41"/>
			<point x="109" y="149"/>
			<point x="109" y="323" type="curve" smooth="yes"/>
			<point x="109" y="495"/>
			<point x="203" y="608"/>
			<point x="348" y="608" type="curve" smooth="yes"/>
			<point x="390" y="608"/>
			<point x="430" y="600"/>
			<point x="475" y="582" type="curve"/>
		</contour>
		<contour>
			<point name="top.UC" x="330" y="670" type="move"/>
		</contour>
		<contour>
			<point name="bottom.UC" x="345" y="-40" type="move"/>
		</contour>
	</outline>
</glyph>
<glyph name="E" format="1">
	<unicode hex="0045"/>
	<advance width="596"/>
	<outline>
		<contour>
			<point x="520" y="0" type="line"/>
			<point x="529" y="7"/>
			<point x="538" y="17"/>
			<point x="544" y="26" type="curve"/>
			<point x="546" y="158" type="line"/>
			<point x="543" y="160"/>
			<point x="534" y="162"/>
			<point x="530" y="162" type="curve" smooth="yes"/>
			<point x="523" y="162"/>
			<point x="515" y="159"/>
			<point x="510" y="155" type="curve"/>
			<point x="485" y="46" type="line"/>
			<point x="181" y="46" type="line"/>
			<point x="181" y="307" type="line"/>
			<point x="381" y="307" type="line"/>
			<point x="393" y="242" type="line"/>
			<point x="398" y="238"/>
			<point x="406" y="235"/>
			<point x="413" y="235" type="curve" smooth="yes"/>
			<point x="417" y="235"/>
			<point x="426" y="237"/>
			<point x="429" y="239" type="curve"/>
			<point x="429" y="415" type="line"/>
			<point x="423" y="418" type="line" smooth="yes"/>
			<point x="416" y="421"/>
			<point x="411" y="423"/>
			<point x="407" y="423" type="curve" smooth="yes"/>
			<point x="398" y="423"/>
			<point x="392" y="417"/>
			<point x="390" y="405" type="curve" smooth="yes"/>
			<point x="381" y="352" type="line"/>
			<point x="181" y="352" type="line"/>
			<point x="181" y="599" type="line"/>
			<point x="475" y="599" type="line"/>
			<point x="500" y="490" type="line"/>
			<point x="505" y="486"/>
			<point x="513" y="483"/>
			<point x="520" y="483" type="curve" smooth="yes"/>
			<point x="524" y="483"/>
			<point x="533" y="485"/>
			<point x="536" y="487" type="curve"/>
			<point x="534" y="619" type="line"/>
			<point x="528" y="628"/>
			<point x="519" y="638"/>
			<point x="510" y="645" type="curve"/>
			<point x="58" y="645" type="line"/>
			<point x="56" y="637" type="line" smooth="yes"/>
			<point x="53" y="627"/>
			<point x="51" y="617"/>
			<point x="51" y="613" type="curve" smooth="yes"/>
			<point x="51" y="604"/>
			<point x="56" y="599"/>
			<point x="67" y="599" type="curve" smooth="yes"/>
			<point x="125" y="599" type="line"/>
			<point x="125" y="44" type="line"/>
			<point x="58" y="36" type="line"/>
			<point x="54" y="31"/>
			<point x="51" y="23"/>
			<point x="51" y="16" type="curve" smooth="yes"/>
			<point x="51" y="12"/>
			<point x="53" y="3"/>
			<point x="55" y="0" type="curve"/>
		</contour>
		<contour>
			<point name="top.UC" x="315" y="670" type="move"/>
		</contour>
		<contour>
			<point name="bottom.UC" x="315" y="-40" type="move"/>
		</contour>
		<contour>
			<point name="ogonek.UC" x="502" y="-40" type="move"/>
		</contour>
	</outline>
</glyph>
<glyph name="F" format="1">
	<unicode hex="0046"/>
	<advance width="566"/>
	<outline>
		<contour>
			<point x="308" y="0" type="line"/>
			<point x="310" y="8" type="line" smooth="yes"/>
			<point x="313" y="18"/>
			<point x="315" y="28"/>
			<point x="315" y="32" type="curve" smooth="yes"/>
			<point x="315" y="41"/>
			<point x="310" y="46"/>
			<point x="299" y="46" type="curve" smooth="yes"/>
			<point x="181" y="46" type="line"/>
			<point x="181" y="301" type="line"/>
			<point x="371" y="301" type="line"/>
			<point x="383" y="236" type="line"/>
			<point x="388" y="232"/>
			<point x="396" y="229"/>
			<point x="403" y="229" type="curve" smooth="yes"/>
			<point x="407" y="229"/>
			<point x="416" y="231"/>
			<point x="419" y="233" type="curve"/>
			<point x="419" y="409" type="line"/>
			<point x="413" y="412" type="line" smooth="yes"/>
			<point x="406" y="415"/>
			<point x="401" y="417"/>
			<point x="397" y="417" type="curve" smooth="yes"/>
			<point x="388" y="417"/>
			<point x="382" y="411"/>
			<point x="380" y="399" type="curve" smooth="yes"/>
			<point x="371" y="346" type="line"/>
			<point x="181" y="346" type="line"/>
			<point x="181" y="599" type="line"/>
			<point x="465" y="599" type="line"/>
			<point x="490" y="490" type="line"/>
			<point x="495" y="486"/>
			<point x="503" y="483"/>
			<point x="510" y="483" type="curve" smooth="yes"/>
			<point x="514" y="483"/>
			<point x="523" y="485"/>
			<point x="526" y="487" type="curve"/>
			<point x="524" y="619" type="line"/>
			<point x="518" y="628"/>
			<point x="509" y="638"/>
			<point x="500" y="645" type="curve"/>
			<point x="58" y="645" type="line"/>
			<point x="56" y="637" type="line" smooth="yes"/>
			<point x="53" y="627"/>
			<point x="51" y="617"/>
			<point x="51" y="613" type="curve" smooth="yes"/>
			<point x="51" y="604"/>
			<point x="56" y="599"/>
			<point x="67" y="599" type="curve" smooth="yes"/>
			<point x="125" y="599" type="line"/>
			<point x="125" y="44" type="line"/>
			<point x="58" y="36" type="line"/>
			<point x="54" y="31"/>
			<point x="51" y="23"/>
			<point x="51" y="16" type="curve" smooth="yes"/>
			<point x="51" y="12"/>
			<point x="53" y="3"/>
			<point x="55" y="0" type="curve"/>
		</contour>
		<contour>
			<point name="top.UC" x="310" y="670" type="move"/>
		</contour>
		<contour>
			<point name="bottom.UC" x="183" y="-40" type="move"/>
		</contour>
	</outline>
</glyph>
<glyph name="G" format="1">
	<unicode hex="0047"/>
	<advance width="667"/>
	<outline>
		<contour>
			<point x="517" y="62" type="line"/>
			<point x="481" y="48"/>
			<point x="415" y="37"/>
			<point x="367" y="37" type="curve" smooth="yes"/>
			<point x="209" y="37"/>
			<point x="109" y="147"/>
			<point x="109" y="321" type="curve" smooth="yes"/>
			<point x="109" y="497"/>
			<point x="206" y="608"/>
			<point x="361" y="608" type="curve" smooth="yes"/>
			<point x="408" y="608"/>
			<point x="447" y="600"/>
			<point x="494" y="582" type="curve"/>
			<point x="521" y="467" type="line"/>
			<point x="526" y="463"/>
			<point x="534" y="460"/>
			<point x="541" y="460" type="curve" smooth="yes"/>
			<point x="545" y="460"/>
			<point x="554" y="462"/>
			<point x="557" y="464" type="curve"/>
			<point x="555" y="587" type="line"/>
			<point x="551" y="596"/>
			<point x="544" y="608"/>
			<point x="536" y="617" type="curve"/>
			<point x="483" y="641"/>
			<point x="416" y="655"/>
			<point x="361" y="655" type="curve" smooth="yes"/>
			<point x="172" y="655"/>
			<point x="50" y="524"/>
			<point x="50" y="322" type="curve" smooth="yes"/>
			<point x="50" y="118"/>
			<point x="171" y="-10"/>
			<point x="362" y="-10" type="curve" smooth="yes"/>
			<point x="429" y="-10"/>
			<point x="505" y="5"/>
			<point x="554" y="28" type="curve"/>
			<point x="562" y="37"/>
			<point x="569" y="49"/>
			<point x="573" y="58" type="curve"/>
			<point x="573" y="271" type="line"/>
			<point x="635" y="279" type="line"/>
			<point x="639" y="284"/>
			<point x="642" y="292"/>
			<point x="642" y="299" type="curve" smooth="yes"/>
			<point x="642" y="303"/>
			<point x="640" y="312"/>
			<point x="638" y="315" type="curve"/>
			<point x="400" y="315" type="line"/>
			<point x="398" y="307" type="line" smooth="yes"/>
			<point x="395" y="297"/>
			<point x="393" y="287"/>
			<point x="393" y="283" type="curve" smooth="yes"/>
			<point x="393" y="274"/>
			<point x="398" y="269"/>
			<point x="409" y="269" type="curve" smooth="yes"/>
			<point x="517" y="269" type="line"/>
		</contour>
		<contour>
			<point name="top.UC" x="340" y="670" type="move"/>
		</contour>
		<contour>
			<point name="bottom.UC" x="355" y="-40" type="move"/>
		</contour>
	</outline>
</glyph>
<glyph name="H" format="1">
	<unicode hex="0048"/>
	<advance width="724"/>
	<outline>
		<contour>
			<point x="666" y="0" type="line"/>
			<point x="668" y="8" type="line" smooth="yes"/>
			<point x="671" y="18"/>
			<point x="673" y="28"/>
			<point x="673" y="32" type="curve" smooth="yes"/>
			<point x="673" y="41"/>
			<point x="668" y="46"/>
			<point x="657" y="46" type="curve" smooth="yes"/>
			<point x="599" y="46" type="line"/>
			<point x="599" y="601" type="line"/>
			<point x="666" y="609" type="line"/>
			<point x="670" y="614"/>
			<point x="673" y="622"/>
			<point x="673" y="629" type="curve" smooth="yes"/>
			<point x="673" y="633"/>
			<point x="671" y="642"/>
			<point x="669" y="645" type="curve"/>
			<point x="476" y="645" type="line"/>
			<point x="474" y="637" type="line" smooth="yes"/>
			<point x="471" y="627"/>
			<point x="469" y="617"/>
			<point x="469" y="613" type="curve" smooth="yes"/>
			<point x="469" y="604"/>
			<point x="474" y="599"/>
			<point x="485" y="599" type="curve" smooth="yes"/>
			<point x="543" y="599" type="line"/>
			<point x="543" y="354" type="line"/>
			<point x="181" y="354" type="line"/>
			<point x="181" y="601" type="line"/>
			<point x="248" y="609" type="line"/>
			<point x="252" y="614"/>
			<point x="255" y="622"/>
			<point x="255" y="629" type="curve" smooth="yes"/>
			<point x="255" y="633"/>
			<point x="253" y="642"/>
			<point x="251" y="645" type="curve"/>
			<point x="58" y="645" type="line"/>
			<point x="56" y="637" type="line" smooth="yes"/>
			<point x="53" y="627"/>
			<point x="51" y="617"/>
			<point x="51" y="613" type="curve" smooth="yes"/>
			<point x="51" y="604"/>
			<point x="56" y="599"/>
			<point x="67" y="599" type="curve" smooth="yes"/>
			<point x="125" y="599" type="line"/>
			<point x="125" y="44" type="line"/>
			<point x="58" y="36" type="line"/>
			<point x="54" y="31"/>
			<point x="51" y="23"/>
			<point x="51" y="16" type="curve" smooth="yes"/>
			<point x="51" y="12"/>
			<point x="53" y="3"/>
			<point x="55" y="0" type="curve"/>
			<point x="248" y="0" type="line"/>
			<point x="250" y="8" type="line" smooth="yes"/>
			<point x="253" y="18"/>
			<point x="255" y="28"/>
			<point x="255" y="32" type="curve" smooth="yes"/>
			<point x="255" y="41"/>
			<point x="250" y="46"/>
			<point x="239" y="46" type="curve" smooth="yes"/>
			<point x="181" y="46" type="line"/>
			<point x="181" y="308" type="line"/>
			<point x="543" y="308" type="line"/>
			<point x="543" y="44" type="line"/>
			<point x="476" y="36" type="line"/>
			<point x="472" y="31"/>
			<point x="469" y="23"/>
			<point x="469" y="16" type="curve" smooth="yes"/>
			<point x="469" y="12"/>
			<point x="471" y="3"/>
			<point x="473" y="0" type="curve"/>
		</contour>
		<contour>
			<point name="top.UC" x="362" y="670" type="move"/>
		</contour>
		<contour>
			<point name="bottom.UC" x="362" y="-40" type="move"/>
		</contour>
	</outline>
</glyph>
<glyph name="J" format="2">
	<unicode hex="004A"/>
	<advance width="296"/>
	<outline>
		<contour>
			<point x="125" y="184" type="line" smooth="yes"/>
			<point x="125" y="54"/>
			<point x="88" y="-18"/>
			<point x="-29" y="-107" type="curve"/>
			<point x="-24" y="-121"/>
			<point x="-16" y="-132"/>
			<point x="-4" y="-142" type="curve"/>
			<point x="133" y="-54"/>
			<point x="181" y="35"/>
			<point x="181" y="201" type="curve" smooth="yes"/>
			<point x="181" y="601" type="line"/>
			<point x="258" y="609" type="line"/>
			<point x="262" y="614"/>
			<point x="265" y="622"/>
			<point x="265" y="629" type="curve" smooth="yes"/>
			<point x="265" y="633"/>
			<point x="263" y="642"/>
			<point x="261" y="645" type="curve"/>
			<point x="48" y="645" type="line"/>
			<point x="46" y="637" type="line" smooth="yes"/>
			<point x="43" y="627"/>
			<point x="41" y="617"/>
			<point x="41" y="613" type="curve" smooth="yes"/>
			<point x="41" y="604"/>
			<point x="46" y="599"/>
			<point x="57" y="599" type="curve" smooth="yes"/>
			<point x="125" y="599" type="line"/>
		</contour>
	</outline>
	<anchor name="top.UC" x="153" y="670"/>
	<anchor name="bottom.UC" x="80" y="-155"/>
</glyph>
<glyph name="K" format="1">
	<unicode hex="004B"/>
	<advance width="662"/>
	<outline>
		<contour>
			<point x="635" y="0" type="line"/>
			<point x="637" y="8" type="line" smooth="yes"/>
			<point x="640" y="18"/>
			<point x="642" y="28"/>
			<point x="642" y="32" type="curve" smooth="yes"/>
			<point x="642" y="41"/>
			<point x="637" y="46"/>
			<point x="626" y="46" type="curve" smooth="yes"/>
			<point x="571" y="46" type="line"/>
			<point x="338" y="387" type="line"/>
			<point x="527" y="601" type="line"/>
			<point x="590" y="609" type="line"/>
			<point x="594" y="614"/>
			<point x="597" y="622"/>
			<point x="597" y="629" type="curve" smooth="yes"/>
			<point x="597" y="633"/>
			<point x="595" y="642"/>
			<point x="593" y="645" type="curve"/>
			<point x="400" y="645" type="line"/>
			<point x="398" y="637" type="line" smooth="yes"/>
			<point x="395" y="627"/>
			<point x="393" y="617"/>
			<point x="393" y="613" type="curve" smooth="yes"/>
			<point x="393" y="604"/>
			<point x="398" y="599"/>
			<point x="409" y="599" type="curve" smooth="yes"/>
			<point x="462" y="599" type="line"/>
			<point x="181" y="274" type="line"/>
			<point x="181" y="601" type="line"/>
			<point x="248" y="609" type="line"/>
			<point x="252" y="614"/>
			<point x="255" y="622"/>
			<point x="255" y="629" type="curve" smooth="yes"/>
			<point x="255" y="633"/>
			<point x="253" y="642"/>
			<point x="251" y="645" type="curve"/>
			<point x="58" y="645" type="line"/>
			<point x="56" y="637" type="line" smooth="yes"/>
			<point x="53" y="627"/>
			<point x="51" y="617"/>
			<point x="51" y="613" type="curve" smooth="yes"/>
			<point x="51" y="604"/>
			<point x="56" y="599"/>
			<point x="67" y="599" type="curve" smooth="yes"/>
			<point x="125" y="599" type="line"/>
			<point x="125" y="44" type="line"/>
			<point x="58" y="36" type="line"/>
			<point x="54" y="31"/>
			<point x="51" y="23"/>
			<point x="51" y="16" type="curve" smooth="yes"/>
			<point x="51" y="12"/>
			<point x="53" y="3"/>
			<point x="55" y="0" type="curve"/>
			<point x="248" y="0" type="line"/>
			<point x="250" y="8" type="line" smooth="yes"/>
			<point x="253" y="18"/>
			<point x="255" y="28"/>
			<point x="255" y="32" type="curve" smooth="yes"/>
			<point x="255" y="41"/>
			<point x="250" y="46"/>
			<point x="239" y="46" type="curve" smooth="yes"/>
			<point x="181" y="46" type="line"/>
			<point x="181" y="208" type="line"/>
			<point x="303" y="347" type="line"/>
			<point x="505" y="44" type="line"/>
			<point x="440" y="36" type="line"/>
			<point x="436" y="31"/>
			<point x="433" y="23"/>
			<point x="433" y="16" type="curve" smooth="yes"/>
			<point x="433" y="12"/>
			<point x="435" y="3"/>
			<point x="437" y="0" type="curve"/>
		</contour>
		<contour>
			<point name="top.UC" x="315" y="670" type="move"/>
		</contour>
		<contour>
			<point name="bottom.UC" x="346" y="-40" type="move"/>
		</contour>
	</outline>
</glyph>
<glyph name="L" format="2">
	<unicode hex="004C"/>
	<advance width="551"/>
	<outline>
		<contour>
			<point x="495" y="0" type="line"/>
			<point x="504" y="7"/>
			<point x="513" y="17"/>
			<point x="519" y="26" type="curve"/>
			<point x="521" y="163" type="line"/>
			<point x="518" y="165"/>
			<point x="509" y="167"/>
			<point x="505" y="167" type="curve" smooth="yes"/>
			<point x="498" y="167"/>
			<point x="490" y="164"/>
			<point x="485" y="160" type="curve"/>
			<point x="460" y="46" type="line"/>
			<point x="181" y="46" type="line"/>
			<point x="181" y="601" type="line"/>
			<point x="258" y="609" type="line"/>
			<point x="262" y="614"/>
			<point x="265" y="622"/>
			<point x="265" y="629" type="curve" smooth="yes"/>
			<point x="265" y="633"/>
			<point x="263" y="642"/>
			<point x="261" y="645" type="curve"/>
			<point x="58" y="645" type="line"/>
			<point x="56" y="637" type="line" smooth="yes"/>
			<point x="53" y="627"/>
			<point x="51" y="617"/>
			<point x="51" y="613" type="curve" smooth="yes"/>
			<point x="51" y="604"/>
			<point x="56" y="599"/>
			<point x="67" y="599" type="curve" smooth="yes"/>
			<point x="125" y="599" type="line"/>
			<point x="125" y="44" type="line"/>
			<point x="58" y="36" type="line"/>
			<point x="54" y="31"/>
			<point x="51" y="23"/>
			<point x="51" y="16" type="curve" smooth="yes"/>
			<point x="51" y="12"/>
			<point x="53" y="3"/>
			<point x="55" y="0" type="curve"/>
		</contour>
	</outline>
	<anchor name="top.UC" x="153" y="670"/>
	<anchor name="bottom.UC" x="302" y="-40"/>
	<anchor name="top_right" x="295" y="485"/>
</glyph>
<glyph name="N" format="2">
	<unicode hex="004E"/>
	<advance width="711"/>
	<outline>
		<contour>
			<point x="556" y="-5" type="line"/>
			<point x="570" y="-3"/>
			<point x="584" y="0"/>
			<point x="596" y="5" type="curve"/>
			<point x="596" y="601" type="line"/>
			<point x="663" y="609" type="line"/>
			<point x="667" y="614"/>
			<point x="670" y="622"/>
			<point x="670" y="629" type="curve" smooth="yes"/>
			<point x="670" y="633"/>
			<point x="668" y="642"/>
			<point x="666" y="645" type="curve"/>
			<point x="477" y="645" type="line"/>
			<point x="475" y="637" type="line" smooth="yes"/>
			<point x="472" y="627"/>
			<point x="470" y="617"/>
			<point x="470" y="613" type="curve" smooth="yes"/>
			<point x="470" y="604"/>
			<point x="475" y="599"/>
			<point x="486" y="599" type="curve" smooth="yes"/>
			<point x="544" y="599" type="line"/>
			<point x="544" y="109" type="line"/>
			<point x="182" y="645" type="line"/>
			<point x="58" y="645" type="line"/>
			<point x="56" y="637" type="line" smooth="yes"/>
			<point x="53" y="627"/>
			<point x="51" y="617"/>
			<point x="51" y="613" type="curve" smooth="yes"/>
			<point x="51" y="604"/>
			<point x="56" y="599"/>
			<point x="67" y="599" type="curve" smooth="yes"/>
			<point x="125" y="599" type="line"/>
			<point x="125" y="44" type="line"/>
			<point x="58" y="36" type="line"/>
			<point x="54" y="31"/>
			<point x="51" y="23"/>
			<point x="51" y="16" type="curve" smooth="yes"/>
			<point x="51" y="12"/>
			<point x="53" y="3"/>
			<point x="55" y="0" type="curve"/>
			<point x="244" y="0" type="line"/>
			<point x="246" y="8" type="line" smooth="yes"/>
			<point x="249" y="18"/>
			<point x="251" y="28"/>
			<point x="251" y="32" type="curve" smooth="yes"/>
			<point x="251" y="41"/>
			<point x="246" y="46"/>
			<point x="235" y="46" type="curve" smooth="yes"/>
			<point x="177" y="46" type="line"/>
			<point x="177" y="556" type="line"/>
		</contour>
	</outline>
	<anchor name="top.UC" x="352" y="670"/>
	<anchor name="bottom.UC" x="372" y="-40"/>
</glyph>
<glyph name="O" format="2">
	<unicode hex="004F"/>
	<advance width="694"/>
	<outline>
		<contour>
			<point x="347" y="37" type="curve" smooth="yes"/>
			<point x="203" y="37"/>
			<point x="109" y="150"/>
			<point x="109" y="323" type="curve" smooth="yes"/>
			<point x="109" y="495"/>
			<point x="203" y="608"/>
			<point x="347" y="608" type="curve" smooth="yes"/>
			<point x="491" y="608"/>
			<point x="585" y="495"/>
			<point x="585" y="323" type="curve" smooth="yes"/>
			<point x="585" y="150"/>
			<point x="491" y="37"/>
		</contour>
		<contour>
			<point x="347" y="-10" type="curve" smooth="yes"/>
			<point x="526" y="-10"/>
			<point x="644" y="122"/>
			<point x="644" y="323" type="curve" smooth="yes"/>
			<point x="644" y="523"/>
			<point x="526" y="655"/>
			<point x="347" y="655" type="curve" smooth="yes"/>
			<point x="168" y="655"/>
			<point x="50" y="523"/>
			<point x="50" y="323" type="curve" smooth="yes"/>
			<point x="50" y="122"/>
			<point x="168" y="-10"/>
		</contour>
	</outline>
	<anchor name="top.UC" x="347" y="670"/>
	<anchor name="bottom.UC" x="347" y="-40"/>
</glyph>
<glyph name="P" format="1">
	<unicode hex="0050"/>
	<advance width="566"/>
	<outline>
		<contour>
			<point x="298" y="0" type="line"/>
			<point x="300" y="8" type="line" smooth="yes"/>
			<point x="303" y="18"/>
			<point x="305" y="28"/>
			<point x="305" y="32" type="curve" smooth="yes"/>
			<point x="305" y="41"/>
			<point x="300" y="46"/>
			<point x="289" y="46" type="curve" smooth="yes"/>
			<point x="181" y="46" type="line"/>
			<point x="181" y="253" type="line"/>
			<point x="307" y="253" type="line" smooth="yes"/>
			<point x="474" y="253"/>
			<point x="535" y="361"/>
			<point x="535" y="449" type="curve" smooth="yes"/>
			<point x="535" y="537"/>
			<point x="474" y="645"/>
			<point x="307" y="645" type="curve" smooth="yes"/>
			<point x="58" y="645" type="line"/>
			<point x="56" y="637" type="line" smooth="yes"/>
			<point x="53" y="627"/>
			<point x="51" y="617"/>
			<point x="51" y="613" type="curve" smooth="yes"/>
			<point x="51" y="604"/>
			<point x="56" y="599"/>
			<point x="67" y="599" type="curve" smooth="yes"/>
			<point x="125" y="599" type="line"/>
			<point x="125" y="44" type="line"/>
			<point x="58" y="36" type="line"/>
			<point x="54" y="31"/>
			<point x="51" y="23"/>
			<point x="51" y="16" type="curve" smooth="yes"/>
			<point x="51" y="12"/>
			<point x="53" y="3"/>
			<point x="55" y="0" type="curve"/>
		</contour>
		<contour>
			<point x="181" y="299" type="line"/>
			<point x="181" y="599" type="line"/>
			<point x="307" y="599" type="line" smooth="yes"/>
			<point x="411" y="599"/>
			<point x="476" y="541"/>
			<point x="476" y="449" type="curve" smooth="yes"/>
			<point x="476" y="357"/>
			<point x="411" y="299"/>
			<point x="307" y="299" type="curve" smooth="yes"/>
		</contour>
		<contour>
			<point name="top.UC" x="280" y="670" type="move"/>
		</contour>
		<contour>
			<point name="bottom.UC" x="178" y="-40" type="move"/>
		</contour>
	</outline>
</glyph>
<glyph name="Q" format="2">
	<unicode hex="0051"/>
	<advance width="694"/>
	<outline>
		<contour>
			<point x="343" y="-9" type="curve"/>
			<point x="418" y="-71"/>
			<point x="528" y="-105"/>
			<point x="652" y="-105" type="curve"/>
			<point x="655" y="-96"/>
			<point x="657" y="-86"/>
			<point x="657" y="-77" type="curve" smooth="yes"/>
			<point x="657" y="-73"/>
			<point x="656" y="-66"/>
			<point x="655" y="-61" type="curve"/>
			<point x="534" y="-48"/>
			<point x="475" y="-33"/>
			<point x="423" y="1" type="curve"/>
			<point x="558" y="34"/>
			<point x="644" y="153"/>
			<point x="644" y="323" type="curve" smooth="yes"/>
			<point x="644" y="523"/>
			<point x="526" y="655"/>
			<point x="347" y="655" type="curve" smooth="yes"/>
			<point x="168" y="655"/>
			<point x="50" y="523"/>
			<point x="50" y="323" type="curve" smooth="yes"/>
			<point x="50" y="123"/>
			<point x="166" y="-8"/>
		</contour>
		<contour>
			<point x="347" y="37" type="curve" smooth="yes"/>
			<point x="203" y="37"/>
			<point x="109" y="150"/>
			<point x="109" y="323" type="curve" smooth="yes"/>
			<point x="109" y="495"/>
			<point x="203" y="608"/>
			<point x="347" y="608" type="curve" smooth="yes"/>
			<point x="491" y="608"/>
			<point x="585" y="495"/>
			<point x="585" y="323" type="curve" smooth="yes"/>
			<point x="585" y="150"/>
			<point x="491" y="37"/>
		</contour>
	</outline>
	<anchor name="top.UC" x="347" y="670"/>
	<anchor name="bottom.UC" x="320" y="-75"/>
</glyph>
<glyph name="R" format="1">
	<unicode hex="0052"/>
	<advance width="620"/>
	<outline>
		<contour>
			<point x="430" y="82" type="line" smooth="yes"/>
			<point x="464" y="22"/>
			<point x="497" y="-4"/>
			<point x="540" y="-4" type="curve" smooth="yes"/>
			<point x="558" y="-4"/>
			<point x="581" y="0"/>
			<point x="604" y="8" type="curve"/>
			<point x="603" y="24"/>
			<point x="600" y="36"/>
			<point x="595" y="45" type="curve"/>
			<point x="585" y="44"/>
			<point x="572" y="43"/>
			<point x="561" y="43" type="curve" smooth="yes"/>
			<point x="528" y="43"/>
			<point x="512" y="54"/>
			<point x="487" y="96" type="curve" smooth="yes"/>
			<point x="377" y="279" type="line"/>
			<point x="484" y="302"/>
			<point x="525" y="391"/>
			<point x="525" y="459" type="curve" smooth="yes"/>
			<point x="525" y="537"/>
			<point x="471" y="645"/>
			<point x="321" y="645" type="curve" smooth="yes"/>
			<point x="58" y="645" type="line"/>
			<point x="56" y="637" type="line" smooth="yes"/>
			<point x="53" y="627"/>
			<point x="51" y="617"/>
			<point x="51" y="613" type="curve" smooth="yes"/>
			<point x="51" y="604"/>
			<point x="56" y="599"/>
			<point x="67" y="599" type="curve" smooth="yes"/>
			<point x="125" y="599" type="line"/>
			<point x="125" y="44" type="line"/>
			<point x="58" y="36" type="line"/>
			<point x="54" y="31"/>
			<point x="51" y="23"/>
			<point x="51" y="16" type="curve" smooth="yes"/>
			<point x="51" y="12"/>
			<point x="53" y="3"/>
			<point x="55" y="0" type="curve"/>
			<point x="248" y="0" type="line"/>
			<point x="250" y="8" type="line" smooth="yes"/>
			<point x="253" y="18"/>
			<point x="255" y="28"/>
			<point x="255" y="32" type="curve" smooth="yes"/>
			<point x="255" y="41"/>
			<point x="250" y="46"/>
			<point x="239" y="46" type="curve" smooth="yes"/>
			<point x="181" y="46" type="line"/>
			<point x="181" y="273" type="line"/>
			<point x="320" y="273" type="line"/>
		</contour>
		<contour>
			<point x="181" y="319" type="line"/>
			<point x="181" y="599" type="line"/>
			<point x="321" y="599" type="line" smooth="yes"/>
			<point x="410" y="599"/>
			<point x="466" y="538"/>
			<point x="466" y="459" type="curve" smooth="yes"/>
			<point x="466" y="380"/>
			<point x="410" y="319"/>
			<point x="321" y="319" type="curve" smooth="yes"/>
		</contour>
		<contour>
			<point name="top.UC" x="280" y="670" type="move"/>
		</contour>
		<contour>
			<point name="bottom.UC" x="355" y="-40" type="move"/>
		</contour>
	</outline>
</glyph>
<glyph name="S" format="2">
	<unicode hex="0053"/>
	<advance width="527"/>
	<outline>
		<contour>
			<point x="52" y="60" type="line"/>
			<point x="56" y="51"/>
			<point x="63" y="39"/>
			<point x="71" y="30" type="curve"/>
			<point x="114" y="5"/>
			<point x="180" y="-10"/>
			<point x="248" y="-10" type="curve" smooth="yes"/>
			<point x="394" y="-10"/>
			<point x="482" y="57"/>
			<point x="482" y="168" type="curve" smooth="yes"/>
			<point x="482" y="256"/>
			<point x="427" y="308"/>
			<point x="281" y="358" type="curve" smooth="yes"/>
			<point x="150" y="403"/>
			<point x="114" y="433"/>
			<point x="114" y="498" type="curve" smooth="yes"/>
			<point x="114" y="570"/>
			<point x="166" y="609"/>
			<point x="261" y="609" type="curve" smooth="yes"/>
			<point x="302" y="609"/>
			<point x="341" y="601"/>
			<point x="378" y="585" type="curve"/>
			<point x="405" y="472" type="line"/>
			<point x="410" y="468"/>
			<point x="418" y="465"/>
			<point x="425" y="465" type="curve" smooth="yes"/>
			<point x="429" y="465"/>
			<point x="438" y="467"/>
			<point x="441" y="469" type="curve"/>
			<point x="439" y="589" type="line"/>
			<point x="435" y="598"/>
			<point x="428" y="610"/>
			<point x="420" y="619" type="curve"/>
			<point x="373" y="642"/>
			<point x="317" y="655"/>
			<point x="261" y="655" type="curve" smooth="yes"/>
			<point x="133" y="655"/>
			<point x="57" y="596"/>
			<point x="57" y="498" type="curve" smooth="yes"/>
			<point x="57" y="409"/>
			<point x="112" y="359"/>
			<point x="270" y="306" type="curve" smooth="yes"/>
			<point x="385" y="267"/>
			<point x="424" y="232"/>
			<point x="424" y="168" type="curve" smooth="yes"/>
			<point x="424" y="85"/>
			<point x="359" y="37"/>
			<point x="248" y="37" type="curve" smooth="yes"/>
			<point x="198" y="37"/>
			<point x="150" y="47"/>
			<point x="113" y="63" type="curve"/>
			<point x="86" y="182" type="line"/>
			<point x="81" y="186"/>
			<point x="73" y="189"/>
			<point x="66" y="189" type="curve" smooth="yes"/>
			<point x="62" y="189"/>
			<point x="53" y="187"/>
			<point x="50" y="185" type="curve"/>
		</contour>
	</outline>
	<anchor name="top.UC" x="249" y="670"/>
	<anchor name="bottom.UC" x="264" y="-40"/>
</glyph>
<glyph name="T" format="1">
	<unicode hex="0054"/>
	<advance width="622"/>
	<outline>
		<contour>
			<point x="436" y="0" type="line"/>
			<point x="438" y="8" type="line" smooth="yes"/>
			<point x="441" y="18"/>
			<point x="443" y="28"/>
			<point x="443" y="32" type="curve" smooth="yes"/>
			<point x="443" y="41"/>
			<point x="438" y="46"/>
			<point x="427" y="46" type="curve" smooth="yes"/>
			<point x="339" y="46" type="line"/>
			<point x="339" y="599" type="line"/>
			<point x="521" y="599" type="line"/>
			<point x="546" y="490" type="line"/>
			<point x="551" y="486"/>
			<point x="559" y="483"/>
			<point x="566" y="483" type="curve" smooth="yes"/>
			<point x="570" y="483"/>
			<point x="579" y="485"/>
			<point x="582" y="487" type="curve"/>
			<point x="580" y="619" type="line"/>
			<point x="574" y="628"/>
			<point x="565" y="638"/>
			<point x="556" y="645" type="curve"/>
			<point x="66" y="645" type="line"/>
			<point x="57" y="638"/>
			<point x="48" y="628"/>
			<point x="42" y="619" type="curve"/>
			<point x="40" y="487" type="line"/>
			<point x="43" y="485"/>
			<point x="52" y="483"/>
			<point x="56" y="483" type="curve" smooth="yes"/>
			<point x="63" y="483"/>
			<point x="71" y="486"/>
			<point x="76" y="490" type="curve"/>
			<point x="101" y="599" type="line"/>
			<point x="283" y="599" type="line"/>
			<point x="283" y="44" type="line"/>
			<point x="186" y="36" type="line"/>
			<point x="182" y="31"/>
			<point x="179" y="23"/>
			<point x="179" y="16" type="curve" smooth="yes"/>
			<point x="179" y="12"/>
			<point x="181" y="3"/>
			<point x="183" y="0" type="curve"/>
		</contour>
		<contour>
			<point name="top.UC" x="311" y="670" type="move"/>
		</contour>
		<contour>
			<point name="bottom.UC" x="311" y="-40" type="move"/>
		</contour>
	</outline>
</glyph>
<glyph name="U" format="2">
	<unicode hex="0055"/>
	<advance width="698"/>
	<outline>
		<contour>
			<point x="530" y="221" type="line" smooth="yes"/>
			<point x="530" y="115"/>
			<point x="470" y="37"/>
			<point x="349" y="37" type="curve" smooth="yes"/>
			<point x="233" y="37"/>
			<point x="171" y="115"/>
			<point x="171" y="221" type="curve" smooth="yes"/>
			<point x="171" y="601" type="line"/>
			<point x="238" y="609" type="line"/>
			<point x="242" y="614"/>
			<point x="245" y="622"/>
			<point x="245" y="629" type="curve" smooth="yes"/>
			<point x="245" y="633"/>
			<point x="243" y="642"/>
			<point x="241" y="645" type="curve"/>
			<point x="48" y="645" type="line"/>
			<point x="46" y="637" type="line" smooth="yes"/>
			<point x="43" y="627"/>
			<point x="41" y="617"/>
			<point x="41" y="613" type="curve" smooth="yes"/>
			<point x="41" y="604"/>
			<point x="46" y="599"/>
			<point x="57" y="599" type="curve" smooth="yes"/>
			<point x="115" y="599" type="line"/>
			<point x="115" y="221" type="line" smooth="yes"/>
			<point x="115" y="69"/>
			<point x="218" y="-10"/>
			<point x="349" y="-10" type="curve" smooth="yes"/>
			<point x="480" y="-10"/>
			<point x="583" y="69"/>
			<point x="583" y="221" type="curve" smooth="yes"/>
			<point x="583" y="601" type="line"/>
			<point x="650" y="609" type="line"/>
			<point x="654" y="614"/>
			<point x="657" y="622"/>
			<point x="657" y="629" type="curve" smooth="yes"/>
			<point x="657" y="633"/>
			<point x="655" y="642"/>
			<point x="653" y="645" type="curve"/>
			<point x="463" y="645" type="line"/>
			<point x="461" y="637" type="line" smooth="yes"/>
			<point x="458" y="627"/>
			<point x="456" y="617"/>
			<point x="456" y="613" type="curve" smooth="yes"/>
			<point x="456" y="604"/>
			<point x="461" y="599"/>
			<point x="472" y="599" type="curve" smooth="yes"/>
			<point x="530" y="599" type="line"/>
		</contour>
	</outline>
	<anchor name="top.UC" x="349" y="670"/>
	<anchor name="bottom.UC" x="349" y="-40"/>
	<anchor name="ogonek.UC.round" x="457" y="-40"/>
</glyph>
<glyph name="V" format="1">
	<unicode hex="0056"/>
	<advance width="644"/>
	<outline>
		<contour>
			<point x="300" y="-2" type="line"/>
			<point x="305" y="-3"/>
			<point x="315" y="-4"/>
			<point x="322" y="-4" type="curve" smooth="yes"/>
			<point x="329" y="-4"/>
			<point x="339" y="-3"/>
			<point x="344" y="-2" type="curve"/>
			<point x="568" y="601" type="line"/>
			<point x="635" y="609" type="line"/>
			<point x="639" y="614"/>
			<point x="642" y="622"/>
			<point x="642" y="629" type="curve" smooth="yes"/>
			<point x="642" y="633"/>
			<point x="640" y="642"/>
			<point x="638" y="645" type="curve"/>
			<point x="447" y="645" type="line"/>
			<point x="445" y="637" type="line" smooth="yes"/>
			<point x="442" y="627"/>
			<point x="440" y="617"/>
			<point x="440" y="613" type="curve" smooth="yes"/>
			<point x="440" y="604"/>
			<point x="445" y="599"/>
			<point x="456" y="599" type="curve" smooth="yes"/>
			<point x="514" y="599" type="line"/>
			<point x="325" y="82" type="line"/>
			<point x="136" y="601" type="line"/>
			<point x="203" y="609" type="line"/>
			<point x="207" y="614"/>
			<point x="210" y="622"/>
			<point x="210" y="629" type="curve" smooth="yes"/>
			<point x="210" y="633"/>
			<point x="208" y="642"/>
			<point x="206" y="645" type="curve"/>
			<point x="10" y="645" type="line"/>
			<point x="8" y="637" type="line" smooth="yes"/>
			<point x="5" y="627"/>
			<point x="3" y="617"/>
			<point x="3" y="613" type="curve" smooth="yes"/>
			<point x="3" y="604"/>
			<point x="8" y="599"/>
			<point x="19" y="599" type="curve" smooth="yes"/>
			<point x="77" y="599" type="line"/>
		</contour>
		<contour>
			<point name="top.UC" x="322" y="670" type="move"/>
		</contour>
		<contour>
			<point name="bottom.UC" x="322" y="-40" type="move"/>
		</contour>
	</outline>
</glyph>
<glyph name="W" format="1">
	<unicode hex="0057"/>
	<advance width="933"/>
	<outline>
		<contour>
			<point x="634" y="-2" type="line"/>
			<point x="639" y="-3"/>
			<point x="649" y="-4"/>
			<point x="656" y="-4" type="curve" smooth="yes"/>
			<point x="663" y="-4"/>
			<point x="673" y="-3"/>
			<point x="678" y="-2" type="curve"/>
			<point x="853" y="601" type="line"/>
			<point x="920" y="609" type="line"/>
			<point x="924" y="614"/>
			<point x="927" y="622"/>
			<point x="927" y="629" type="curve" smooth="yes"/>
			<point x="927" y="633"/>
			<point x="925" y="642"/>
			<point x="923" y="645" type="curve"/>
			<point x="732" y="645" type="line"/>
			<point x="730" y="637" type="line" smooth="yes"/>
			<point x="727" y="627"/>
			<point x="725" y="617"/>
			<point x="725" y="613" type="curve" smooth="yes"/>
			<point x="725" y="604"/>
			<point x="730" y="599"/>
			<point x="741" y="599" type="curve" smooth="yes"/>
			<point x="799" y="599" type="line"/>
			<point x="658" y="100" type="line"/>
			<point x="493" y="647" type="line"/>
			<point x="488" y="648"/>
			<point x="478" y="649"/>
			<point x="471" y="649" type="curve" smooth="yes"/>
			<point x="464" y="649"/>
			<point x="454" y="648"/>
			<point x="449" y="647" type="curve"/>
			<point x="279" y="102" type="line"/>
			<point x="139" y="601" type="line"/>
			<point x="206" y="609" type="line"/>
			<point x="210" y="614"/>
			<point x="213" y="622"/>
			<point x="213" y="629" type="curve" smooth="yes"/>
			<point x="213" y="633"/>
			<point x="211" y="642"/>
			<point x="209" y="645" type="curve"/>
			<point x="13" y="645" type="line"/>
			<point x="11" y="637" type="line" smooth="yes"/>
			<point x="8" y="627"/>
			<point x="6" y="617"/>
			<point x="6" y="613" type="curve" smooth="yes"/>
			<point x="6" y="604"/>
			<point x="11" y="599"/>
			<point x="22" y="599" type="curve" smooth="yes"/>
			<point x="80" y="599" type="line"/>
			<point x="255" y="-2" type="line"/>
			<point x="260" y="-3"/>
			<point x="270" y="-4"/>
			<point x="277" y="-4" type="curve" smooth="yes"/>
			<point x="284" y="-4"/>
			<point x="294" y="-3"/>
			<point x="299" y="-2" type="curve"/>
			<point x="468" y="542" type="line"/>
		</contour>
		<contour>
			<point name="top.UC" x="471" y="670" type="move"/>
		</contour>
		<contour>
			<point name="bottom.UC" x="471" y="-40" type="move"/>
		</contour>
	</outline>
</glyph>
<glyph name="X" format="1">
	<unicode hex="0058"/>
	<advance width="652"/>
	<outline>
		<contour>
			<point x="625" y="0" type="line"/>
			<point x="627" y="8" type="line" smooth="yes"/>
			<point x="630" y="18"/>
			<point x="632" y="28"/>
			<point x="632" y="32" type="curve" smooth="yes"/>
			<point x="632" y="41"/>
			<point x="627" y="46"/>
			<point x="616" y="46" type="curve" smooth="yes"/>
			<point x="558" y="46" type="line"/>
			<point x="360" y="334" type="line"/>
			<point x="536" y="601" type="line"/>
			<point x="603" y="609" type="line"/>
			<point x="607" y="614"/>
			<point x="610" y="622"/>
			<point x="610" y="629" type="curve" smooth="yes"/>
			<point x="610" y="633"/>
			<point x="608" y="642"/>
			<point x="606" y="645" type="curve"/>
			<point x="411" y="645" type="line"/>
			<point x="409" y="637" type="line" smooth="yes"/>
			<point x="406" y="627"/>
			<point x="404" y="617"/>
			<point x="404" y="613" type="curve" smooth="yes"/>
			<point x="404" y="604"/>
			<point x="409" y="599"/>
			<point x="420" y="599" type="curve" smooth="yes"/>
			<point x="478" y="599" type="line"/>
			<point x="330" y="371" type="line"/>
			<point x="182" y="601" type="line"/>
			<point x="249" y="609" type="line"/>
			<point x="253" y="614"/>
			<point x="256" y="622"/>
			<point x="256" y="629" type="curve" smooth="yes"/>
			<point x="256" y="633"/>
			<point x="254" y="642"/>
			<point x="252" y="645" type="curve"/>
			<point x="52" y="645" type="line"/>
			<point x="50" y="637" type="line" smooth="yes"/>
			<point x="47" y="627"/>
			<point x="45" y="617"/>
			<point x="45" y="613" type="curve" smooth="yes"/>
			<point x="45" y="604"/>
			<point x="50" y="599"/>
			<point x="61" y="599" type="curve" smooth="yes"/>
			<point x="119" y="599" type="line"/>
			<point x="293" y="333" type="line"/>
			<point x="94" y="44" type="line"/>
			<point x="27" y="36" type="line"/>
			<point x="23" y="31"/>
			<point x="20" y="23"/>
			<point x="20" y="16" type="curve" smooth="yes"/>
			<point x="20" y="12"/>
			<point x="22" y="3"/>
			<point x="24" y="0" type="curve"/>
			<point x="219" y="0" type="line"/>
			<point x="221" y="8" type="line" smooth="yes"/>
			<point x="224" y="18"/>
			<point x="226" y="28"/>
			<point x="226" y="32" type="curve" smooth="yes"/>
			<point x="226" y="41"/>
			<point x="221" y="46"/>
			<point x="210" y="46" type="curve" smooth="yes"/>
			<point x="152" y="46" type="line"/>
			<point x="323" y="297" type="line"/>
			<point x="495" y="44" type="line"/>
			<point x="428" y="36" type="line"/>
			<point x="424" y="31"/>
			<point x="421" y="23"/>
			<point x="421" y="16" type="curve" smooth="yes"/>
			<point x="421" y="12"/>
			<point x="423" y="3"/>
			<point x="425" y="0" type="curve"/>
		</contour>
		<contour>
			<point name="top.UC" x="326" y="670" type="move"/>
		</contour>
		<contour>
			<point name="bottom.UC" x="326" y="-40" type="move"/>
		</contour>
	</outline>
</glyph>
<glyph name="Y" format="1">
	<unicode hex="0059"/>
	<advance width="594"/>
	<outline>
		<contour>
			<point x="422" y="0" type="line"/>
			<point x="424" y="8" type="line" smooth="yes"/>
			<point x="427" y="18"/>
			<point x="429" y="28"/>
			<point x="429" y="32" type="curve" smooth="yes"/>
			<point x="429" y="41"/>
			<point x="424" y="46"/>
			<point x="413" y="46" type="curve" smooth="yes"/>
			<point x="325" y="46" type="line"/>
			<point x="325" y="230" type="line"/>
			<point x="528" y="601" type="line"/>
			<point x="595" y="609" type="line"/>
			<point x="599" y="614"/>
			<point x="602" y="622"/>
			<point x="602" y="629" type="curve" smooth="yes"/>
			<point x="602" y="633"/>
			<point x="600" y="642"/>
			<point x="598" y="645" type="curve"/>
			<point x="405" y="645" type="line"/>
			<point x="403" y="637" type="line" smooth="yes"/>
			<point x="400" y="627"/>
			<point x="398" y="617"/>
			<point x="398" y="613" type="curve" smooth="yes"/>
			<point x="398" y="604"/>
			<point x="403" y="599"/>
			<point x="414" y="599" type="curve" smooth="yes"/>
			<point x="472" y="599" type="line"/>
			<point x="301" y="278" type="line"/>
			<point x="128" y="601" type="line"/>
			<point x="195" y="609" type="line"/>
			<point x="199" y="614"/>
			<point x="202" y="622"/>
			<point x="202" y="629" type="curve" smooth="yes"/>
			<point x="202" y="633"/>
			<point x="200" y="642"/>
			<point x="198" y="645" type="curve"/>
			<point x="0" y="645" type="line"/>
			<point x="-2" y="637" type="line" smooth="yes"/>
			<point x="-5" y="627"/>
			<point x="-7" y="617"/>
			<point x="-7" y="613" type="curve" smooth="yes"/>
			<point x="-7" y="604"/>
			<point x="-2" y="599"/>
			<point x="9" y="599" type="curve" smooth="yes"/>
			<point x="67" y="599" type="line"/>
			<point x="269" y="230" type="line"/>
			<point x="269" y="44" type="line"/>
			<point x="172" y="36" type="line"/>
			<point x="168" y="31"/>
			<point x="165" y="23"/>
			<point x="165" y="16" type="curve" smooth="yes"/>
			<point x="165" y="12"/>
			<point x="167" y="3"/>
			<point x="169" y="0" type="curve"/>
		</contour>
		<contour>
			<point name="top.UC" x="297" y="670" type="move"/>
		</contour>
		<contour>
			<point name="bottom.UC" x="297" y="-40" type="move"/>
		</contour>
	</outline>
</glyph>
<glyph name="Z" format="2">
	<unicode hex="005A"/>
	<advance width="557"/>
	<outline>
		<contour>
			<point x="486" y="0" type="line"/>
			<point x="495" y="7"/>
			<point x="504" y="17"/>
			<point x="510" y="26" type="curve"/>
			<point x="512" y="163" type="line"/>
			<point x="509" y="165"/>
			<point x="500" y="167"/>
			<point x="496" y="167" type="curve" smooth="yes"/>
			<point x="489" y="167"/>
			<point x="481" y="164"/>
			<point x="476" y="160" type="curve"/>
			<point x="451" y="46" type="line"/>
			<point x="115" y="46" type="line"/>
			<point x="496" y="614" type="line"/>
			<point x="492" y="624"/>
			<point x="485" y="636"/>
			<point x="477" y="645" type="curve"/>
			<point x="95" y="645" type="line"/>
			<point x="86" y="638"/>
			<point x="77" y="628"/>
			<point x="71" y="619" type="curve"/>
			<point x="69" y="487" type="line"/>
			<point x="72" y="485"/>
			<point x="81" y="483"/>
			<point x="85" y="483" type="curve" smooth="yes"/>
			<point x="92" y="483"/>
			<point x="100" y="486"/>
			<point x="105" y="490" type="curve"/>
			<point x="130" y="599" type="line"/>
			<point x="423" y="599" type="line"/>
			<point x="42" y="31" type="line"/>
			<point x="46" y="21"/>
			<point x="53" y="9"/>
			<point x="61" y="0" type="curve"/>
		</contour>
	</outline>
	<anchor name="top.UC" x="282" y="670"/>
	<anchor name="bottom.UC" x="277" y="-40"/>
</glyph>
<glyph name="bracketleft" format="2">
	<unicode hex="005B"/>
	<advance width="352"/>
	<outline>
		<contour>
			<point x="319" y="-106" type="line"/>
			<point x="321" y="-103"/>
			<point x="323" y="-94"/>
			<point x="323" y="-90" type="curve" smooth="yes"/>
			<point x="323" y="-83"/>
			<point x="320" y="-75"/>
			<point x="316" y="-70" type="curve"/>
			<point x="181" y="-60" type="line"/>
			<point x="181" y="616" type="line"/>
			<point x="316" y="626" type="line"/>
			<point x="320" y="631"/>
			<point x="323" y="639"/>
			<point x="323" y="646" type="curve" smooth="yes"/>
			<point x="323" y="650"/>
			<point x="321" y="659"/>
			<point x="319" y="662" type="curve"/>
			<point x="149" y="662" type="line"/>
			<point x="140" y="655"/>
			<point x="131" y="645"/>
			<point x="125" y="636" type="curve"/>
			<point x="125" y="-80" type="line"/>
			<point x="131" y="-89"/>
			<point x="140" y="-99"/>
			<point x="149" y="-106" type="curve"/>
		</contour>
	</outline>
</glyph>
<glyph name="backslash" format="1">
	<unicode hex="005C"/>
	<advance width="381"/>
	<outline>
		<contour>
			<point x="281" y="-5" type="line"/>
			<point x="302" y="-4"/>
			<point x="316" y="0"/>
			<point x="331" y="10" type="curve"/>
			<point x="100" y="666" type="line"/>
			<point x="79" y="665"/>
			<point x="65" y="661"/>
			<point x="50" y="651" type="curve"/>
		</contour>
	</outline>
</glyph>
<glyph name="asciicircum" format="1">
	<unicode hex="005E"/>
	<advance width="560"/>
	<outline>
		<contour>
			<point x="429" y="223" type="line"/>
			<point x="445" y="223"/>
			<point x="468" y="228"/>
			<point x="477" y="235" type="curve"/>
			<point x="301" y="645" type="line"/>
			<point x="297" y="646"/>
			<point x="286" y="647"/>
			<point x="280" y="647" type="curve" smooth="yes"/>
			<point x="274" y="647"/>
			<point x="263" y="646"/>
			<point x="259" y="645" type="curve"/>
			<point x="83" y="235" type="line"/>
			<point x="92" y="228"/>
			<point x="113" y="223"/>
			<point x="129" y="223" type="curve"/>
			<point x="279" y="571" type="line"/>
		</contour>
	</outline>
</glyph>
<glyph name="underscore" format="1">
	<unicode hex="005F"/>
	<advance width="500"/>
	<outline>
		<contour>
			<point x="500" y="-111" type="line"/>
			<point x="504" y="-98"/>
			<point x="505" y="-93"/>
			<point x="505" y="-86" type="curve" smooth="yes"/>
			<point x="505" y="-80"/>
			<point x="504" y="-74"/>
			<point x="502" y="-63" type="curve"/>
			<point x="0" y="-63" type="line"/>
			<point x="-4" y="-76"/>
			<point x="-5" y="-81"/>
			<point x="-5" y="-88" type="curve" smooth="yes"/>
			<point x="-5" y="-94"/>
			<point x="-4" y="-100"/>
			<point x="-2" y="-111" type="curve"/>
		</contour>
	</outline>
</glyph>
<glyph name="a" format="2">
	<unicode hex="0061"/>
	<advance width="523"/>
	<outline>
		<contour>
			<point x="496" y="14" type="line"/>
			<point x="500" y="21"/>
			<point x="502" y="27"/>
			<point x="502" y="33" type="curve" smooth="yes"/>
			<point x="502" y="37"/>
			<point x="501" y="42"/>
			<point x="499" y="47" type="curve"/>
			<point x="423" y="47" type="line"/>
			<point x="423" y="311" type="line" smooth="yes"/>
			<point x="423" y="444"/>
			<point x="360" y="510"/>
			<point x="232" y="510" type="curve" smooth="yes"/>
			<point x="176" y="510"/>
			<point x="114" y="490"/>
			<point x="62" y="454" type="curve"/>
			<point x="62" y="444"/>
			<point x="71" y="425"/>
			<point x="81" y="417" type="curve"/>
			<point x="126" y="447"/>
			<point x="184" y="465"/>
			<point x="232" y="465" type="curve" smooth="yes"/>
			<point x="323" y="465"/>
			<point x="371" y="412"/>
			<point x="371" y="311" type="curve" smooth="yes"/>
			<point x="371" y="271" type="line"/>
			<point x="327" y="277"/>
			<point x="286" y="280"/>
			<point x="255" y="280" type="curve" smooth="yes"/>
			<point x="118" y="280"/>
			<point x="39" y="225"/>
			<point x="39" y="130" type="curve" smooth="yes"/>
			<point x="39" y="47"/>
			<point x="101" y="-10"/>
			<point x="193" y="-10" type="curve" smooth="yes"/>
			<point x="268" y="-10"/>
			<point x="332" y="26"/>
			<point x="374" y="89" type="curve"/>
			<point x="369" y="17" type="line"/>
			<point x="376" y="9"/>
			<point x="386" y="1"/>
			<point x="397" y="-5" type="curve"/>
		</contour>
		<contour>
			<point x="371" y="188" type="line" smooth="yes"/>
			<point x="371" y="109"/>
			<point x="286" y="34"/>
			<point x="198" y="34" type="curve" smooth="yes"/>
			<point x="135" y="34"/>
			<point x="94" y="73"/>
			<point x="94" y="132" type="curve" smooth="yes"/>
			<point x="94" y="201"/>
			<point x="150" y="237"/>
			<point x="255" y="237" type="curve" smooth="yes"/>
			<point x="287" y="237"/>
			<point x="328" y="233"/>
			<point x="371" y="228" type="curve"/>
		</contour>
	</outline>
	<anchor name="top.LC" x="235" y="530"/>
	<anchor name="bottom.LC" x="247" y="-20"/>
	<anchor name="ogonek.LC" x="478" y="-20"/>
</glyph>
<glyph name="d" format="1">
	<unicode hex="0064"/>
	<advance width="588"/>
	<outline>
		<contour>
			<point x="546" y="14" type="line"/>
			<point x="550" y="21"/>
			<point x="552" y="27"/>
			<point x="552" y="33" type="curve" smooth="yes"/>
			<point x="552" y="37"/>
			<point x="551" y="42"/>
			<point x="549" y="47" type="curve"/>
			<point x="473" y="47" type="line"/>
			<point x="473" y="653" type="line"/>
			<point x="466" y="661"/>
			<point x="456" y="669"/>
			<point x="445" y="675" type="curve"/>
			<point x="341" y="656" type="line"/>
			<point x="337" y="649"/>
			<point x="335" y="643"/>
			<point x="335" y="637" type="curve" smooth="yes"/>
			<point x="335" y="633"/>
			<point x="336" y="628"/>
			<point x="338" y="623" type="curve"/>
			<point x="419" y="623" type="line"/>
			<point x="419" y="458" type="line"/>
			<point x="378" y="492"/>
			<point x="330" y="510"/>
			<point x="278" y="510" type="curve" smooth="yes"/>
			<point x="136" y="510"/>
			<point x="43" y="405"/>
			<point x="43" y="245" type="curve" smooth="yes"/>
			<point x="43" y="95"/>
			<point x="126" y="-10"/>
			<point x="243" y="-10" type="curve" smooth="yes"/>
			<point x="321" y="-10"/>
			<point x="391" y="39"/>
			<point x="426" y="115" type="curve"/>
			<point x="419" y="17" type="line"/>
			<point x="426" y="9"/>
			<point x="436" y="1"/>
			<point x="447" y="-5" type="curve"/>
		</contour>
		<contour>
			<point x="419" y="234" type="line" smooth="yes"/>
			<point x="419" y="127"/>
			<point x="340" y="34"/>
			<point x="248" y="34" type="curve" smooth="yes"/>
			<point x="161" y="34"/>
			<point x="100" y="121"/>
			<point x="100" y="245" type="curve" smooth="yes"/>
			<point x="100" y="381"/>
			<point x="168" y="465"/>
			<point x="278" y="465" type="curve" smooth="yes"/>
			<point x="326" y="465"/>
			<point x="375" y="445"/>
			<point x="419" y="407" type="curve"/>
		</contour>
		<contour>
			<point name="top.ASC" x="431" y="700" type="move"/>
		</contour>
		<contour>
			<point name="bottom.LC" x="285" y="-20" type="move"/>
		</contour>
		<contour>
			<point name="top_right" x="514" y="510" type="move"/>
		</contour>
	</outline>
</glyph>
<glyph name="f" format="1">
	<unicode hex="0066"/>
	<advance width="362"/>
	<outline>
		<contour>
			<point x="277" y="0" type="line"/>
			<point x="279" y="8" type="line" smooth="yes"/>
			<point x="282" y="19"/>
			<point x="283" y="26"/>
			<point x="283" y="29" type="curve" smooth="yes"/>
			<point x="283" y="38"/>
			<point x="278" y="43"/>
			<point x="267" y="43" type="curve" smooth="yes"/>
			<point x="169" y="43" type="line"/>
			<point x="169" y="456" type="line"/>
			<point x="317" y="456" type="line"/>
			<point x="319" y="465" type="line" smooth="yes"/>
			<point x="322" y="476"/>
			<point x="323" y="483"/>
			<point x="323" y="486" type="curve" smooth="yes"/>
			<point x="323" y="495"/>
			<point x="318" y="500"/>
			<point x="307" y="500" type="curve" smooth="yes"/>
			<point x="169" y="500" type="line"/>
			<point x="169" y="520" type="line" smooth="yes"/>
			<point x="169" y="594"/>
			<point x="209" y="633"/>
			<point x="285" y="633" type="curve" smooth="yes"/>
			<point x="309" y="633"/>
			<point x="341" y="629"/>
			<point x="365" y="624" type="curve"/>
			<point x="372" y="636"/>
			<point x="375" y="648"/>
			<point x="376" y="662" type="curve"/>
			<point x="347" y="673"/>
			<point x="308" y="680"/>
			<point x="274" y="680" type="curve" smooth="yes"/>
			<point x="174" y="680"/>
			<point x="115" y="616"/>
			<point x="115" y="520" type="curve" smooth="yes"/>
			<point x="115" y="499" type="line"/>
			<point x="42" y="490" type="line"/>
			<point x="38" y="483"/>
			<point x="36" y="476"/>
			<point x="36" y="470" type="curve" smooth="yes"/>
			<point x="36" y="466"/>
			<point x="37" y="461"/>
			<point x="39" y="456" type="curve"/>
			<point x="115" y="456" type="line"/>
			<point x="115" y="41" type="line"/>
			<point x="47" y="33" type="line"/>
			<point x="43" y="26"/>
			<point x="41" y="20"/>
			<point x="41" y="14" type="curve" smooth="yes"/>
			<point x="41" y="10"/>
			<point x="42" y="5"/>
			<point x="44" y="0" type="curve"/>
		</contour>
		<contour>
			<point name="top.ASC" x="247" y="700" type="move"/>
		</contour>
		<contour>
			<point name="bottom.LC" x="162" y="-20" type="move"/>
		</contour>
	</outline>
</glyph>
<glyph name="g" format="2">
	<unicode hex="0067"/>
	<advance width="533"/>
	<outline>
		<contour>
			<point x="199" y="97" type="line" smooth="yes"/>
			<point x="162" y="97"/>
			<point x="143" y="112"/>
			<point x="143" y="141" type="curve" smooth="yes"/>
			<point x="143" y="162"/>
			<point x="152" y="183"/>
			<point x="171" y="200" type="curve"/>
			<point x="197" y="187"/>
			<point x="227" y="180"/>
			<point x="262" y="180" type="curve" smooth="yes"/>
			<point x="367" y="180"/>
			<point x="438" y="246"/>
			<point x="438" y="345" type="curve" smooth="yes"/>
			<point x="438" y="383"/>
			<point x="427" y="416"/>
			<point x="408" y="443" type="curve"/>
			<point x="491" y="443" type="line"/>
			<point x="494" y="454" type="line" smooth="yes"/>
			<point x="497" y="465"/>
			<point x="498" y="472"/>
			<point x="498" y="475" type="curve" smooth="yes"/>
			<point x="498" y="484"/>
			<point x="493" y="490"/>
			<point x="482" y="489" type="curve" smooth="yes"/>
			<point x="375" y="476" type="line"/>
			<point x="346" y="498"/>
			<point x="307" y="510"/>
			<point x="262" y="510" type="curve" smooth="yes"/>
			<point x="157" y="510"/>
			<point x="86" y="444"/>
			<point x="86" y="345" type="curve" smooth="yes"/>
			<point x="86" y="292"/>
			<point x="106" y="249"/>
			<point x="141" y="220" type="curve"/>
			<point x="107" y="190"/>
			<point x="92" y="161"/>
			<point x="92" y="129" type="curve" smooth="yes"/>
			<point x="92" y="106"/>
			<point x="101" y="87"/>
			<point x="117" y="74" type="curve"/>
			<point x="59" y="41"/>
			<point x="30" y="0"/>
			<point x="30" y="-49" type="curve" smooth="yes"/>
			<point x="30" y="-140"/>
			<point x="115" y="-195"/>
			<point x="255" y="-195" type="curve" smooth="yes"/>
			<point x="399" y="-195"/>
			<point x="493" y="-132"/>
			<point x="493" y="-36" type="curve" smooth="yes"/>
			<point x="493" y="45"/>
			<point x="423" y="97"/>
			<point x="313" y="97" type="curve" smooth="yes"/>
		</contour>
		<contour>
			<point x="313" y="53" type="line" smooth="yes"/>
			<point x="392" y="53"/>
			<point x="438" y="20"/>
			<point x="438" y="-36" type="curve" smooth="yes"/>
			<point x="438" y="-105"/>
			<point x="365" y="-151"/>
			<point x="255" y="-151" type="curve" smooth="yes"/>
			<point x="151" y="-151"/>
			<point x="85" y="-110"/>
			<point x="85" y="-46" type="curve" smooth="yes"/>
			<point x="85" y="-7"/>
			<point x="108" y="28"/>
			<point x="151" y="56" type="curve"/>
			<point x="160" y="54"/>
			<point x="168" y="53"/>
			<point x="178" y="53" type="curve" smooth="yes"/>
		</contour>
		<contour>
			<point x="387" y="345" type="curve" smooth="yes"/>
			<point x="387" y="270"/>
			<point x="338" y="223"/>
			<point x="262" y="223" type="curve" smooth="yes"/>
			<point x="186" y="223"/>
			<point x="137" y="270"/>
			<point x="137" y="345" type="curve" smooth="yes"/>
			<point x="137" y="420"/>
			<point x="186" y="467"/>
			<point x="262" y="467" type="curve" smooth="yes"/>
			<point x="338" y="467"/>
			<point x="387" y="420"/>
		</contour>
	</outline>
	<anchor name="top.LC" x="262" y="530"/>
	<anchor name="bottom.DSC" x="263" y="-205"/>
</glyph>
<glyph name="j" format="1">
	<unicode hex="006A"/>
	<advance width="239"/>
	<outline>
		<contour>
			<point x="100" y="134" type="line" smooth="yes"/>
			<point x="100" y="-4"/>
			<point x="65" y="-70"/>
			<point x="-55" y="-158" type="curve"/>
			<point x="-51" y="-173"/>
			<point x="-44" y="-183"/>
			<point x="-31" y="-192" type="curve"/>
			<point x="106" y="-104"/>
			<point x="154" y="-15"/>
			<point x="154" y="151" type="curve" smooth="yes"/>
			<point x="154" y="483" type="line"/>
			<point x="147" y="491"/>
			<point x="137" y="499"/>
			<point x="126" y="505" type="curve"/>
			<point x="22" y="486" type="line"/>
			<point x="18" y="479"/>
			<point x="16" y="473"/>
			<point x="16" y="467" type="curve" smooth="yes"/>
			<point x="16" y="463"/>
			<point x="17" y="458"/>
			<point x="19" y="453" type="curve"/>
			<point x="100" y="453" type="line"/>
		</contour>
		<contour>
			<point x="157" y="632" type="curve" smooth="yes"/>
			<point x="157" y="657"/>
			<point x="140" y="674"/>
			<point x="112" y="674" type="curve" smooth="yes"/>
			<point x="84" y="674"/>
			<point x="67" y="657"/>
			<point x="67" y="632" type="curve" smooth="yes"/>
			<point x="67" y="607"/>
			<point x="84" y="590"/>
			<point x="112" y="590" type="curve" smooth="yes"/>
			<point x="140" y="590"/>
			<point x="157" y="607"/>
		</contour>
		<contour>
			<point name="top.ASC" x="112" y="700" type="move"/>
		</contour>
		<contour>
			<point name="bottom.DSC" x="53" y="-205" type="move"/>
		</contour>
	</outline>
</glyph>
<glyph name="l" format="2">
	<unicode hex="006C"/>
	<advance width="284"/>
	<outline>
		<contour>
			<point x="247" y="0" type="line"/>
			<point x="249" y="8" type="line" smooth="yes"/>
			<point x="252" y="19"/>
			<point x="253" y="26"/>
			<point x="253" y="29" type="curve" smooth="yes"/>
			<point x="253" y="38"/>
			<point x="248" y="43"/>
			<point x="237" y="43" type="curve" smooth="yes"/>
			<point x="169" y="43" type="line"/>
			<point x="169" y="653" type="line"/>
			<point x="162" y="661"/>
			<point x="152" y="669"/>
			<point x="141" y="675" type="curve"/>
			<point x="32" y="656" type="line"/>
			<point x="28" y="649"/>
			<point x="26" y="643"/>
			<point x="26" y="637" type="curve" smooth="yes"/>
			<point x="26" y="633"/>
			<point x="27" y="628"/>
			<point x="29" y="623" type="curve"/>
			<point x="115" y="623" type="line"/>
			<point x="115" y="41" type="line"/>
			<point x="37" y="33" type="line"/>
			<point x="33" y="26"/>
			<point x="31" y="20"/>
			<point x="31" y="14" type="curve" smooth="yes"/>
			<point x="31" y="10"/>
			<point x="32" y="5"/>
			<point x="34" y="0" type="curve"/>
		</contour>
	</outline>
	<anchor name="top.ASC" x="127" y="700"/>
	<anchor name="bottom.LC" x="142" y="-20"/>
	<anchor name="top_right" x="210" y="510"/>
</glyph>
<glyph name="n" format="1">
	<unicode hex="006E"/>
	<advance width="616"/>
	<outline>
		<contour>
			<point x="584" y="0" type="line"/>
			<point x="586" y="8" type="line" smooth="yes"/>
			<point x="589" y="19"/>
			<point x="590" y="26"/>
			<point x="590" y="29" type="curve" smooth="yes"/>
			<point x="590" y="38"/>
			<point x="585" y="43"/>
			<point x="574" y="43" type="curve" smooth="yes"/>
			<point x="516" y="43" type="line"/>
			<point x="516" y="325" type="line" smooth="yes"/>
			<point x="516" y="445"/>
			<point x="459" y="510"/>
			<point x="352" y="510" type="curve" smooth="yes"/>
			<point x="267" y="510"/>
			<point x="199" y="464"/>
			<point x="162" y="383" type="curve"/>
			<point x="169" y="483" type="line"/>
			<point x="162" y="491"/>
			<point x="152" y="499"/>
			<point x="141" y="505" type="curve"/>
			<point x="42" y="486" type="line"/>
			<point x="38" y="479"/>
			<point x="36" y="473"/>
			<point x="36" y="467" type="curve" smooth="yes"/>
			<point x="36" y="463"/>
			<point x="37" y="458"/>
			<point x="39" y="453" type="curve"/>
			<point x="115" y="453" type="line"/>
			<point x="115" y="41" type="line"/>
			<point x="47" y="33" type="line"/>
			<point x="43" y="26"/>
			<point x="41" y="20"/>
			<point x="41" y="14" type="curve" smooth="yes"/>
			<point x="41" y="10"/>
			<point x="42" y="5"/>
			<point x="44" y="0" type="curve"/>
			<point x="237" y="0" type="line"/>
			<point x="239" y="8" type="line" smooth="yes"/>
			<point x="242" y="19"/>
			<point x="243" y="26"/>
			<point x="243" y="29" type="curve" smooth="yes"/>
			<point x="243" y="38"/>
			<point x="238" y="43"/>
			<point x="227" y="43" type="curve" smooth="yes"/>
			<point x="169" y="43" type="line"/>
			<point x="169" y="266" type="line" smooth="yes"/>
			<point x="169" y="373"/>
			<point x="250" y="466"/>
			<point x="343" y="466" type="curve" smooth="yes"/>
			<point x="422" y="466"/>
			<point x="462" y="418"/>
			<point x="462" y="325" type="curve" smooth="yes"/>
			<point x="462" y="41" type="line"/>
			<point x="394" y="33" type="line"/>
			<point x="390" y="26"/>
			<point x="388" y="20"/>
			<point x="388" y="14" type="curve" smooth="yes"/>
			<point x="388" y="10"/>
			<point x="389" y="5"/>
			<point x="391" y="0" type="curve"/>
		</contour>
		<contour>
			<point name="top.LC" x="310" y="530" type="move"/>
		</contour>
		<contour>
			<point name="bottom.LC" x="315" y="-20" type="move"/>
		</contour>
	</outline>
</glyph>
<glyph name="o" format="1">
	<unicode hex="006F"/>
	<advance width="548"/>
	<outline>
		<contour>
			<point x="274" y="34" type="curve" smooth="yes"/>
			<point x="169" y="34"/>
			<point x="100" y="121"/>
			<point x="100" y="250" type="curve" smooth="yes"/>
			<point x="100" y="379"/>
			<point x="169" y="466"/>
			<point x="274" y="466" type="curve" smooth="yes"/>
			<point x="379" y="466"/>
			<point x="448" y="379"/>
			<point x="448" y="250" type="curve" smooth="yes"/>
			<point x="448" y="121"/>
			<point x="379" y="34"/>
		</contour>
		<contour>
			<point x="274" y="-10" type="curve" smooth="yes"/>
			<point x="413" y="-10"/>
			<point x="505" y="94"/>
			<point x="505" y="250" type="curve" smooth="yes"/>
			<point x="505" y="406"/>
			<point x="413" y="510"/>
			<point x="274" y="510" type="curve" smooth="yes"/>
			<point x="135" y="510"/>
			<point x="43" y="406"/>
			<point x="43" y="250" type="curve" smooth="yes"/>
			<point x="43" y="94"/>
			<point x="135" y="-10"/>
		</contour>
		<contour>
			<point name="top.LC" x="274" y="530" type="move"/>
		</contour>
		<contour>
			<point name="bottom.LC" x="274" y="-20" type="move"/>
		</contour>
	</outline>
</glyph>
<glyph name="q" format="1">
	<unicode hex="0071"/>
	<advance width="563"/>
	<outline>
		<contour>
			<point x="541" y="-185" type="line"/>
			<point x="543" y="-177" type="line" smooth="yes"/>
			<point x="546" y="-166"/>
			<point x="547" y="-159"/>
			<point x="547" y="-156" type="curve" smooth="yes"/>
			<point x="547" y="-147"/>
			<point x="542" y="-142"/>
			<point x="531" y="-142" type="curve" smooth="yes"/>
			<point x="473" y="-142" type="line"/>
			<point x="473" y="503" type="line"/>
			<point x="469" y="504"/>
			<point x="459" y="505"/>
			<point x="454" y="505" type="curve" smooth="yes"/>
			<point x="449" y="505"/>
			<point x="439" y="504"/>
			<point x="435" y="503" type="curve"/>
			<point x="423" y="454" type="line"/>
			<point x="383" y="489"/>
			<point x="333" y="510"/>
			<point x="278" y="510" type="curve" smooth="yes"/>
			<point x="136" y="510"/>
			<point x="43" y="405"/>
			<point x="43" y="245" type="curve" smooth="yes"/>
			<point x="43" y="95"/>
			<point x="126" y="-10"/>
			<point x="243" y="-10" type="curve" smooth="yes"/>
			<point x="316" y="-10"/>
			<point x="382" y="32"/>
			<point x="419" y="100" type="curve"/>
			<point x="419" y="-144" type="line"/>
			<point x="321" y="-152" type="line"/>
			<point x="317" y="-159"/>
			<point x="315" y="-165"/>
			<point x="315" y="-171" type="curve" smooth="yes"/>
			<point x="315" y="-175"/>
			<point x="316" y="-180"/>
			<point x="318" y="-185" type="curve"/>
		</contour>
		<contour>
			<point x="419" y="234" type="line" smooth="yes"/>
			<point x="419" y="127"/>
			<point x="340" y="34"/>
			<point x="248" y="34" type="curve" smooth="yes"/>
			<point x="161" y="34"/>
			<point x="100" y="121"/>
			<point x="100" y="245" type="curve" smooth="yes"/>
			<point x="100" y="381"/>
			<point x="168" y="465"/>
			<point x="278" y="465" type="curve" smooth="yes"/>
			<point x="326" y="465"/>
			<point x="375" y="445"/>
			<point x="419" y="407" type="curve"/>
		</contour>
		<contour>
			<point name="top.LC" x="278" y="530" type="move"/>
		</contour>
		<contour>
			<point name="bottom.DSC" x="431" y="-205" type="move"/>
		</contour>
	</outline>
</glyph>
<glyph name="r" format="1">
	<unicode hex="0072"/>
	<advance width="446"/>
	<outline>
		<contour>
			<point x="277" y="0" type="line"/>
			<point x="279" y="8" type="line" smooth="yes"/>
			<point x="282" y="19"/>
			<point x="283" y="26"/>
			<point x="283" y="29" type="curve" smooth="yes"/>
			<point x="283" y="38"/>
			<point x="278" y="43"/>
			<point x="267" y="43" type="curve" smooth="yes"/>
			<point x="169" y="43" type="line"/>
			<point x="169" y="256" type="line" smooth="yes"/>
			<point x="169" y="361"/>
			<point x="252" y="462"/>
			<point x="339" y="462" type="curve" smooth="yes"/>
			<point x="343" y="462"/>
			<point x="348" y="462"/>
			<point x="353" y="461" type="curve"/>
			<point x="375" y="364" type="line"/>
			<point x="381" y="360"/>
			<point x="388" y="358"/>
			<point x="394" y="358" type="curve" smooth="yes"/>
			<point x="399" y="358"/>
			<point x="404" y="359"/>
			<point x="409" y="361" type="curve"/>
			<point x="407" y="470" type="line"/>
			<point x="402" y="481"/>
			<point x="395" y="492"/>
			<point x="388" y="500" type="curve"/>
			<point x="372" y="504"/>
			<point x="351" y="506"/>
			<point x="336" y="506" type="curve" smooth="yes"/>
			<point x="260" y="506"/>
			<point x="192" y="449"/>
			<point x="156" y="361" type="curve"/>
			<point x="169" y="483" type="line"/>
			<point x="162" y="491"/>
			<point x="152" y="499"/>
			<point x="141" y="505" type="curve"/>
			<point x="42" y="486" type="line"/>
			<point x="38" y="479"/>
			<point x="36" y="473"/>
			<point x="36" y="467" type="curve" smooth="yes"/>
			<point x="36" y="463"/>
			<point x="37" y="458"/>
			<point x="39" y="453" type="curve"/>
			<point x="115" y="453" type="line"/>
			<point x="115" y="41" type="line"/>
			<point x="47" y="33" type="line"/>
			<point x="43" y="26"/>
			<point x="41" y="20"/>
			<point x="41" y="14" type="curve" smooth="yes"/>
			<point x="41" y="10"/>
			<point x="42" y="5"/>
			<point x="44" y="0" type="curve"/>
		</contour>
		<contour>
			<point name="top.LC" x="240" y="530" type="move"/>
		</contour>
		<contour>
			<point name="bottom.LC" x="162" y="-20" type="move"/>
		</contour>
	</outline>
</glyph>
<glyph name="s" format="1">
	<unicode hex="0073"/>
	<advance width="467"/>
	<outline>
		<contour>
			<point x="61" y="53" type="line"/>
			<point x="66" y="42"/>
			<point x="73" y="31"/>
			<point x="80" y="23" type="curve"/>
			<point x="114" y="3"/>
			<point x="171" y="-10"/>
			<point x="227" y="-10" type="curve" smooth="yes"/>
			<point x="345" y="-10"/>
			<point x="416" y="43"/>
			<point x="416" y="130" type="curve" smooth="yes"/>
			<point x="416" y="203"/>
			<point x="367" y="249"/>
			<point x="255" y="283" type="curve" smooth="yes"/>
			<point x="152" y="315"/>
			<point x="123" y="337"/>
			<point x="123" y="383" type="curve" smooth="yes"/>
			<point x="123" y="438"/>
			<point x="164" y="467"/>
			<point x="242" y="467" type="curve" smooth="yes"/>
			<point x="275" y="467"/>
			<point x="310" y="461"/>
			<point x="337" y="451" type="curve"/>
			<point x="358" y="359" type="line"/>
			<point x="364" y="355"/>
			<point x="371" y="353"/>
			<point x="377" y="353" type="curve" smooth="yes"/>
			<point x="382" y="353"/>
			<point x="387" y="354"/>
			<point x="392" y="356" type="curve"/>
			<point x="390" y="455" type="line"/>
			<point x="385" y="466"/>
			<point x="378" y="477"/>
			<point x="371" y="485" type="curve"/>
			<point x="345" y="499"/>
			<point x="287" y="510"/>
			<point x="239" y="510" type="curve" smooth="yes"/>
			<point x="134" y="510"/>
			<point x="69" y="461"/>
			<point x="69" y="383" type="curve" smooth="yes"/>
			<point x="69" y="309"/>
			<point x="113" y="272"/>
			<point x="247" y="233" type="curve" smooth="yes"/>
			<point x="326" y="210"/>
			<point x="361" y="178"/>
			<point x="361" y="130" type="curve" smooth="yes"/>
			<point x="361" y="71"/>
			<point x="310" y="34"/>
			<point x="227" y="34" type="curve" smooth="yes"/>
			<point x="186" y="34"/>
			<point x="145" y="42"/>
			<point x="114" y="56" type="curve"/>
			<point x="93" y="159" type="line"/>
			<point x="87" y="163"/>
			<point x="80" y="165"/>
			<point x="74" y="165" type="curve" smooth="yes"/>
			<point x="69" y="165"/>
			<point x="64" y="164"/>
			<point x="59" y="162" type="curve"/>
		</contour>
		<contour>
			<point name="top.LC" x="228" y="530" type="move"/>
		</contour>
		<contour>
			<point name="bottom.LC" x="240" y="-20" type="move"/>
		</contour>
	</outline>
</glyph>
<glyph name="t" format="1">
	<unicode hex="0074"/>
	<advance width="350"/>
	<outline>
		<contour>
			<point x="91" y="148" type="line" smooth="yes"/>
			<point x="91" y="28"/>
			<point x="135" y="-10"/>
			<point x="213" y="-10" type="curve" smooth="yes"/>
			<point x="253" y="-10"/>
			<point x="296" y="-1"/>
			<point x="324" y="12" type="curve"/>
			<point x="323" y="26"/>
			<point x="320" y="38"/>
			<point x="313" y="50" type="curve"/>
			<point x="284" y="42"/>
			<point x="252" y="38"/>
			<point x="228" y="38" type="curve" smooth="yes"/>
			<point x="154" y="38"/>
			<point x="145" y="74"/>
			<point x="145" y="168" type="curve" smooth="yes"/>
			<point x="145" y="456" type="line"/>
			<point x="293" y="456" type="line"/>
			<point x="295" y="465" type="line" smooth="yes"/>
			<point x="298" y="476"/>
			<point x="299" y="483"/>
			<point x="299" y="486" type="curve" smooth="yes"/>
			<point x="299" y="495"/>
			<point x="294" y="500"/>
			<point x="283" y="500" type="curve" smooth="yes"/>
			<point x="145" y="500" type="line"/>
			<point x="145" y="604" type="line"/>
			<point x="139" y="605"/>
			<point x="131" y="606"/>
			<point x="126" y="606" type="curve" smooth="yes"/>
			<point x="120" y="606"/>
			<point x="111" y="605"/>
			<point x="107" y="604" type="curve"/>
			<point x="91" y="499" type="line"/>
			<point x="18" y="490" type="line"/>
			<point x="14" y="483"/>
			<point x="12" y="476"/>
			<point x="12" y="470" type="curve" smooth="yes"/>
			<point x="12" y="466"/>
			<point x="13" y="461"/>
			<point x="15" y="456" type="curve"/>
			<point x="91" y="456" type="line"/>
		</contour>
		<contour>
			<point name="top.LC" x="126" y="634" type="move"/>
		</contour>
		<contour>
			<point name="bottom.LC" x="213" y="-20" type="move"/>
		</contour>
		<contour>
			<point name="top_right.short" x="151" y="510" type="move"/>
		</contour>
	</outline>
</glyph>
<glyph name="u" format="1">
	<unicode hex="0075"/>
	<advance width="606"/>
	<outline>
		<contour>
			<point x="564" y="14" type="line"/>
			<point x="568" y="21"/>
			<point x="570" y="27"/>
			<point x="570" y="33" type="curve" smooth="yes"/>
			<point x="570" y="37"/>
			<point x="569" y="42"/>
			<point x="567" y="47" type="curve"/>
			<point x="491" y="47" type="line"/>
			<point x="491" y="483" type="line"/>
			<point x="484" y="491"/>
			<point x="474" y="499"/>
			<point x="463" y="505" type="curve"/>
			<point x="364" y="486" type="line"/>
			<point x="360" y="479"/>
			<point x="358" y="473"/>
			<point x="358" y="467" type="curve" smooth="yes"/>
			<point x="358" y="463"/>
			<point x="359" y="458"/>
			<point x="361" y="453" type="curve"/>
			<point x="437" y="453" type="line"/>
			<point x="437" y="234" type="line" smooth="yes"/>
			<point x="437" y="127"/>
			<point x="357" y="34"/>
			<point x="264" y="34" type="curve" smooth="yes"/>
			<point x="194" y="34"/>
			<point x="154" y="86"/>
			<point x="154" y="175" type="curve" smooth="yes"/>
			<point x="154" y="483" type="line"/>
			<point x="147" y="491"/>
			<point x="137" y="499"/>
			<point x="126" y="505" type="curve"/>
			<point x="27" y="486" type="line"/>
			<point x="23" y="479"/>
			<point x="21" y="473"/>
			<point x="21" y="467" type="curve" smooth="yes"/>
			<point x="21" y="463"/>
			<point x="22" y="458"/>
			<point x="24" y="453" type="curve"/>
			<point x="100" y="453" type="line"/>
			<point x="100" y="175" type="line" smooth="yes"/>
			<point x="100" y="57"/>
			<point x="157" y="-10"/>
			<point x="257" y="-10" type="curve" smooth="yes"/>
			<point x="340" y="-10"/>
			<point x="407" y="36"/>
			<point x="444" y="117" type="curve"/>
			<point x="437" y="17" type="line"/>
			<point x="444" y="9"/>
			<point x="454" y="1"/>
			<point x="465" y="-5" type="curve"/>
		</contour>
		<contour>
			<point name="top.LC" x="270" y="530" type="move"/>
		</contour>
		<contour>
			<point name="bottom.LC" x="312" y="-20" type="move"/>
		</contour>
		<contour>
			<point name="ogonek.LC" x="546" y="-20" type="move"/>
		</contour>
	</outline>
</glyph>
<glyph name="w" format="1">
	<unicode hex="0077"/>
	<advance width="830"/>
	<outline>
		<contour>
			<point x="560" y="-2" type="line"/>
			<point x="564" y="-3"/>
			<point x="575" y="-4"/>
			<point x="581" y="-4" type="curve" smooth="yes"/>
			<point x="587" y="-4"/>
			<point x="598" y="-3"/>
			<point x="602" y="-2" type="curve"/>
			<point x="751" y="459" type="line"/>
			<point x="819" y="467" type="line"/>
			<point x="823" y="474"/>
			<point x="825" y="480"/>
			<point x="825" y="486" type="curve" smooth="yes"/>
			<point x="825" y="490"/>
			<point x="824" y="495"/>
			<point x="822" y="500" type="curve"/>
			<point x="630" y="500" type="line"/>
			<point x="628" y="492" type="line" smooth="yes"/>
			<point x="625" y="481"/>
			<point x="624" y="474"/>
			<point x="624" y="471" type="curve" smooth="yes"/>
			<point x="624" y="462"/>
			<point x="629" y="457"/>
			<point x="640" y="457" type="curve" smooth="yes"/>
			<point x="698" y="457" type="line"/>
			<point x="583" y="86" type="line"/>
			<point x="439" y="500" type="line"/>
			<point x="435" y="501"/>
			<point x="424" y="502"/>
			<point x="418" y="502" type="curve" smooth="yes"/>
			<point x="412" y="502"/>
			<point x="401" y="501"/>
			<point x="397" y="500" type="curve"/>
			<point x="252" y="81" type="line"/>
			<point x="137" y="459" type="line"/>
			<point x="205" y="467" type="line"/>
			<point x="209" y="474"/>
			<point x="211" y="480"/>
			<point x="211" y="486" type="curve" smooth="yes"/>
			<point x="211" y="490"/>
			<point x="210" y="495"/>
			<point x="208" y="500" type="curve"/>
			<point x="12" y="500" type="line"/>
			<point x="10" y="492" type="line" smooth="yes"/>
			<point x="7" y="481"/>
			<point x="6" y="474"/>
			<point x="6" y="471" type="curve" smooth="yes"/>
			<point x="6" y="462"/>
			<point x="11" y="457"/>
			<point x="22" y="457" type="curve" smooth="yes"/>
			<point x="80" y="457" type="line"/>
			<point x="228" y="-2" type="line"/>
			<point x="232" y="-3"/>
			<point x="243" y="-4"/>
			<point x="249" y="-4" type="curve" smooth="yes"/>
			<point x="255" y="-4"/>
			<point x="266" y="-3"/>
			<point x="270" y="-2" type="curve"/>
			<point x="415" y="406" type="line"/>
		</contour>
		<contour>
			<point name="top.LC" x="415" y="530" type="move"/>
		</contour>
		<contour>
			<point name="bottom.LC" x="415" y="-20" type="move"/>
		</contour>
	</outline>
</glyph>
<glyph name="x" format="2">
	<unicode hex="0078"/>
	<advance width="567"/>
	<outline>
		<contour>
			<point x="549" y="0" type="line"/>
			<point x="551" y="8" type="line" smooth="yes"/>
			<point x="554" y="19"/>
			<point x="555" y="26"/>
			<point x="555" y="29" type="curve" smooth="yes"/>
			<point x="555" y="38"/>
			<point x="550" y="43"/>
			<point x="539" y="43" type="curve" smooth="yes"/>
			<point x="481" y="43" type="line"/>
			<point x="316" y="260" type="line"/>
			<point x="464" y="459" type="line"/>
			<point x="532" y="467" type="line"/>
			<point x="536" y="474"/>
			<point x="538" y="480"/>
			<point x="538" y="486" type="curve" smooth="yes"/>
			<point x="538" y="490"/>
			<point x="537" y="495"/>
			<point x="535" y="500" type="curve"/>
			<point x="354" y="500" type="line"/>
			<point x="352" y="492" type="line" smooth="yes"/>
			<point x="349" y="481"/>
			<point x="348" y="474"/>
			<point x="348" y="471" type="curve" smooth="yes"/>
			<point x="348" y="462"/>
			<point x="353" y="457"/>
			<point x="364" y="457" type="curve" smooth="yes"/>
			<point x="408" y="457" type="line"/>
			<point x="287" y="293" type="line"/>
			<point x="165" y="459" type="line"/>
			<point x="224" y="467" type="line"/>
			<point x="228" y="474"/>
			<point x="230" y="480"/>
			<point x="230" y="486" type="curve" smooth="yes"/>
			<point x="230" y="490"/>
			<point x="229" y="495"/>
			<point x="227" y="500" type="curve"/>
			<point x="37" y="500" type="line"/>
			<point x="35" y="492" type="line" smooth="yes"/>
			<point x="32" y="481"/>
			<point x="31" y="474"/>
			<point x="31" y="471" type="curve" smooth="yes"/>
			<point x="31" y="462"/>
			<point x="36" y="457"/>
			<point x="47" y="457" type="curve" smooth="yes"/>
			<point x="105" y="457" type="line"/>
			<point x="251" y="260" type="line"/>
			<point x="86" y="41" type="line"/>
			<point x="18" y="33" type="line"/>
			<point x="14" y="26"/>
			<point x="12" y="20"/>
			<point x="12" y="14" type="curve" smooth="yes"/>
			<point x="12" y="10"/>
			<point x="13" y="5"/>
			<point x="15" y="0" type="curve"/>
			<point x="200" y="0" type="line"/>
			<point x="202" y="8" type="line" smooth="yes"/>
			<point x="205" y="19"/>
			<point x="206" y="26"/>
			<point x="206" y="29" type="curve" smooth="yes"/>
			<point x="206" y="38"/>
			<point x="201" y="43"/>
			<point x="190" y="43" type="curve" smooth="yes"/>
			<point x="142" y="43" type="line"/>
			<point x="280" y="226" type="line"/>
			<point x="421" y="41" type="line"/>
			<point x="358" y="33" type="line"/>
			<point x="354" y="26"/>
			<point x="352" y="20"/>
			<point x="352" y="14" type="curve" smooth="yes"/>
			<point x="352" y="10"/>
			<point x="353" y="5"/>
			<point x="355" y="0" type="curve"/>
		</contour>
	</outline>
	<anchor name="top.LC" x="284" y="530"/>
	<anchor name="bottom.LC" x="284" y="-20"/>
</glyph>
<glyph name="y" format="1">
	<unicode hex="0079"/>
	<advance width="577"/>
	<outline>
		<contour>
			<point x="262" y="-3" type="line"/>
			<point x="228" y="-73"/>
			<point x="164" y="-141"/>
			<point x="57" y="-155" type="curve"/>
			<point x="56" y="-160"/>
			<point x="56" y="-163"/>
			<point x="56" y="-167" type="curve" smooth="yes"/>
			<point x="56" y="-175"/>
			<point x="58" y="-187"/>
			<point x="63" y="-196" type="curve"/>
			<point x="202" y="-187"/>
			<point x="267" y="-104"/>
			<point x="321" y="27" type="curve" smooth="yes"/>
			<point x="498" y="459" type="line"/>
			<point x="566" y="467" type="line"/>
			<point x="570" y="474"/>
			<point x="572" y="480"/>
			<point x="572" y="486" type="curve" smooth="yes"/>
			<point x="572" y="490"/>
			<point x="571" y="495"/>
			<point x="569" y="500" type="curve"/>
			<point x="377" y="500" type="line"/>
			<point x="375" y="492" type="line" smooth="yes"/>
			<point x="372" y="481"/>
			<point x="371" y="474"/>
			<point x="371" y="471" type="curve" smooth="yes"/>
			<point x="371" y="462"/>
			<point x="376" y="457"/>
			<point x="387" y="457" type="curve" smooth="yes"/>
			<point x="445" y="457" type="line"/>
			<point x="289" y="60" type="line"/>
			<point x="136" y="459" type="line"/>
			<point x="204" y="467" type="line"/>
			<point x="208" y="474"/>
			<point x="210" y="480"/>
			<point x="210" y="486" type="curve" smooth="yes"/>
			<point x="210" y="490"/>
			<point x="209" y="495"/>
			<point x="207" y="500" type="curve"/>
			<point x="12" y="500" type="line"/>
			<point x="10" y="492" type="line" smooth="yes"/>
			<point x="7" y="481"/>
			<point x="6" y="474"/>
			<point x="6" y="471" type="curve" smooth="yes"/>
			<point x="6" y="462"/>
			<point x="11" y="457"/>
			<point x="22" y="457" type="curve" smooth="yes"/>
			<point x="80" y="457" type="line"/>
		</contour>
		<contour>
			<point name="top.LC" x="289" y="530" type="move"/>
		</contour>
		<contour>
			<point name="bottom.DSC" x="195" y="-205" type="move"/>
		</contour>
	</outline>
</glyph>
<glyph name="braceleft" format="2">
	<unicode hex="007B"/>
	<advance width="338"/>
	<outline>
		<contour>
			<point x="304" y="-106" type="line"/>
			<point x="306" y="-103"/>
			<point x="308" y="-94"/>
			<point x="308" y="-90" type="curve" smooth="yes"/>
			<point x="308" y="-83"/>
			<point x="305" y="-75"/>
			<point x="301" y="-70" type="curve"/>
			<point x="249" y="-66" type="line" smooth="yes"/>
			<point x="198" y="-62"/>
			<point x="177" y="-39"/>
			<point x="177" y="17" type="curve" smooth="yes"/>
			<point x="177" y="36"/>
			<point x="179" y="59"/>
			<point x="182" y="88" type="curve" smooth="yes"/>
			<point x="185" y="115"/>
			<point x="186" y="143"/>
			<point x="186" y="167" type="curve" smooth="yes"/>
			<point x="186" y="229"/>
			<point x="157" y="266"/>
			<point x="112" y="278" type="curve"/>
			<point x="157" y="289"/>
			<point x="186" y="326"/>
			<point x="186" y="389" type="curve" smooth="yes"/>
			<point x="186" y="413"/>
			<point x="185" y="441"/>
			<point x="182" y="468" type="curve" smooth="yes"/>
			<point x="179" y="497"/>
			<point x="177" y="520"/>
			<point x="177" y="539" type="curve" smooth="yes"/>
			<point x="177" y="595"/>
			<point x="198" y="618"/>
			<point x="249" y="622" type="curve" smooth="yes"/>
			<point x="301" y="626" type="line"/>
			<point x="305" y="631"/>
			<point x="308" y="639"/>
			<point x="308" y="646" type="curve" smooth="yes"/>
			<point x="308" y="650"/>
			<point x="306" y="659"/>
			<point x="304" y="662" type="curve"/>
			<point x="247" y="662" type="line" smooth="yes"/>
			<point x="167" y="662"/>
			<point x="121" y="617"/>
			<point x="121" y="536" type="curve" smooth="yes"/>
			<point x="121" y="517"/>
			<point x="123" y="494"/>
			<point x="126" y="465" type="curve" smooth="yes"/>
			<point x="129" y="438"/>
			<point x="130" y="410"/>
			<point x="130" y="386" type="curve" smooth="yes"/>
			<point x="130" y="332"/>
			<point x="102" y="301"/>
			<point x="53" y="301" type="curve"/>
			<point x="51" y="294"/>
			<point x="50" y="286"/>
			<point x="50" y="278" type="curve" smooth="yes"/>
			<point x="50" y="270"/>
			<point x="51" y="262"/>
			<point x="53" y="255" type="curve"/>
			<point x="102" y="255"/>
			<point x="130" y="224"/>
			<point x="130" y="170" type="curve" smooth="yes"/>
			<point x="130" y="146"/>
			<point x="129" y="118"/>
			<point x="126" y="91" type="curve" smooth="yes"/>
			<point x="123" y="62"/>
			<point x="121" y="39"/>
			<point x="121" y="20" type="curve" smooth="yes"/>
			<point x="121" y="-61"/>
			<point x="167" y="-106"/>
			<point x="247" y="-106" type="curve" smooth="yes"/>
		</contour>
	</outline>
</glyph>
<glyph name="bar" format="2">
	<unicode hex="007C"/>
	<advance width="298"/>
	<outline>
		<contour>
			<point x="124" y="-182" type="line"/>
			<point x="135" y="-184"/>
			<point x="142" y="-185"/>
			<point x="148" y="-185" type="curve" smooth="yes"/>
			<point x="155" y="-185"/>
			<point x="162" y="-184"/>
			<point x="174" y="-180" type="curve"/>
			<point x="174" y="665" type="line"/>
			<point x="163" y="667"/>
			<point x="156" y="668"/>
			<point x="150" y="668" type="curve" smooth="yes"/>
			<point x="143" y="668"/>
			<point x="136" y="667"/>
			<point x="124" y="663" type="curve"/>
		</contour>
	</outline>
</glyph>
<glyph name="braceright" format="1">
	<unicode hex="007D"/>
	<advance width="338"/>
	<outline>
		<contour>
			<point x="91" y="-106" type="line" smooth="yes"/>
			<point x="171" y="-106"/>
			<point x="217" y="-61"/>
			<point x="217" y="20" type="curve" smooth="yes"/>
			<point x="217" y="39"/>
			<point x="215" y="62"/>
			<point x="212" y="91" type="curve" smooth="yes"/>
			<point x="209" y="118"/>
			<point x="208" y="146"/>
			<point x="208" y="170" type="curve" smooth="yes"/>
			<point x="208" y="224"/>
			<point x="236" y="255"/>
			<point x="285" y="255" type="curve"/>
			<point x="287" y="262"/>
			<point x="288" y="270"/>
			<point x="288" y="278" type="curve" smooth="yes"/>
			<point x="288" y="286"/>
			<point x="287" y="294"/>
			<point x="285" y="301" type="curve"/>
			<point x="236" y="301"/>
			<point x="208" y="332"/>
			<point x="208" y="386" type="curve" smooth="yes"/>
			<point x="208" y="410"/>
			<point x="209" y="438"/>
			<point x="212" y="465" type="curve" smooth="yes"/>
			<point x="215" y="494"/>
			<point x="217" y="517"/>
			<point x="217" y="536" type="curve" smooth="yes"/>
			<point x="217" y="617"/>
			<point x="171" y="662"/>
			<point x="91" y="662" type="curve" smooth="yes"/>
			<point x="34" y="662" type="line"/>
			<point x="32" y="659"/>
			<point x="30" y="650"/>
			<point x="30" y="646" type="curve" smooth="yes"/>
			<point x="30" y="639"/>
			<point x="33" y="631"/>
			<point x="37" y="626" type="curve"/>
			<point x="89" y="622" type="line" smooth="yes"/>
			<point x="140" y="618"/>
			<point x="161" y="595"/>
			<point x="161" y="539" type="curve" smooth="yes"/>
			<point x="161" y="520"/>
			<point x="159" y="497"/>
			<point x="156" y="468" type="curve" smooth="yes"/>
			<point x="153" y="441"/>
			<point x="152" y="413"/>
			<point x="152" y="389" type="curve" smooth="yes"/>
			<point x="152" y="326"/>
			<point x="180" y="289"/>
			<point x="225" y="278" type="curve"/>
			<point x="180" y="266"/>
			<point x="152" y="229"/>
			<point x="152" y="167" type="curve" smooth="yes"/>
			<point x="152" y="143"/>
			<point x="153" y="115"/>
			<point x="156" y="88" type="curve" smooth="yes"/>
			<point x="159" y="59"/>
			<point x="161" y="36"/>
			<point x="161" y="17" type="curve" smooth="yes"/>
			<point x="161" y="-39"/>
			<point x="140" y="-62"/>
			<point x="89" y="-66" type="curve" smooth="yes"/>
			<point x="37" y="-70" type="line"/>
			<point x="33" y="-75"/>
			<point x="30" y="-83"/>
			<point x="30" y="-90" type="curve" smooth="yes"/>
			<point x="30" y="-94"/>
			<point x="32" y="-103"/>
			<point x="34" y="-106" type="curve"/>
		</contour>
	</outline>
</glyph>
<glyph name="asciitilde" format="1">
	<unicode hex="007E"/>
	<advance width="560"/>
	<outline>
		<contour>
			<point x="511" y="367" type="curve"/>
			<point x="499" y="378"/>
			<point x="488" y="385"/>
			<point x="472" y="391" type="curve"/>
			<point x="444" y="330"/>
			<point x="420" y="308"/>
			<point x="380" y="308" type="curve" smooth="yes"/>
			<point x="356" y="308"/>
			<point x="338" y="315"/>
			<point x="295" y="342" type="curve" smooth="yes"/>
			<point x="242" y="376"/>
			<point x="216" y="386"/>
			<point x="181" y="386" type="curve" smooth="yes"/>
			<point x="120" y="386"/>
			<point x="73" y="347"/>
			<point x="49" y="277" type="curve"/>
			<point x="61" y="266"/>
			<point x="72" y="259"/>
			<point x="88" y="253" type="curve"/>
			<point x="116" y="314"/>
			<point x="140" y="336"/>
			<point x="180" y="336" type="curve" smooth="yes"/>
			<point x="204" y="336"/>
			<point x="222" y="329"/>
			<point x="265" y="302" type="curve" smooth="yes"/>
			<point x="318" y="268"/>
			<point x="344" y="258"/>
			<point x="379" y="258" type="curve" smooth="yes"/>
			<point x="440" y="258"/>
			<point x="487" y="297"/>
		</contour>
	</outline>
</glyph>
<glyph name="exclamdown" format="1">
	<unicode hex="00A1"/>
	<advance width="220"/>
	<outline>
		<contour>
			<point x="81" y="-145" type="line"/>
			<point x="89" y="-146"/>
			<point x="102" y="-147"/>
			<point x="110" y="-147" type="curve" smooth="yes"/>
			<point x="118" y="-147"/>
			<point x="131" y="-146"/>
			<point x="139" y="-145" type="curve"/>
			<point x="138" y="214" type="line"/>
			<point x="129" y="330" type="line"/>
			<point x="124" y="331"/>
			<point x="116" y="332"/>
			<point x="110" y="332" type="curve" smooth="yes"/>
			<point x="104" y="332"/>
			<point x="96" y="331"/>
			<point x="91" y="330" type="curve"/>
			<point x="82" y="214" type="line"/>
		</contour>
		<contour>
			<point x="160" y="463" type="curve" smooth="yes"/>
			<point x="160" y="491"/>
			<point x="141" y="510"/>
			<point x="110" y="510" type="curve" smooth="yes"/>
			<point x="79" y="510"/>
			<point x="60" y="491"/>
			<point x="60" y="463" type="curve" smooth="yes"/>
			<point x="60" y="435"/>
			<point x="79" y="416"/>
			<point x="110" y="416" type="curve" smooth="yes"/>
			<point x="141" y="416"/>
			<point x="160" y="435"/>
		</contour>
	</outline>
</glyph>
<glyph name="cent" format="1">
	<unicode hex="00A2"/>
	<advance width="560"/>
	<outline>
		<contour>
			<point x="279" y="-68" type="line"/>
			<point x="285" y="-69"/>
			<point x="295" y="-70"/>
			<point x="305" y="-70" type="curve" smooth="yes"/>
			<point x="315" y="-70"/>
			<point x="325" y="-69"/>
			<point x="331" y="-68" type="curve"/>
			<point x="326" y="62" type="line"/>
			<point x="379" y="64"/>
			<point x="428" y="79"/>
			<point x="473" y="103" type="curve"/>
			<point x="471" y="116"/>
			<point x="466" y="129"/>
			<point x="456" y="140" type="curve"/>
			<point x="421" y="122"/>
			<point x="371" y="110"/>
			<point x="324" y="110" type="curve" smooth="yes"/>
			<point x="213" y="110"/>
			<point x="144" y="191"/>
			<point x="144" y="322" type="curve" smooth="yes"/>
			<point x="144" y="451"/>
			<point x="212" y="537"/>
			<point x="314" y="537" type="curve" smooth="yes"/>
			<point x="349" y="537"/>
			<point x="381" y="532"/>
			<point x="408" y="521" type="curve"/>
			<point x="431" y="414" type="line"/>
			<point x="437" y="410"/>
			<point x="444" y="408"/>
			<point x="450" y="408" type="curve" smooth="yes"/>
			<point x="455" y="408"/>
			<point x="460" y="409"/>
			<point x="465" y="411" type="curve"/>
			<point x="463" y="525" type="line"/>
			<point x="458" y="536"/>
			<point x="451" y="547"/>
			<point x="444" y="555" type="curve"/>
			<point x="412" y="569"/>
			<point x="367" y="580"/>
			<point x="326" y="582" type="curve"/>
			<point x="331" y="712" type="line"/>
			<point x="325" y="713"/>
			<point x="315" y="714"/>
			<point x="305" y="714" type="curve" smooth="yes"/>
			<point x="295" y="714"/>
			<point x="285" y="713"/>
			<point x="279" y="712" type="curve"/>
			<point x="284" y="580" type="line"/>
			<point x="163" y="566"/>
			<point x="87" y="468"/>
			<point x="87" y="322" type="curve" smooth="yes"/>
			<point x="87" y="176"/>
			<point x="164" y="78"/>
			<point x="284" y="63" type="curve"/>
		</contour>
	</outline>
</glyph>
<glyph name="sterling" format="1">
	<unicode hex="00A3"/>
	<advance width="560"/>
	<outline>
		<contour>
			<point x="482" y="0" type="line"/>
			<point x="491" y="7"/>
			<point x="500" y="17"/>
			<point x="506" y="26" type="curve"/>
			<point x="508" y="163" type="line"/>
			<point x="505" y="165"/>
			<point x="496" y="167"/>
			<point x="492" y="167" type="curve" smooth="yes"/>
			<point x="485" y="167"/>
			<point x="477" y="164"/>
			<point x="472" y="160" type="curve"/>
			<point x="447" y="46" type="line"/>
			<point x="138" y="46" type="line"/>
			<point x="199" y="84"/>
			<point x="237" y="152"/>
			<point x="237" y="219" type="curve" smooth="yes"/>
			<point x="237" y="248"/>
			<point x="232" y="274"/>
			<point x="219" y="313" type="curve"/>
			<point x="389" y="307" type="line"/>
			<point x="390" y="313"/>
			<point x="391" y="322"/>
			<point x="391" y="332" type="curve" smooth="yes"/>
			<point x="391" y="342"/>
			<point x="390" y="351"/>
			<point x="389" y="357" type="curve"/>
			<point x="205" y="350" type="line"/>
			<point x="186" y="406"/>
			<point x="181" y="433"/>
			<point x="181" y="468" type="curve" smooth="yes"/>
			<point x="181" y="557"/>
			<point x="232" y="609"/>
			<point x="318" y="609" type="curve" smooth="yes"/>
			<point x="372" y="609"/>
			<point x="418" y="584"/>
			<point x="467" y="529" type="curve"/>
			<point x="483" y="538"/>
			<point x="492" y="545"/>
			<point x="499" y="559" type="curve"/>
			<point x="457" y="620"/>
			<point x="390" y="655"/>
			<point x="318" y="655" type="curve" smooth="yes"/>
			<point x="202" y="655"/>
			<point x="128" y="583"/>
			<point x="128" y="468" type="curve" smooth="yes"/>
			<point x="128" y="431"/>
			<point x="132" y="396"/>
			<point x="148" y="351" type="curve"/>
			<point x="59" y="356" type="line"/>
			<point x="58" y="350"/>
			<point x="57" y="341"/>
			<point x="57" y="331" type="curve" smooth="yes"/>
			<point x="57" y="321"/>
			<point x="58" y="312"/>
			<point x="59" y="306" type="curve"/>
			<point x="164" y="312" type="line"/>
			<point x="179" y="271"/>
			<point x="184" y="244"/>
			<point x="184" y="219" type="curve" smooth="yes"/>
			<point x="184" y="131"/>
			<point x="111" y="67"/>
			<point x="64" y="31" type="curve"/>
			<point x="68" y="21"/>
			<point x="75" y="9"/>
			<point x="83" y="0" type="curve"/>
		</contour>
	</outline>
</glyph>
<glyph name="currency" format="1">
	<unicode hex="00A4"/>
	<advance width="560"/>
	<outline>
		<contour>
			<point x="474" y="92" type="line"/>
			<point x="484" y="98"/>
			<point x="500" y="114"/>
			<point x="511" y="129" type="curve"/>
			<point x="421" y="213" type="line"/>
			<point x="445" y="241"/>
			<point x="458" y="279"/>
			<point x="458" y="323" type="curve" smooth="yes"/>
			<point x="458" y="367"/>
			<point x="445" y="405"/>
			<point x="421" y="433" type="curve"/>
			<point x="511" y="517" type="line"/>
			<point x="500" y="532"/>
			<point x="484" y="548"/>
			<point x="474" y="554" type="curve"/>
			<point x="389" y="461" type="line"/>
			<point x="360" y="480"/>
			<point x="323" y="491"/>
			<point x="280" y="491" type="curve" smooth="yes"/>
			<point x="237" y="491"/>
			<point x="200" y="480"/>
			<point x="171" y="461" type="curve"/>
			<point x="86" y="554" type="line"/>
			<point x="76" y="548"/>
			<point x="60" y="532"/>
			<point x="49" y="517" type="curve"/>
			<point x="139" y="433" type="line"/>
			<point x="115" y="405"/>
			<point x="102" y="367"/>
			<point x="102" y="323" type="curve" smooth="yes"/>
			<point x="102" y="279"/>
			<point x="115" y="241"/>
			<point x="139" y="213" type="curve"/>
			<point x="49" y="129" type="line"/>
			<point x="60" y="114"/>
			<point x="76" y="98"/>
			<point x="86" y="92" type="curve"/>
			<point x="171" y="185" type="line"/>
			<point x="200" y="166"/>
			<point x="237" y="155"/>
			<point x="280" y="155" type="curve" smooth="yes"/>
			<point x="323" y="155"/>
			<point x="360" y="166"/>
			<point x="389" y="185" type="curve"/>
		</contour>
		<contour>
			<point x="280" y="201" type="curve" smooth="yes"/>
			<point x="203" y="201"/>
			<point x="159" y="245"/>
			<point x="159" y="323" type="curve" smooth="yes"/>
			<point x="159" y="401"/>
			<point x="203" y="445"/>
			<point x="280" y="445" type="curve" smooth="yes"/>
			<point x="357" y="445"/>
			<point x="401" y="401"/>
			<point x="401" y="323" type="curve" smooth="yes"/>
			<point x="401" y="245"/>
			<point x="357" y="201"/>
		</contour>
	</outline>
</glyph>
<glyph name="yen" format="1">
	<unicode hex="00A5"/>
	<advance width="560"/>
	<outline>
		<contour>
			<point x="404" y="0" type="line"/>
			<point x="406" y="8" type="line" smooth="yes"/>
			<point x="409" y="18"/>
			<point x="411" y="28"/>
			<point x="411" y="32" type="curve" smooth="yes"/>
			<point x="411" y="41"/>
			<point x="406" y="46"/>
			<point x="395" y="46" type="curve" smooth="yes"/>
			<point x="307" y="46" type="line"/>
			<point x="307" y="180" type="line"/>
			<point x="477" y="174" type="line"/>
			<point x="478" y="180"/>
			<point x="479" y="189"/>
			<point x="479" y="199" type="curve" smooth="yes"/>
			<point x="479" y="209"/>
			<point x="478" y="218"/>
			<point x="477" y="224" type="curve"/>
			<point x="307" y="218" type="line"/>
			<point x="307" y="253" type="line"/>
			<point x="336" y="309" type="line"/>
			<point x="490" y="304" type="line"/>
			<point x="491" y="310"/>
			<point x="492" y="319"/>
			<point x="492" y="329" type="curve" smooth="yes"/>
			<point x="492" y="339"/>
			<point x="491" y="348"/>
			<point x="490" y="354" type="curve"/>
			<point x="357" y="349" type="line"/>
			<point x="490" y="601" type="line"/>
			<point x="557" y="609" type="line"/>
			<point x="561" y="614"/>
			<point x="564" y="622"/>
			<point x="564" y="629" type="curve" smooth="yes"/>
			<point x="564" y="633"/>
			<point x="562" y="642"/>
			<point x="560" y="645" type="curve"/>
			<point x="382" y="645" type="line"/>
			<point x="380" y="637" type="line" smooth="yes"/>
			<point x="377" y="627"/>
			<point x="375" y="617"/>
			<point x="375" y="613" type="curve" smooth="yes"/>
			<point x="375" y="604"/>
			<point x="380" y="599"/>
			<point x="391" y="599" type="curve" smooth="yes"/>
			<point x="434" y="599" type="line"/>
			<point x="281" y="298" type="line"/>
			<point x="130" y="601" type="line"/>
			<point x="182" y="609" type="line"/>
			<point x="186" y="614"/>
			<point x="189" y="622"/>
			<point x="189" y="629" type="curve" smooth="yes"/>
			<point x="189" y="633"/>
			<point x="187" y="642"/>
			<point x="185" y="645" type="curve"/>
			<point x="2" y="645" type="line"/>
			<point x="0" y="637" type="line" smooth="yes"/>
			<point x="-3" y="627"/>
			<point x="-5" y="617"/>
			<point x="-5" y="613" type="curve" smooth="yes"/>
			<point x="-5" y="604"/>
			<point x="0" y="599"/>
			<point x="11" y="599" type="curve" smooth="yes"/>
			<point x="69" y="599" type="line"/>
			<point x="200" y="349" type="line"/>
			<point x="68" y="354" type="line"/>
			<point x="67" y="348"/>
			<point x="66" y="339"/>
			<point x="66" y="329" type="curve" smooth="yes"/>
			<point x="66" y="319"/>
			<point x="67" y="310"/>
			<point x="68" y="304" type="curve"/>
			<point x="221" y="309" type="line"/>
			<point x="251" y="253" type="line"/>
			<point x="251" y="218" type="line"/>
			<point x="81" y="224" type="line"/>
			<point x="80" y="218"/>
			<point x="79" y="209"/>
			<point x="79" y="199" type="curve" smooth="yes"/>
			<point x="79" y="189"/>
			<point x="80" y="180"/>
			<point x="81" y="174" type="curve"/>
			<point x="251" y="180" type="line"/>
			<point x="251" y="44" type="line"/>
			<point x="154" y="36" type="line"/>
			<point x="150" y="31"/>
			<point x="147" y="23"/>
			<point x="147" y="16" type="curve" smooth="yes"/>
			<point x="147" y="12"/>
			<point x="149" y="3"/>
			<point x="151" y="0" type="curve"/>
		</contour>
	</outline>
</glyph>
<glyph name="brokenbar" format="1">
	<unicode hex="00A6"/>
	<advance width="298"/>
	<outline>
		<contour>
			<point x="124" y="311" type="line"/>
			<point x="135" y="309"/>
			<point x="142" y="308"/>
			<point x="148" y="308" type="curve" smooth="yes"/>
			<point x="155" y="308"/>
			<point x="162" y="309"/>
			<point x="174" y="313" type="curve"/>
			<point x="174" y="665" type="line"/>
			<point x="163" y="667"/>
			<point x="156" y="668"/>
			<point x="150" y="668" type="curve" smooth="yes"/>
			<point x="143" y="668"/>
			<point x="136" y="667"/>
			<point x="124" y="663" type="curve"/>
		</contour>
		<contour>
			<point x="124" y="-182" type="line"/>
			<point x="135" y="-184"/>
			<point x="142" y="-185"/>
			<point x="148" y="-185" type="curve" smooth="yes"/>
			<point x="155" y="-185"/>
			<point x="162" y="-184"/>
			<point x="174" y="-180" type="curve"/>
			<point x="174" y="172" type="line"/>
			<point x="163" y="174"/>
			<point x="156" y="175"/>
			<point x="150" y="175" type="curve" smooth="yes"/>
			<point x="143" y="175"/>
			<point x="136" y="174"/>
			<point x="124" y="170" type="curve"/>
		</contour>
	</outline>
</glyph>
<glyph name="section" format="1">
	<unicode hex="00A7"/>
	<advance width="483"/>
	<outline>
		<contour>
			<point x="242" y="-131" type="curve" smooth="yes"/>
			<point x="343" y="-131"/>
			<point x="411" y="-80"/>
			<point x="411" y="-4" type="curve" smooth="yes"/>
			<point x="411" y="44"/>
			<point x="392" y="76"/>
			<point x="336" y="113" type="curve"/>
			<point x="403" y="144"/>
			<point x="438" y="189"/>
			<point x="438" y="246" type="curve" smooth="yes"/>
			<point x="438" y="324"/>
			<point x="394" y="370"/>
			<point x="254" y="432" type="curve" smooth="yes"/>
			<point x="159" y="474"/>
			<point x="127" y="506"/>
			<point x="127" y="553" type="curve" smooth="yes"/>
			<point x="127" y="605"/>
			<point x="172" y="637"/>
			<point x="245" y="637" type="curve" smooth="yes"/>
			<point x="278" y="637"/>
			<point x="313" y="631"/>
			<point x="340" y="621" type="curve"/>
			<point x="361" y="529" type="line"/>
			<point x="367" y="525"/>
			<point x="374" y="523"/>
			<point x="380" y="523" type="curve" smooth="yes"/>
			<point x="385" y="523"/>
			<point x="390" y="524"/>
			<point x="395" y="526" type="curve"/>
			<point x="393" y="625" type="line"/>
			<point x="388" y="636"/>
			<point x="381" y="647"/>
			<point x="374" y="655" type="curve"/>
			<point x="348" y="669"/>
			<point x="289" y="680"/>
			<point x="241" y="680" type="curve" smooth="yes"/>
			<point x="140" y="680"/>
			<point x="72" y="629"/>
			<point x="72" y="553" type="curve" smooth="yes"/>
			<point x="72" y="505"/>
			<point x="90" y="473"/>
			<point x="146" y="436" type="curve"/>
			<point x="79" y="404"/>
			<point x="45" y="360"/>
			<point x="45" y="303" type="curve" smooth="yes"/>
			<point x="45" y="225"/>
			<point x="89" y="179"/>
			<point x="229" y="117" type="curve" smooth="yes"/>
			<point x="324" y="75"/>
			<point x="356" y="43"/>
			<point x="356" y="-4" type="curve" smooth="yes"/>
			<point x="356" y="-56"/>
			<point x="311" y="-88"/>
			<point x="238" y="-88" type="curve" smooth="yes"/>
			<point x="204" y="-88"/>
			<point x="170" y="-82"/>
			<point x="143" y="-72" type="curve"/>
			<point x="122" y="20" type="line"/>
			<point x="116" y="24"/>
			<point x="109" y="26"/>
			<point x="103" y="26" type="curve" smooth="yes"/>
			<point x="98" y="26"/>
			<point x="93" y="25"/>
			<point x="88" y="23" type="curve"/>
			<point x="90" y="-76" type="line"/>
			<point x="95" y="-87"/>
			<point x="102" y="-98"/>
			<point x="109" y="-106" type="curve"/>
			<point x="135" y="-120"/>
			<point x="194" y="-131"/>
		</contour>
		<contour>
			<point x="250" y="380" type="curve"/>
			<point x="348" y="333"/>
			<point x="383" y="298"/>
			<point x="383" y="246" type="curve" smooth="yes"/>
			<point x="383" y="199"/>
			<point x="349" y="157"/>
			<point x="297" y="136" type="curve"/>
			<point x="279" y="146"/>
			<point x="257" y="157"/>
			<point x="233" y="169" type="curve" smooth="yes"/>
			<point x="135" y="216"/>
			<point x="100" y="251"/>
			<point x="100" y="303" type="curve" smooth="yes"/>
			<point x="100" y="350"/>
			<point x="133" y="391"/>
			<point x="185" y="412" type="curve"/>
			<point x="204" y="402"/>
			<point x="225" y="391"/>
		</contour>
	</outline>
</glyph>
<glyph name="ordfeminine" format="1">
	<unicode hex="00AA"/>
	<advance width="387"/>
	<outline>
		<contour>
			<point x="361" y="310" type="line"/>
			<point x="365" y="315"/>
			<point x="367" y="322"/>
			<point x="367" y="327" type="curve" smooth="yes"/>
			<point x="367" y="331"/>
			<point x="366" y="335"/>
			<point x="364" y="339" type="curve"/>
			<point x="304" y="339" type="line"/>
			<point x="304" y="516" type="line" smooth="yes"/>
			<point x="304" y="608"/>
			<point x="260" y="655"/>
			<point x="175" y="655" type="curve" smooth="yes"/>
			<point x="130" y="655"/>
			<point x="89" y="642"/>
			<point x="48" y="614" type="curve"/>
			<point x="49" y="602"/>
			<point x="56" y="588"/>
			<point x="66" y="582" type="curve"/>
			<point x="95" y="603"/>
			<point x="132" y="614"/>
			<point x="169" y="614" type="curve" smooth="yes"/>
			<point x="230" y="614"/>
			<point x="257" y="581"/>
			<point x="257" y="506" type="curve" smooth="yes"/>
			<point x="257" y="491" type="line"/>
			<point x="231" y="495"/>
			<point x="201" y="497"/>
			<point x="181" y="497" type="curve" smooth="yes"/>
			<point x="89" y="497"/>
			<point x="32" y="456"/>
			<point x="32" y="390" type="curve" smooth="yes"/>
			<point x="32" y="332"/>
			<point x="76" y="291"/>
			<point x="137" y="291" type="curve" smooth="yes"/>
			<point x="188" y="291"/>
			<point x="234" y="317"/>
			<point x="259" y="360" type="curve"/>
			<point x="256" y="312" type="line"/>
			<point x="263" y="305"/>
			<point x="270" y="300"/>
			<point x="280" y="295" type="curve"/>
		</contour>
		<contour>
			<point x="257" y="444" type="line" smooth="yes"/>
			<point x="257" y="383"/>
			<point x="205" y="331"/>
			<point x="146" y="331" type="curve" smooth="yes"/>
			<point x="107" y="331"/>
			<point x="82" y="354"/>
			<point x="82" y="390" type="curve" smooth="yes"/>
			<point x="82" y="437"/>
			<point x="117" y="460"/>
			<point x="188" y="460" type="curve" smooth="yes"/>
			<point x="206" y="460"/>
			<point x="236" y="458"/>
			<point x="257" y="455" type="curve"/>
		</contour>
		<contour>
			<point x="344" y="177" type="line"/>
			<point x="347" y="185"/>
			<point x="349" y="194"/>
			<point x="349" y="201" type="curve" smooth="yes"/>
			<point x="349" y="207"/>
			<point x="348" y="213"/>
			<point x="346" y="219" type="curve"/>
			<point x="43" y="219" type="line"/>
			<point x="40" y="211"/>
			<point x="38" y="202"/>
			<point x="38" y="195" type="curve" smooth="yes"/>
			<point x="38" y="189"/>
			<point x="39" y="183"/>
			<point x="41" y="177" type="curve"/>
		</contour>
	</outline>
</glyph>
<glyph name="logicalnot" format="1">
	<unicode hex="00AC"/>
	<advance width="560"/>
	<outline>
		<contour>
			<point x="446" y="225" type="line"/>
			<point x="457" y="223"/>
			<point x="464" y="222"/>
			<point x="470" y="222" type="curve" smooth="yes"/>
			<point x="477" y="222"/>
			<point x="484" y="223"/>
			<point x="496" y="227" type="curve"/>
			<point x="496" y="423" type="line"/>
			<point x="69" y="423" type="line"/>
			<point x="65" y="410"/>
			<point x="64" y="405"/>
			<point x="64" y="398" type="curve" smooth="yes"/>
			<point x="64" y="392"/>
			<point x="65" y="386"/>
			<point x="67" y="375" type="curve"/>
			<point x="446" y="375" type="line"/>
		</contour>
	</outline>
</glyph>
<glyph name="registered" format="2">
	<unicode hex="00AE"/>
	<advance width="570"/>
	<outline>
		<contour>
			<point x="520" y="421" type="curve" smooth="yes"/>
			<point x="520" y="562"/>
			<point x="426" y="655"/>
			<point x="285" y="655" type="curve" smooth="yes"/>
			<point x="144" y="655"/>
			<point x="50" y="562"/>
			<point x="50" y="421" type="curve" smooth="yes"/>
			<point x="50" y="280"/>
			<point x="144" y="187"/>
			<point x="285" y="187" type="curve" smooth="yes"/>
			<point x="426" y="187"/>
			<point x="520" y="280"/>
		</contour>
		<contour>
			<point x="285" y="221" type="curve" smooth="yes"/>
			<point x="167" y="221"/>
			<point x="91" y="300"/>
			<point x="91" y="421" type="curve" smooth="yes"/>
			<point x="91" y="542"/>
			<point x="167" y="621"/>
			<point x="285" y="621" type="curve" smooth="yes"/>
			<point x="403" y="621"/>
			<point x="479" y="542"/>
			<point x="479" y="421" type="curve" smooth="yes"/>
			<point x="479" y="300"/>
			<point x="403" y="221"/>
		</contour>
		<contour>
			<point x="325" y="328" type="line"/>
			<point x="342" y="302"/>
			<point x="354" y="294"/>
			<point x="377" y="294" type="curve" smooth="yes"/>
			<point x="386" y="294"/>
			<point x="396" y="296"/>
			<point x="409" y="302" type="curve"/>
			<point x="409" y="311"/>
			<point x="406" y="320"/>
			<point x="401" y="326" type="curve"/>
			<point x="396" y="325"/>
			<point x="391" y="324"/>
			<point x="387" y="324" type="curve" smooth="yes"/>
			<point x="373" y="324"/>
			<point x="365" y="330"/>
			<point x="352" y="351" type="curve" smooth="yes"/>
			<point x="321" y="401" type="line"/>
			<point x="355" y="410"/>
			<point x="378" y="438"/>
			<point x="378" y="475" type="curve" smooth="yes"/>
			<point x="378" y="520"/>
			<point x="343" y="552"/>
			<point x="296" y="552" type="curve" smooth="yes"/>
			<point x="176" y="552" type="line"/>
			<point x="173" y="542" type="line" smooth="yes"/>
			<point x="172" y="539"/>
			<point x="171" y="534"/>
			<point x="171" y="532" type="curve" smooth="yes"/>
			<point x="171" y="525"/>
			<point x="174" y="523"/>
			<point x="183" y="523" type="curve" smooth="yes"/>
			<point x="203" y="523" type="line"/>
			<point x="203" y="323" type="line"/>
			<point x="175" y="320" type="line"/>
			<point x="172" y="316"/>
			<point x="171" y="312"/>
			<point x="171" y="306" type="curve" smooth="yes"/>
			<point x="171" y="303"/>
			<point x="172" y="301"/>
			<point x="173" y="296" type="curve"/>
			<point x="267" y="296" type="line"/>
			<point x="270" y="306" type="line" smooth="yes"/>
			<point x="271" y="309"/>
			<point x="272" y="314"/>
			<point x="272" y="316" type="curve" smooth="yes"/>
			<point x="272" y="323"/>
			<point x="269" y="325"/>
			<point x="260" y="325" type="curve" smooth="yes"/>
			<point x="240" y="325" type="line"/>
			<point x="240" y="398" type="line"/>
			<point x="283" y="398" type="line"/>
		</contour>
		<contour>
			<point x="240" y="427" type="line"/>
			<point x="240" y="523" type="line"/>
			<point x="281" y="523" type="line" smooth="yes"/>
			<point x="318" y="523"/>
			<point x="339" y="505"/>
			<point x="339" y="475" type="curve" smooth="yes"/>
			<point x="339" y="444"/>
			<point x="318" y="427"/>
			<point x="281" y="427" type="curve" smooth="yes"/>
		</contour>
	</outline>
</glyph>
<glyph name="degree" format="1">
	<unicode hex="00B0"/>
	<advance width="392"/>
	<outline>
		<contour>
			<point x="196" y="396" type="curve" smooth="yes"/>
			<point x="136" y="396"/>
			<point x="95" y="437"/>
			<point x="95" y="503" type="curve" smooth="yes"/>
			<point x="95" y="569"/>
			<point x="136" y="610"/>
			<point x="196" y="610" type="curve" smooth="yes"/>
			<point x="256" y="610"/>
			<point x="297" y="569"/>
			<point x="297" y="503" type="curve" smooth="yes"/>
			<point x="297" y="437"/>
			<point x="256" y="396"/>
		</contour>
		<contour>
			<point x="352" y="503" type="curve" smooth="yes"/>
			<point x="352" y="592"/>
			<point x="287" y="655"/>
			<point x="196" y="655" type="curve" smooth="yes"/>
			<point x="105" y="655"/>
			<point x="40" y="592"/>
			<point x="40" y="503" type="curve" smooth="yes"/>
			<point x="40" y="414"/>
			<point x="105" y="351"/>
			<point x="196" y="351" type="curve" smooth="yes"/>
			<point x="287" y="351"/>
			<point x="352" y="414"/>
		</contour>
	</outline>
</glyph>
<glyph name="micro" format="1">
	<unicode hex="00B5"/>
	<advance width="602"/>
	<outline>
		<contour>
			<point x="569" y="14" type="line"/>
			<point x="573" y="21"/>
			<point x="575" y="27"/>
			<point x="575" y="33" type="curve" smooth="yes"/>
			<point x="575" y="37"/>
			<point x="574" y="42"/>
			<point x="572" y="47" type="curve"/>
			<point x="496" y="47" type="line"/>
			<point x="481" y="190" type="line"/>
			<point x="481" y="398" type="line"/>
			<point x="488" y="483" type="line"/>
			<point x="481" y="491"/>
			<point x="471" y="499"/>
			<point x="460" y="505" type="curve"/>
			<point x="427" y="500" type="line"/>
			<point x="427" y="234" type="line" smooth="yes"/>
			<point x="427" y="125"/>
			<point x="358" y="34"/>
			<point x="275" y="34" type="curve" smooth="yes"/>
			<point x="202" y="34"/>
			<point x="144" y="103"/>
			<point x="144" y="190" type="curve" smooth="yes"/>
			<point x="144" y="398" type="line"/>
			<point x="151" y="483" type="line"/>
			<point x="144" y="491"/>
			<point x="134" y="499"/>
			<point x="123" y="505" type="curve"/>
			<point x="90" y="500" type="line"/>
			<point x="90" y="-195" type="line"/>
			<point x="129" y="-191" type="line" smooth="yes"/>
			<point x="142" y="-190"/>
			<point x="150" y="-182"/>
			<point x="149" y="-171" type="curve" smooth="yes"/>
			<point x="134" y="63" type="line"/>
			<point x="162" y="15"/>
			<point x="208" y="-10"/>
			<point x="269" y="-10" type="curve" smooth="yes"/>
			<point x="351" y="-10"/>
			<point x="411" y="36"/>
			<point x="442" y="122" type="curve"/>
			<point x="442" y="17" type="line"/>
			<point x="449" y="9"/>
			<point x="459" y="1"/>
			<point x="470" y="-5" type="curve"/>
		</contour>
	</outline>
</glyph>
<glyph name="ordmasculine" format="1">
	<unicode hex="00BA"/>
	<advance width="402"/>
	<outline>
		<contour>
			<point x="201" y="332" type="curve" smooth="yes"/>
			<point x="133" y="332"/>
			<point x="88" y="388"/>
			<point x="88" y="473" type="curve" smooth="yes"/>
			<point x="88" y="558"/>
			<point x="133" y="614"/>
			<point x="201" y="614" type="curve" smooth="yes"/>
			<point x="269" y="614"/>
			<point x="314" y="558"/>
			<point x="314" y="473" type="curve" smooth="yes"/>
			<point x="314" y="388"/>
			<point x="269" y="332"/>
		</contour>
		<contour>
			<point x="201" y="291" type="curve" smooth="yes"/>
			<point x="301" y="291"/>
			<point x="367" y="363"/>
			<point x="367" y="473" type="curve" smooth="yes"/>
			<point x="367" y="583"/>
			<point x="301" y="655"/>
			<point x="201" y="655" type="curve" smooth="yes"/>
			<point x="101" y="655"/>
			<point x="35" y="583"/>
			<point x="35" y="473" type="curve" smooth="yes"/>
			<point x="35" y="363"/>
			<point x="101" y="291"/>
		</contour>
		<contour>
			<point x="347" y="177" type="line"/>
			<point x="350" y="185"/>
			<point x="352" y="194"/>
			<point x="352" y="201" type="curve" smooth="yes"/>
			<point x="352" y="207"/>
			<point x="351" y="213"/>
			<point x="349" y="219" type="curve"/>
			<point x="56" y="219" type="line"/>
			<point x="53" y="211"/>
			<point x="51" y="202"/>
			<point x="51" y="195" type="curve" smooth="yes"/>
			<point x="51" y="189"/>
			<point x="52" y="183"/>
			<point x="54" y="177" type="curve"/>
		</contour>
	</outline>
</glyph>
<glyph name="questiondown" format="1">
	<unicode hex="00BF"/>
	<advance width="471"/>
	<outline>
		<contour>
			<point x="347" y="-88" type="line"/>
			<point x="319" y="-101"/>
			<point x="278" y="-109"/>
			<point x="239" y="-109" type="curve" smooth="yes"/>
			<point x="158" y="-109"/>
			<point x="106" y="-67"/>
			<point x="106" y="0" type="curve" smooth="yes"/>
			<point x="106" y="47"/>
			<point x="131" y="85"/>
			<point x="207" y="150" type="curve" smooth="yes"/>
			<point x="293" y="224"/>
			<point x="301" y="236"/>
			<point x="297" y="280" type="curve" smooth="yes"/>
			<point x="293" y="330" type="line"/>
			<point x="288" y="331"/>
			<point x="280" y="332"/>
			<point x="274" y="332" type="curve" smooth="yes"/>
			<point x="268" y="332"/>
			<point x="260" y="331"/>
			<point x="255" y="330" type="curve"/>
			<point x="250" y="280" type="line" smooth="yes"/>
			<point x="247" y="250"/>
			<point x="227" y="227"/>
			<point x="148" y="163" type="curve" smooth="yes"/>
			<point x="78" y="106"/>
			<point x="50" y="60"/>
			<point x="50" y="0" type="curve" smooth="yes"/>
			<point x="50" y="-94"/>
			<point x="123" y="-155"/>
			<point x="236" y="-155" type="curve" smooth="yes"/>
			<point x="289" y="-155"/>
			<point x="347" y="-142"/>
			<point x="391" y="-119" type="curve"/>
			<point x="399" y="-110"/>
			<point x="406" y="-98"/>
			<point x="410" y="-89" type="curve"/>
			<point x="411" y="42" type="line"/>
			<point x="406" y="44"/>
			<point x="401" y="45"/>
			<point x="396" y="45" type="curve" smooth="yes"/>
			<point x="390" y="45"/>
			<point x="383" y="43"/>
			<point x="377" y="39" type="curve"/>
		</contour>
		<contour>
			<point x="324" y="463" type="curve" smooth="yes"/>
			<point x="324" y="491"/>
			<point x="305" y="510"/>
			<point x="274" y="510" type="curve" smooth="yes"/>
			<point x="243" y="510"/>
			<point x="224" y="491"/>
			<point x="224" y="463" type="curve" smooth="yes"/>
			<point x="224" y="435"/>
			<point x="243" y="416"/>
			<point x="274" y="416" type="curve" smooth="yes"/>
			<point x="305" y="416"/>
			<point x="324" y="435"/>
		</contour>
	</outline>
</glyph>
<glyph name="AE" format="2">
	<unicode hex="00C6"/>
	<advance width="915"/>
	<outline>
		<contour>
			<point x="839" y="0" type="line"/>
			<point x="848" y="7"/>
			<point x="857" y="17"/>
			<point x="863" y="26" type="curve"/>
			<point x="865" y="158" type="line"/>
			<point x="862" y="160"/>
			<point x="853" y="162"/>
			<point x="849" y="162" type="curve" smooth="yes"/>
			<point x="842" y="162"/>
			<point x="834" y="159"/>
			<point x="829" y="155" type="curve"/>
			<point x="804" y="46" type="line"/>
			<point x="515" y="46" type="line"/>
			<point x="515" y="307" type="line"/>
			<point x="700" y="307" type="line"/>
			<point x="712" y="242" type="line"/>
			<point x="717" y="238"/>
			<point x="725" y="235"/>
			<point x="732" y="235" type="curve" smooth="yes"/>
			<point x="736" y="235"/>
			<point x="745" y="237"/>
			<point x="748" y="239" type="curve"/>
			<point x="748" y="415" type="line"/>
			<point x="742" y="418" type="line" smooth="yes"/>
			<point x="735" y="421"/>
			<point x="730" y="423"/>
			<point x="726" y="423" type="curve" smooth="yes"/>
			<point x="717" y="423"/>
			<point x="711" y="417"/>
			<point x="709" y="405" type="curve" smooth="yes"/>
			<point x="700" y="352" type="line"/>
			<point x="515" y="352" type="line"/>
			<point x="515" y="599" type="line"/>
			<point x="794" y="599" type="line"/>
			<point x="819" y="490" type="line"/>
			<point x="824" y="486"/>
			<point x="832" y="483"/>
			<point x="839" y="483" type="curve" smooth="yes"/>
			<point x="843" y="483"/>
			<point x="852" y="485"/>
			<point x="855" y="487" type="curve"/>
			<point x="853" y="619" type="line"/>
			<point x="847" y="628"/>
			<point x="838" y="638"/>
			<point x="829" y="645" type="curve"/>
			<point x="296" y="645" type="line"/>
			<point x="294" y="637" type="line" smooth="yes"/>
			<point x="291" y="627"/>
			<point x="289" y="617"/>
			<point x="289" y="613" type="curve" smooth="yes"/>
			<point x="289" y="604"/>
			<point x="294" y="599"/>
			<point x="305" y="599" type="curve" smooth="yes"/>
			<point x="352" y="599" type="line"/>
			<point x="74" y="44" type="line"/>
			<point x="7" y="36" type="line"/>
			<point x="3" y="31"/>
			<point x="0" y="23"/>
			<point x="0" y="16" type="curve" smooth="yes"/>
			<point x="0" y="12"/>
			<point x="2" y="3"/>
			<point x="4" y="0" type="curve"/>
			<point x="201" y="0" type="line"/>
			<point x="203" y="8" type="line" smooth="yes"/>
			<point x="206" y="18"/>
			<point x="208" y="28"/>
			<point x="208" y="32" type="curve" smooth="yes"/>
			<point x="208" y="41"/>
			<point x="203" y="46"/>
			<point x="192" y="46" type="curve" smooth="yes"/>
			<point x="134" y="46" type="line"/>
			<point x="215" y="211" type="line"/>
			<point x="459" y="211" type="line"/>
			<point x="459" y="44" type="line"/>
			<point x="392" y="36" type="line"/>
			<point x="388" y="31"/>
			<point x="385" y="23"/>
			<point x="385" y="16" type="curve" smooth="yes"/>
			<point x="385" y="12"/>
			<point x="387" y="3"/>
			<point x="389" y="0" type="curve"/>
		</contour>
		<contour>
			<point x="459" y="254" type="line"/>
			<point x="236" y="254" type="line"/>
			<point x="406" y="599" type="line"/>
			<point x="459" y="599" type="line"/>
		</contour>
	</outline>
</glyph>
<glyph name="Eth" format="1">
	<unicode hex="00D0"/>
	<advance width="674"/>
	<outline>
		<contour>
			<point x="327" y="0" type="line" smooth="yes"/>
			<point x="507" y="0"/>
			<point x="624" y="123"/>
			<point x="624" y="323" type="curve" smooth="yes"/>
			<point x="624" y="522"/>
			<point x="507" y="645"/>
			<point x="327" y="645" type="curve" smooth="yes"/>
			<point x="58" y="645" type="line"/>
			<point x="56" y="637" type="line" smooth="yes"/>
			<point x="53" y="627"/>
			<point x="51" y="617"/>
			<point x="51" y="613" type="curve" smooth="yes"/>
			<point x="51" y="604"/>
			<point x="56" y="599"/>
			<point x="67" y="599" type="curve" smooth="yes"/>
			<point x="125" y="599" type="line"/>
			<point x="125" y="349" type="line"/>
			<point x="56" y="349" type="line"/>
			<point x="52" y="337"/>
			<point x="51" y="332"/>
			<point x="51" y="325" type="curve" smooth="yes"/>
			<point x="51" y="320"/>
			<point x="52" y="313"/>
			<point x="54" y="305" type="curve"/>
			<point x="125" y="305" type="line"/>
			<point x="125" y="44" type="line"/>
			<point x="58" y="36" type="line"/>
			<point x="54" y="31"/>
			<point x="51" y="23"/>
			<point x="51" y="16" type="curve" smooth="yes"/>
			<point x="51" y="12"/>
			<point x="53" y="3"/>
			<point x="55" y="0" type="curve"/>
		</contour>
		<contour>
			<point x="181" y="46" type="line"/>
			<point x="181" y="305" type="line"/>
			<point x="347" y="305" type="line"/>
			<point x="351" y="317"/>
			<point x="352" y="322"/>
			<point x="352" y="329" type="curve" smooth="yes"/>
			<point x="352" y="334"/>
			<point x="351" y="341"/>
			<point x="349" y="349" type="curve"/>
			<point x="181" y="349" type="line"/>
			<point x="181" y="599" type="line"/>
			<point x="327" y="599" type="line" smooth="yes"/>
			<point x="476" y="599"/>
			<point x="565" y="489"/>
			<point x="565" y="323" type="curve" smooth="yes"/>
			<point x="565" y="156"/>
			<point x="476" y="46"/>
			<point x="327" y="46" type="curve" smooth="yes"/>
		</contour>
	</outline>
</glyph>
<glyph name="multiply" format="2">
	<unicode hex="00D7"/>
	<advance width="560"/>
	<outline>
		<contour>
			<point x="435" y="133" type="line"/>
			<point x="450" y="141"/>
			<point x="458" y="149"/>
			<point x="470" y="166" type="curve"/>
			<point x="314" y="322" type="line"/>
			<point x="470" y="478" type="line"/>
			<point x="463" y="491"/>
			<point x="452" y="502"/>
			<point x="437" y="511" type="curve"/>
			<point x="281" y="355" type="line"/>
			<point x="125" y="511" type="line"/>
			<point x="110" y="503"/>
			<point x="102" y="495"/>
			<point x="90" y="478" type="curve"/>
			<point x="246" y="322" type="line"/>
			<point x="90" y="166" type="line"/>
			<point x="97" y="153"/>
			<point x="108" y="142"/>
			<point x="123" y="133" type="curve"/>
			<point x="279" y="289" type="line"/>
		</contour>
	</outline>
</glyph>
<glyph name="Oslash" format="2">
	<unicode hex="00D8"/>
	<advance width="694"/>
	<outline>
		<contour>
			<point x="154" y="58" type="line"/>
			<point x="204" y="14"/>
			<point x="270" y="-10"/>
			<point x="347" y="-10" type="curve" smooth="yes"/>
			<point x="526" y="-10"/>
			<point x="644" y="122"/>
			<point x="644" y="323" type="curve" smooth="yes"/>
			<point x="644" y="417"/>
			<point x="618" y="496"/>
			<point x="572" y="553" type="curve"/>
			<point x="632" y="625" type="line"/>
			<point x="623" y="639"/>
			<point x="612" y="647"/>
			<point x="597" y="655" type="curve"/>
			<point x="540" y="587" type="line"/>
			<point x="490" y="631"/>
			<point x="424" y="655"/>
			<point x="347" y="655" type="curve" smooth="yes"/>
			<point x="168" y="655"/>
			<point x="50" y="523"/>
			<point x="50" y="323" type="curve" smooth="yes"/>
			<point x="50" y="228"/>
			<point x="76" y="149"/>
			<point x="122" y="92" type="curve"/>
			<point x="62" y="20" type="line"/>
			<point x="71" y="6"/>
			<point x="82" y="-2"/>
			<point x="97" y="-10" type="curve"/>
		</contour>
		<contour>
			<point x="159" y="135" type="line"/>
			<point x="127" y="183"/>
			<point x="109" y="247"/>
			<point x="109" y="323" type="curve" smooth="yes"/>
			<point x="109" y="495"/>
			<point x="203" y="608"/>
			<point x="347" y="608" type="curve" smooth="yes"/>
			<point x="411" y="608"/>
			<point x="465" y="586"/>
			<point x="505" y="546" type="curve"/>
		</contour>
		<contour>
			<point x="535" y="510" type="line"/>
			<point x="567" y="462"/>
			<point x="585" y="398"/>
			<point x="585" y="323" type="curve" smooth="yes"/>
			<point x="585" y="150"/>
			<point x="491" y="37"/>
			<point x="347" y="37" type="curve" smooth="yes"/>
			<point x="283" y="37"/>
			<point x="229" y="59"/>
			<point x="189" y="99" type="curve"/>
		</contour>
	</outline>
</glyph>
<glyph name="Thorn" format="2">
	<unicode hex="00DE"/>
	<advance width="555"/>
	<outline>
		<contour>
			<point x="248" y="0" type="line"/>
			<point x="250" y="8" type="line" smooth="yes"/>
			<point x="253" y="18"/>
			<point x="255" y="28"/>
			<point x="255" y="32" type="curve" smooth="yes"/>
			<point x="255" y="41"/>
			<point x="250" y="46"/>
			<point x="239" y="46" type="curve" smooth="yes"/>
			<point x="181" y="46" type="line"/>
			<point x="181" y="134" type="line"/>
			<point x="307" y="134" type="line" smooth="yes"/>
			<point x="474" y="134"/>
			<point x="535" y="242"/>
			<point x="535" y="330" type="curve" smooth="yes"/>
			<point x="535" y="418"/>
			<point x="474" y="526"/>
			<point x="307" y="526" type="curve" smooth="yes"/>
			<point x="181" y="526" type="line"/>
			<point x="181" y="601" type="line"/>
			<point x="248" y="609" type="line"/>
			<point x="252" y="614"/>
			<point x="255" y="622"/>
			<point x="255" y="629" type="curve" smooth="yes"/>
			<point x="255" y="633"/>
			<point x="253" y="642"/>
			<point x="251" y="645" type="curve"/>
			<point x="58" y="645" type="line"/>
			<point x="56" y="637" type="line" smooth="yes"/>
			<point x="53" y="627"/>
			<point x="51" y="617"/>
			<point x="51" y="613" type="curve" smooth="yes"/>
			<point x="51" y="604"/>
			<point x="56" y="599"/>
			<point x="67" y="599" type="curve" smooth="yes"/>
			<point x="125" y="599" type="line"/>
			<point x="125" y="44" type="line"/>
			<point x="58" y="36" type="line"/>
			<point x="54" y="31"/>
			<point x="51" y="23"/>
			<point x="51" y="16" type="curve" smooth="yes"/>
			<point x="51" y="12"/>
			<point x="53" y="3"/>
			<point x="55" y="0" type="curve"/>
		</contour>
		<contour>
			<point x="181" y="180" type="line"/>
			<point x="181" y="480" type="line"/>
			<point x="307" y="480" type="line" smooth="yes"/>
			<point x="411" y="480"/>
			<point x="476" y="422"/>
			<point x="476" y="330" type="curve" smooth="yes"/>
			<point x="476" y="238"/>
			<point x="411" y="180"/>
			<point x="307" y="180" type="curve" smooth="yes"/>
		</contour>
	</outline>
</glyph>
<glyph name="germandbls" format="1">
	<unicode hex="00DF"/>
	<advance width="576"/>
	<outline>
		<contour>
			<point x="278" y="31" type="line"/>
			<point x="283" y="20"/>
			<point x="290" y="9"/>
			<point x="297" y="1" type="curve"/>
			<point x="323" y="-6"/>
			<point x="354" y="-10"/>
			<point x="386" y="-10" type="curve" smooth="yes"/>
			<point x="484" y="-10"/>
			<point x="546" y="42"/>
			<point x="546" y="125" type="curve" smooth="yes"/>
			<point x="546" y="195"/>
			<point x="518" y="238"/>
			<point x="433" y="299" type="curve" smooth="yes"/>
			<point x="382" y="335"/>
			<point x="366" y="356"/>
			<point x="366" y="378" type="curve" smooth="yes"/>
			<point x="366" y="401"/>
			<point x="375" y="415"/>
			<point x="406" y="444" type="curve" smooth="yes"/>
			<point x="446" y="482"/>
			<point x="460" y="509"/>
			<point x="460" y="546" type="curve" smooth="yes"/>
			<point x="460" y="625"/>
			<point x="393" y="680"/>
			<point x="296" y="680" type="curve" smooth="yes"/>
			<point x="172" y="680"/>
			<point x="105" y="602"/>
			<point x="105" y="458" type="curve" smooth="yes"/>
			<point x="105" y="41" type="line"/>
			<point x="37" y="33" type="line"/>
			<point x="33" y="26"/>
			<point x="31" y="20"/>
			<point x="31" y="14" type="curve" smooth="yes"/>
			<point x="31" y="10"/>
			<point x="32" y="5"/>
			<point x="34" y="0" type="curve"/>
			<point x="202" y="0" type="line"/>
			<point x="204" y="8" type="line" smooth="yes"/>
			<point x="207" y="19"/>
			<point x="208" y="26"/>
			<point x="208" y="29" type="curve" smooth="yes"/>
			<point x="208" y="38"/>
			<point x="203" y="43"/>
			<point x="192" y="43" type="curve" smooth="yes"/>
			<point x="159" y="43" type="line"/>
			<point x="159" y="447" type="line" smooth="yes"/>
			<point x="159" y="571"/>
			<point x="204" y="636"/>
			<point x="296" y="636" type="curve" smooth="yes"/>
			<point x="363" y="636"/>
			<point x="406" y="598"/>
			<point x="406" y="545" type="curve" smooth="yes"/>
			<point x="406" y="518"/>
			<point x="396" y="500"/>
			<point x="364" y="471" type="curve" smooth="yes"/>
			<point x="325" y="435"/>
			<point x="312" y="411"/>
			<point x="312" y="378" type="curve" smooth="yes"/>
			<point x="312" y="333"/>
			<point x="335" y="303"/>
			<point x="404" y="257" type="curve" smooth="yes"/>
			<point x="467" y="214"/>
			<point x="491" y="178"/>
			<point x="491" y="126" type="curve" smooth="yes"/>
			<point x="491" y="68"/>
			<point x="452" y="34"/>
			<point x="386" y="34" type="curve" smooth="yes"/>
			<point x="368" y="34"/>
			<point x="347" y="35"/>
			<point x="330" y="38" type="curve"/>
			<point x="310" y="137" type="line"/>
			<point x="304" y="141"/>
			<point x="297" y="143"/>
			<point x="291" y="143" type="curve" smooth="yes"/>
			<point x="286" y="143"/>
			<point x="281" y="142"/>
			<point x="276" y="140" type="curve"/>
		</contour>
	</outline>
</glyph>
<glyph name="ae" format="1">
	<unicode hex="00E6"/>
	<advance width="801"/>
	<outline>
		<contour>
			<point x="737" y="261" type="line"/>
			<point x="744" y="269"/>
			<point x="751" y="280"/>
			<point x="756" y="291" type="curve"/>
			<point x="756" y="435"/>
			<point x="689" y="510"/>
			<point x="572" y="510" type="curve" smooth="yes"/>
			<point x="494" y="510"/>
			<point x="435" y="473"/>
			<point x="401" y="404" type="curve"/>
			<point x="374" y="476"/>
			<point x="320" y="510"/>
			<point x="232" y="510" type="curve" smooth="yes"/>
			<point x="173" y="510"/>
			<point x="119" y="492"/>
			<point x="62" y="454" type="curve"/>
			<point x="62" y="444"/>
			<point x="71" y="425"/>
			<point x="81" y="417" type="curve"/>
			<point x="128" y="448"/>
			<point x="181" y="465"/>
			<point x="232" y="465" type="curve" smooth="yes"/>
			<point x="317" y="465"/>
			<point x="361" y="412"/>
			<point x="361" y="311" type="curve" smooth="yes"/>
			<point x="361" y="289" type="line"/>
			<point x="250" y="285" type="line" smooth="yes"/>
			<point x="113" y="279"/>
			<point x="39" y="225"/>
			<point x="39" y="130" type="curve" smooth="yes"/>
			<point x="39" y="46"/>
			<point x="101" y="-10"/>
			<point x="192" y="-10" type="curve" smooth="yes"/>
			<point x="275" y="-10"/>
			<point x="344" y="33"/>
			<point x="387" y="112" type="curve"/>
			<point x="427" y="31"/>
			<point x="496" y="-10"/>
			<point x="586" y="-10" type="curve" smooth="yes"/>
			<point x="639" y="-10"/>
			<point x="695" y="6"/>
			<point x="752" y="37" type="curve"/>
			<point x="750" y="50"/>
			<point x="745" y="63"/>
			<point x="735" y="74" type="curve"/>
			<point x="694" y="52"/>
			<point x="637" y="38"/>
			<point x="593" y="38" type="curve" smooth="yes"/>
			<point x="482" y="38"/>
			<point x="414" y="117"/>
			<point x="413" y="247" type="curve"/>
		</contour>
		<contour>
			<point x="361" y="188" type="line" smooth="yes"/>
			<point x="361" y="108"/>
			<point x="281" y="34"/>
			<point x="194" y="34" type="curve" smooth="yes"/>
			<point x="134" y="34"/>
			<point x="94" y="74"/>
			<point x="94" y="132" type="curve" smooth="yes"/>
			<point x="94" y="201"/>
			<point x="146" y="237"/>
			<point x="250" y="241" type="curve" smooth="yes"/>
			<point x="361" y="245" type="line"/>
		</contour>
		<contour>
			<point x="414" y="292" type="line"/>
			<point x="425" y="400"/>
			<point x="481" y="466"/>
			<point x="572" y="466" type="curve" smooth="yes"/>
			<point x="653" y="466"/>
			<point x="703" y="409"/>
			<point x="703" y="304" type="curve"/>
		</contour>
	</outline>
</glyph>
<glyph name="eth" format="1">
	<unicode hex="00F0"/>
	<advance width="539"/>
	<outline>
		<contour>
			<point x="376" y="661" type="line"/>
			<point x="369" y="677"/>
			<point x="363" y="684"/>
			<point x="349" y="690" type="curve"/>
			<point x="291" y="636" type="line"/>
			<point x="267" y="656"/>
			<point x="241" y="674"/>
			<point x="213" y="690" type="curve"/>
			<point x="203" y="681"/>
			<point x="196" y="669"/>
			<point x="191" y="652" type="curve"/>
			<point x="214" y="638"/>
			<point x="237" y="622"/>
			<point x="258" y="606" type="curve"/>
			<point x="199" y="551" type="line"/>
			<point x="206" y="535"/>
			<point x="212" y="528"/>
			<point x="226" y="522" type="curve"/>
			<point x="289" y="580" type="line"/>
			<point x="347" y="528"/>
			<point x="396" y="466"/>
			<point x="430" y="394" type="curve"/>
			<point x="389" y="446"/>
			<point x="329" y="476"/>
			<point x="265" y="476" type="curve" smooth="yes"/>
			<point x="139" y="476"/>
			<point x="43" y="371"/>
			<point x="43" y="233" type="curve" smooth="yes"/>
			<point x="43" y="95"/>
			<point x="139" y="-10"/>
			<point x="265" y="-10" type="curve" smooth="yes"/>
			<point x="402" y="-10"/>
			<point x="496" y="98"/>
			<point x="496" y="257" type="curve" smooth="yes"/>
			<point x="496" y="384"/>
			<point x="431" y="513"/>
			<point x="322" y="611" type="curve"/>
		</contour>
		<contour>
			<point x="426" y="345" type="curve"/>
			<point x="435" y="309"/>
			<point x="439" y="285"/>
			<point x="439" y="257" type="curve" smooth="yes"/>
			<point x="439" y="124"/>
			<point x="369" y="34"/>
			<point x="265" y="34" type="curve" smooth="yes"/>
			<point x="172" y="34"/>
			<point x="100" y="121"/>
			<point x="100" y="233" type="curve" smooth="yes"/>
			<point x="100" y="345"/>
			<point x="172" y="432"/>
			<point x="265" y="432" type="curve" smooth="yes"/>
			<point x="331" y="432"/>
			<point x="389" y="400"/>
		</contour>
	</outline>
</glyph>
<glyph name="oslash" format="1">
	<unicode hex="00F8"/>
	<advance width="548"/>
	<outline>
		<contour>
			<point x="127" y="41" type="line"/>
			<point x="165" y="8"/>
			<point x="215" y="-10"/>
			<point x="274" y="-10" type="curve" smooth="yes"/>
			<point x="413" y="-10"/>
			<point x="505" y="94"/>
			<point x="505" y="250" type="curve" smooth="yes"/>
			<point x="505" y="322"/>
			<point x="485" y="383"/>
			<point x="450" y="428" type="curve"/>
			<point x="496" y="483" type="line"/>
			<point x="489" y="493"/>
			<point x="479" y="502"/>
			<point x="464" y="510" type="curve"/>
			<point x="421" y="459" type="line"/>
			<point x="383" y="492"/>
			<point x="333" y="510"/>
			<point x="274" y="510" type="curve" smooth="yes"/>
			<point x="135" y="510"/>
			<point x="43" y="406"/>
			<point x="43" y="250" type="curve" smooth="yes"/>
			<point x="43" y="178"/>
			<point x="63" y="117"/>
			<point x="98" y="72" type="curve"/>
			<point x="52" y="17" type="line"/>
			<point x="59" y="7"/>
			<point x="69" y="-2"/>
			<point x="84" y="-10" type="curve"/>
		</contour>
		<contour>
			<point x="133" y="114" type="line"/>
			<point x="112" y="150"/>
			<point x="100" y="196"/>
			<point x="100" y="250" type="curve" smooth="yes"/>
			<point x="100" y="379"/>
			<point x="169" y="466"/>
			<point x="274" y="466" type="curve" smooth="yes"/>
			<point x="320" y="466"/>
			<point x="359" y="449"/>
			<point x="389" y="420" type="curve"/>
		</contour>
		<contour>
			<point x="415" y="386" type="line"/>
			<point x="436" y="350"/>
			<point x="448" y="304"/>
			<point x="448" y="250" type="curve" smooth="yes"/>
			<point x="448" y="121"/>
			<point x="379" y="34"/>
			<point x="274" y="34" type="curve" smooth="yes"/>
			<point x="228" y="34"/>
			<point x="189" y="51"/>
			<point x="159" y="80" type="curve"/>
		</contour>
	</outline>
</glyph>
<glyph name="thorn" format="2">
	<unicode hex="00FE"/>
	<advance width="563"/>
	<outline>
		<contour>
			<point x="262" y="-185" type="line"/>
			<point x="264" y="-177" type="line" smooth="yes"/>
			<point x="267" y="-166"/>
			<point x="268" y="-159"/>
			<point x="268" y="-156" type="curve" smooth="yes"/>
			<point x="268" y="-147"/>
			<point x="263" y="-142"/>
			<point x="252" y="-142" type="curve" smooth="yes"/>
			<point x="144" y="-142" type="line"/>
			<point x="144" y="42" type="line"/>
			<point x="183" y="8"/>
			<point x="232" y="-10"/>
			<point x="285" y="-10" type="curve" smooth="yes"/>
			<point x="427" y="-10"/>
			<point x="520" y="95"/>
			<point x="520" y="255" type="curve" smooth="yes"/>
			<point x="520" y="405"/>
			<point x="437" y="510"/>
			<point x="320" y="510" type="curve" smooth="yes"/>
			<point x="247" y="510"/>
			<point x="181" y="467"/>
			<point x="144" y="399" type="curve"/>
			<point x="144" y="653" type="line"/>
			<point x="137" y="661"/>
			<point x="127" y="669"/>
			<point x="116" y="675" type="curve"/>
			<point x="12" y="656" type="line"/>
			<point x="8" y="649"/>
			<point x="6" y="643"/>
			<point x="6" y="637" type="curve" smooth="yes"/>
			<point x="6" y="633"/>
			<point x="7" y="628"/>
			<point x="9" y="623" type="curve"/>
			<point x="90" y="623" type="line"/>
			<point x="90" y="-144" type="line"/>
			<point x="22" y="-152" type="line"/>
			<point x="18" y="-159"/>
			<point x="16" y="-165"/>
			<point x="16" y="-171" type="curve" smooth="yes"/>
			<point x="16" y="-175"/>
			<point x="17" y="-180"/>
			<point x="19" y="-185" type="curve"/>
		</contour>
		<contour>
			<point x="144" y="266" type="line" smooth="yes"/>
			<point x="144" y="373"/>
			<point x="223" y="466"/>
			<point x="315" y="466" type="curve" smooth="yes"/>
			<point x="402" y="466"/>
			<point x="463" y="379"/>
			<point x="463" y="255" type="curve" smooth="yes"/>
			<point x="463" y="119"/>
			<point x="395" y="35"/>
			<point x="285" y="35" type="curve" smooth="yes"/>
			<point x="237" y="35"/>
			<point x="188" y="55"/>
			<point x="144" y="93" type="curve"/>
		</contour>
	</outline>
</glyph>
<glyph name="dcroat" format="1">
	<unicode hex="0111"/>
	<advance width="588"/>
	<outline>
		<contour>
			<point x="546" y="14" type="line"/>
			<point x="550" y="21"/>
			<point x="552" y="27"/>
			<point x="552" y="33" type="curve" smooth="yes"/>
			<point x="552" y="37"/>
			<point x="551" y="42"/>
			<point x="549" y="47" type="curve"/>
			<point x="473" y="47" type="line"/>
			<point x="473" y="525" type="line"/>
			<point x="557" y="525" type="line"/>
			<point x="560" y="530"/>
			<point x="562" y="538"/>
			<point x="562" y="544" type="curve" smooth="yes"/>
			<point x="562" y="549"/>
			<point x="561" y="555"/>
			<point x="559" y="563" type="curve"/>
			<point x="473" y="563" type="line"/>
			<point x="473" y="653" type="line"/>
			<point x="466" y="661"/>
			<point x="456" y="669"/>
			<point x="445" y="675" type="curve"/>
			<point x="341" y="656" type="line"/>
			<point x="337" y="649"/>
			<point x="335" y="643"/>
			<point x="335" y="637" type="curve" smooth="yes"/>
			<point x="335" y="633"/>
			<point x="336" y="628"/>
			<point x="338" y="623" type="curve"/>
			<point x="419" y="623" type="line"/>
			<point x="419" y="563" type="line"/>
			<point x="335" y="563" type="line"/>
			<point x="332" y="558"/>
			<point x="330" y="550"/>
			<point x="330" y="544" type="curve" smooth="yes"/>
			<point x="330" y="539"/>
			<point x="331" y="533"/>
			<point x="333" y="525" type="curve"/>
			<point x="419" y="525" type="line"/>
			<point x="419" y="434" type="line"/>
			<point x="378" y="468"/>
			<point x="330" y="486"/>
			<point x="278" y="486" type="curve" smooth="yes"/>
			<point x="136" y="486"/>
			<point x="43" y="388"/>
			<point x="43" y="228" type="curve" smooth="yes"/>
			<point x="43" y="78"/>
			<point x="126" y="-10"/>
			<point x="243" y="-10" type="curve" smooth="yes"/>
			<point x="321" y="-10"/>
			<point x="391" y="39"/>
			<point x="426" y="115" type="curve"/>
			<point x="419" y="17" type="line"/>
			<point x="426" y="9"/>
			<point x="436" y="1"/>
			<point x="447" y="-5" type="curve"/>
		</contour>
		<contour>
			<point x="419" y="234" type="line" smooth="yes"/>
			<point x="419" y="127"/>
			<point x="340" y="34"/>
			<point x="248" y="34" type="curve" smooth="yes"/>
			<point x="161" y="34"/>
			<point x="100" y="104"/>
			<point x="100" y="228" type="curve" smooth="yes"/>
			<point x="100" y="364"/>
			<point x="168" y="441"/>
			<point x="278" y="441" type="curve" smooth="yes"/>
			<point x="326" y="441"/>
			<point x="375" y="421"/>
			<point x="419" y="383" type="curve"/>
		</contour>
	</outline>
</glyph>
<glyph name="hbar" format="1">
	<unicode hex="0127"/>
	<advance width="616"/>
	<outline>
		<contour>
			<point x="584" y="0" type="line"/>
			<point x="586" y="8" type="line" smooth="yes"/>
			<point x="589" y="19"/>
			<point x="590" y="26"/>
			<point x="590" y="29" type="curve" smooth="yes"/>
			<point x="590" y="38"/>
			<point x="585" y="43"/>
			<point x="574" y="43" type="curve" smooth="yes"/>
			<point x="516" y="43" type="line"/>
			<point x="516" y="301" type="line" smooth="yes"/>
			<point x="516" y="421"/>
			<point x="459" y="486"/>
			<point x="352" y="486" type="curve" smooth="yes"/>
			<point x="262" y="486"/>
			<point x="202" y="435"/>
			<point x="169" y="373" type="curve"/>
			<point x="169" y="525" type="line"/>
			<point x="253" y="525" type="line"/>
			<point x="256" y="530"/>
			<point x="258" y="538"/>
			<point x="258" y="544" type="curve" smooth="yes"/>
			<point x="258" y="549"/>
			<point x="257" y="555"/>
			<point x="255" y="563" type="curve"/>
			<point x="169" y="563" type="line"/>
			<point x="169" y="653" type="line"/>
			<point x="162" y="661"/>
			<point x="152" y="669"/>
			<point x="141" y="675" type="curve"/>
			<point x="37" y="656" type="line"/>
			<point x="33" y="649"/>
			<point x="31" y="643"/>
			<point x="31" y="637" type="curve" smooth="yes"/>
			<point x="31" y="633"/>
			<point x="32" y="628"/>
			<point x="34" y="623" type="curve"/>
			<point x="115" y="623" type="line"/>
			<point x="115" y="563" type="line"/>
			<point x="31" y="563" type="line"/>
			<point x="28" y="558"/>
			<point x="26" y="550"/>
			<point x="26" y="544" type="curve" smooth="yes"/>
			<point x="26" y="539"/>
			<point x="27" y="533"/>
			<point x="29" y="525" type="curve"/>
			<point x="115" y="525" type="line"/>
			<point x="115" y="41" type="line"/>
			<point x="47" y="33" type="line"/>
			<point x="43" y="26"/>
			<point x="41" y="20"/>
			<point x="41" y="14" type="curve" smooth="yes"/>
			<point x="41" y="10"/>
			<point x="42" y="5"/>
			<point x="44" y="0" type="curve"/>
			<point x="237" y="0" type="line"/>
			<point x="239" y="8" type="line" smooth="yes"/>
			<point x="242" y="19"/>
			<point x="243" y="26"/>
			<point x="243" y="29" type="curve" smooth="yes"/>
			<point x="243" y="38"/>
			<point x="238" y="43"/>
			<point x="227" y="43" type="curve" smooth="yes"/>
			<point x="169" y="43" type="line"/>
			<point x="169" y="242" type="line" smooth="yes"/>
			<point x="169" y="349"/>
			<point x="250" y="442"/>
			<point x="343" y="442" type="curve" smooth="yes"/>
			<point x="422" y="442"/>
			<point x="462" y="394"/>
			<point x="462" y="301" type="curve" smooth="yes"/>
			<point x="462" y="41" type="line"/>
			<point x="394" y="33" type="line"/>
			<point x="390" y="26"/>
			<point x="388" y="20"/>
			<point x="388" y="14" type="curve" smooth="yes"/>
			<point x="388" y="10"/>
			<point x="389" y="5"/>
			<point x="391" y="0" type="curve"/>
		</contour>
	</outline>
</glyph>
<glyph name="dotlessi" format="1">
	<unicode hex="0131"/>
	<advance width="284"/>
	<outline>
		<contour>
			<point x="247" y="0" type="line"/>
			<point x="249" y="8" type="line" smooth="yes"/>
			<point x="252" y="19"/>
			<point x="253" y="26"/>
			<point x="253" y="29" type="curve" smooth="yes"/>
			<point x="253" y="38"/>
			<point x="248" y="43"/>
			<point x="237" y="43" type="curve" smooth="yes"/>
			<point x="169" y="43" type="line"/>
			<point x="169" y="483" type="line"/>
			<point x="162" y="491"/>
			<point x="152" y="499"/>
			<point x="141" y="505" type="curve"/>
			<point x="37" y="486" type="line"/>
			<point x="33" y="479"/>
			<point x="31" y="473"/>
			<point x="31" y="467" type="curve" smooth="yes"/>
			<point x="31" y="463"/>
			<point x="32" y="458"/>
			<point x="34" y="453" type="curve"/>
			<point x="115" y="453" type="line"/>
			<point x="115" y="41" type="line"/>
			<point x="37" y="33" type="line"/>
			<point x="33" y="26"/>
			<point x="31" y="20"/>
			<point x="31" y="14" type="curve" smooth="yes"/>
			<point x="31" y="10"/>
			<point x="32" y="5"/>
			<point x="34" y="0" type="curve"/>
		</contour>
		<contour>
			<point name="top.LC" x="127" y="530" type="move"/>
		</contour>
		<contour>
			<point name="bottom.LC" x="142" y="-20" type="move"/>
		</contour>
	</outline>
</glyph>
<glyph name="kgreenlandic" format="1">
	<unicode hex="0138"/>
	<advance width="573"/>
	<outline>
		<contour>
			<point x="382" y="82" type="line" smooth="yes"/>
			<point x="423" y="20"/>
			<point x="446" y="-4"/>
			<point x="489" y="-4" type="curve" smooth="yes"/>
			<point x="511" y="-4"/>
			<point x="534" y="0"/>
			<point x="553" y="8" type="curve"/>
			<point x="552" y="22"/>
			<point x="550" y="32"/>
			<point x="546" y="42" type="curve"/>
			<point x="538" y="41"/>
			<point x="521" y="40"/>
			<point x="512" y="40" type="curve" smooth="yes"/>
			<point x="480" y="40"/>
			<point x="464" y="55"/>
			<point x="436" y="96" type="curve" smooth="yes"/>
			<point x="296" y="305" type="line"/>
			<point x="447" y="459" type="line"/>
			<point x="515" y="467" type="line"/>
			<point x="519" y="474"/>
			<point x="521" y="480"/>
			<point x="521" y="486" type="curve" smooth="yes"/>
			<point x="521" y="490"/>
			<point x="520" y="495"/>
			<point x="518" y="500" type="curve"/>
			<point x="332" y="500" type="line"/>
			<point x="330" y="492" type="line" smooth="yes"/>
			<point x="327" y="481"/>
			<point x="326" y="474"/>
			<point x="326" y="471" type="curve" smooth="yes"/>
			<point x="326" y="462"/>
			<point x="331" y="457"/>
			<point x="342" y="457" type="curve" smooth="yes"/>
			<point x="386" y="457" type="line"/>
			<point x="169" y="238" type="line"/>
			<point x="169" y="483" type="line"/>
			<point x="162" y="491"/>
			<point x="152" y="499"/>
			<point x="141" y="505" type="curve"/>
			<point x="42" y="486" type="line"/>
			<point x="38" y="479"/>
			<point x="36" y="473"/>
			<point x="36" y="467" type="curve" smooth="yes"/>
			<point x="36" y="463"/>
			<point x="37" y="458"/>
			<point x="39" y="453" type="curve"/>
			<point x="115" y="453" type="line"/>
			<point x="115" y="41" type="line"/>
			<point x="47" y="33" type="line"/>
			<point x="43" y="26"/>
			<point x="41" y="20"/>
			<point x="41" y="14" type="curve" smooth="yes"/>
			<point x="41" y="10"/>
			<point x="42" y="5"/>
			<point x="44" y="0" type="curve"/>
			<point x="237" y="0" type="line"/>
			<point x="239" y="8" type="line" smooth="yes"/>
			<point x="242" y="19"/>
			<point x="243" y="26"/>
			<point x="243" y="29" type="curve" smooth="yes"/>
			<point x="243" y="38"/>
			<point x="238" y="43"/>
			<point x="227" y="43" type="curve" smooth="yes"/>
			<point x="169" y="43" type="line"/>
			<point x="169" y="176" type="line"/>
			<point x="258" y="267" type="line"/>
		</contour>
	</outline>
</glyph>
<glyph name="lslash" format="1">
	<unicode hex="0142"/>
	<advance width="284"/>
	<outline>
		<contour>
			<point x="247" y="0" type="line"/>
			<point x="249" y="8" type="line" smooth="yes"/>
			<point x="252" y="19"/>
			<point x="253" y="26"/>
			<point x="253" y="29" type="curve" smooth="yes"/>
			<point x="253" y="38"/>
			<point x="248" y="43"/>
			<point x="237" y="43" type="curve" smooth="yes"/>
			<point x="169" y="43" type="line"/>
			<point x="169" y="355" type="line"/>
			<point x="265" y="425" type="line"/>
			<point x="262" y="437"/>
			<point x="256" y="448"/>
			<point x="244" y="457" type="curve"/>
			<point x="169" y="402" type="line"/>
			<point x="169" y="653" type="line"/>
			<point x="162" y="661"/>
			<point x="152" y="669"/>
			<point x="141" y="675" type="curve"/>
			<point x="32" y="656" type="line"/>
			<point x="28" y="649"/>
			<point x="26" y="643"/>
			<point x="26" y="637" type="curve" smooth="yes"/>
			<point x="26" y="633"/>
			<point x="27" y="628"/>
			<point x="29" y="623" type="curve"/>
			<point x="115" y="623" type="line"/>
			<point x="115" y="363" type="line"/>
			<point x="19" y="294" type="line"/>
			<point x="22" y="282"/>
			<point x="28" y="271"/>
			<point x="40" y="262" type="curve"/>
			<point x="115" y="316" type="line"/>
			<point x="115" y="41" type="line"/>
			<point x="37" y="33" type="line"/>
			<point x="33" y="26"/>
			<point x="31" y="20"/>
			<point x="31" y="14" type="curve" smooth="yes"/>
			<point x="31" y="10"/>
			<point x="32" y="5"/>
			<point x="34" y="0" type="curve"/>
		</contour>
	</outline>
</glyph>
<glyph name="oe" format="2">
	<unicode hex="0153"/>
	<advance width="869"/>
	<outline>
		<contour>
			<point x="805" y="261" type="line"/>
			<point x="812" y="269"/>
			<point x="819" y="280"/>
			<point x="824" y="291" type="curve"/>
			<point x="824" y="435"/>
			<point x="757" y="510"/>
			<point x="640" y="510" type="curve" smooth="yes"/>
			<point x="563" y="510"/>
			<point x="494" y="473"/>
			<point x="458" y="380" type="curve"/>
			<point x="426" y="462"/>
			<point x="357" y="510"/>
			<point x="264" y="510" type="curve" smooth="yes"/>
			<point x="125" y="510"/>
			<point x="43" y="406"/>
			<point x="43" y="250" type="curve" smooth="yes"/>
			<point x="43" y="94"/>
			<point x="125" y="-10"/>
			<point x="264" y="-10" type="curve" smooth="yes"/>
			<point x="355" y="-10"/>
			<point x="413" y="35"/>
			<point x="450" y="122" type="curve"/>
			<point x="490" y="32"/>
			<point x="565" y="-10"/>
			<point x="654" y="-10" type="curve" smooth="yes"/>
			<point x="707" y="-10"/>
			<point x="763" y="6"/>
			<point x="820" y="37" type="curve"/>
			<point x="818" y="50"/>
			<point x="813" y="63"/>
			<point x="803" y="74" type="curve"/>
			<point x="762" y="52"/>
			<point x="705" y="38"/>
			<point x="661" y="38" type="curve" smooth="yes"/>
			<point x="549" y="38"/>
			<point x="481" y="119"/>
			<point x="481" y="252" type="curve" smooth="yes"/>
			<point x="481" y="261" type="line"/>
		</contour>
		<contour>
			<point x="264" y="34" type="curve" smooth="yes"/>
			<point x="159" y="34"/>
			<point x="100" y="121"/>
			<point x="100" y="250" type="curve" smooth="yes"/>
			<point x="100" y="379"/>
			<point x="159" y="466"/>
			<point x="264" y="466" type="curve" smooth="yes"/>
			<point x="369" y="466"/>
			<point x="428" y="379"/>
			<point x="428" y="250" type="curve" smooth="yes"/>
			<point x="428" y="121"/>
			<point x="369" y="34"/>
		</contour>
		<contour>
			<point x="484" y="304" type="line"/>
			<point x="497" y="405"/>
			<point x="553" y="466"/>
			<point x="640" y="466" type="curve" smooth="yes"/>
			<point x="721" y="466"/>
			<point x="771" y="409"/>
			<point x="771" y="304" type="curve"/>
		</contour>
	</outline>
</glyph>
<glyph name="longs" format="1">
	<unicode hex="017F"/>
	<advance width="314"/>
	<outline>
		<contour>
			<point x="267" y="0" type="line"/>
			<point x="269" y="8" type="line" smooth="yes"/>
			<point x="272" y="19"/>
			<point x="273" y="26"/>
			<point x="273" y="29" type="curve" smooth="yes"/>
			<point x="273" y="38"/>
			<point x="268" y="43"/>
			<point x="257" y="43" type="curve" smooth="yes"/>
			<point x="159" y="43" type="line"/>
			<point x="159" y="520" type="line" smooth="yes"/>
			<point x="159" y="594"/>
			<point x="199" y="633"/>
			<point x="275" y="633" type="curve" smooth="yes"/>
			<point x="299" y="633"/>
			<point x="331" y="629"/>
			<point x="355" y="624" type="curve"/>
			<point x="362" y="636"/>
			<point x="365" y="648"/>
			<point x="366" y="662" type="curve"/>
			<point x="337" y="673"/>
			<point x="298" y="680"/>
			<point x="264" y="680" type="curve" smooth="yes"/>
			<point x="166" y="680"/>
			<point x="105" y="618"/>
			<point x="105" y="520" type="curve" smooth="yes"/>
			<point x="105" y="41" type="line"/>
			<point x="37" y="33" type="line"/>
			<point x="33" y="26"/>
			<point x="31" y="20"/>
			<point x="31" y="14" type="curve" smooth="yes"/>
			<point x="31" y="10"/>
			<point x="32" y="5"/>
			<point x="34" y="0" type="curve"/>
		</contour>
	</outline>
</glyph>
<glyph name="dotlessj" format="2">
	<unicode hex="0237"/>
	<advance width="239"/>
	<outline>
		<contour>
			<point x="100" y="134" type="line" smooth="yes"/>
			<point x="100" y="-4"/>
			<point x="65" y="-70"/>
			<point x="-55" y="-158" type="curve"/>
			<point x="-51" y="-173"/>
			<point x="-44" y="-183"/>
			<point x="-31" y="-192" type="curve"/>
			<point x="106" y="-104"/>
			<point x="154" y="-15"/>
			<point x="154" y="151" type="curve" smooth="yes"/>
			<point x="154" y="483" type="line"/>
			<point x="147" y="491"/>
			<point x="137" y="499"/>
			<point x="126" y="505" type="curve"/>
			<point x="22" y="486" type="line"/>
			<point x="18" y="479"/>
			<point x="16" y="473"/>
			<point x="16" y="467" type="curve" smooth="yes"/>
			<point x="16" y="463"/>
			<point x="17" y="458"/>
			<point x="19" y="453" type="curve"/>
			<point x="100" y="453" type="line"/>
		</contour>
	</outline>
	<anchor name="top.LC" x="112" y="530"/>
	<anchor name="bottom.DSC" x="53" y="-205"/>
</glyph>
<glyph name="gravecomb" format="1">
	<unicode hex="0300"/>
	<outline>
		<contour>
			<point x="42" y="556" type="line"/>
			<point x="54" y="564"/>
			<point x="62" y="571"/>
			<point x="69" y="581" type="curve"/>
			<point x="-18" y="683" type="line"/>
			<point x="-69" y="735" type="line"/>
			<point x="-86" y="721"/>
			<point x="-95" y="713"/>
			<point x="-108" y="697" type="curve"/>
			<point x="-57" y="644" type="line"/>
		</contour>
		<contour>
			<point name="_top.LC" x="0" y="530" type="move"/>
		</contour>
	</outline>
</glyph>
<glyph name="circumflexcomb" format="1">
	<unicode hex="0302"/>
	<outline>
		<contour>
			<point x="115" y="556" type="line"/>
			<point x="128" y="566"/>
			<point x="135" y="574"/>
			<point x="140" y="583" type="curve"/>
			<point x="22" y="714" type="line"/>
			<point x="16" y="715"/>
			<point x="8" y="716"/>
			<point x="1" y="716" type="curve" smooth="yes"/>
			<point x="-6" y="716"/>
			<point x="-14" y="715"/>
			<point x="-20" y="714" type="curve"/>
			<point x="-140" y="581" type="line"/>
			<point x="-135" y="572"/>
			<point x="-130" y="566"/>
			<point x="-117" y="556" type="curve"/>
			<point x="0" y="660" type="line"/>
		</contour>
		<contour>
			<point name="_top.LC" x="0" y="530" type="move"/>
		</contour>
	</outline>
</glyph>
<glyph name="tildecomb" format="1">
	<unicode hex="0303"/>
	<outline>
		<contour>
			<point x="139" y="657" type="curve"/>
			<point x="133" y="662"/>
			<point x="120" y="669"/>
			<point x="106" y="675" type="curve"/>
			<point x="91" y="647"/>
			<point x="75" y="635"/>
			<point x="54" y="635" type="curve" smooth="yes"/>
			<point x="42" y="635"/>
			<point x="33" y="639"/>
			<point x="12" y="652" type="curve" smooth="yes"/>
			<point x="-16" y="670"/>
			<point x="-32" y="676"/>
			<point x="-54" y="676" type="curve" smooth="yes"/>
			<point x="-95" y="676"/>
			<point x="-126" y="651"/>
			<point x="-139" y="608" type="curve"/>
			<point x="-133" y="603"/>
			<point x="-120" y="596"/>
			<point x="-106" y="590" type="curve"/>
			<point x="-91" y="618"/>
			<point x="-75" y="630"/>
			<point x="-54" y="630" type="curve" smooth="yes"/>
			<point x="-42" y="630"/>
			<point x="-33" y="626"/>
			<point x="-12" y="613" type="curve" smooth="yes"/>
			<point x="16" y="595"/>
			<point x="32" y="589"/>
			<point x="54" y="589" type="curve" smooth="yes"/>
			<point x="95" y="589"/>
			<point x="126" y="614"/>
		</contour>
		<contour>
			<point name="_top.LC" x="0" y="530" type="move"/>
		</contour>
	</outline>
</glyph>
<glyph name="macroncomb" format="1">
	<unicode hex="0304"/>
	<outline>
		<contour>
			<point x="129" y="610" type="line"/>
			<point x="132" y="619"/>
			<point x="134" y="628"/>
			<point x="134" y="634" type="curve" smooth="yes"/>
			<point x="134" y="640"/>
			<point x="133" y="647"/>
			<point x="131" y="655" type="curve"/>
			<point x="-129" y="655" type="line"/>
			<point x="-132" y="646"/>
			<point x="-134" y="637"/>
			<point x="-134" y="631" type="curve" smooth="yes"/>
			<point x="-134" y="625"/>
			<point x="-133" y="618"/>
			<point x="-131" y="610" type="curve"/>
		</contour>
		<contour>
			<point name="_top.LC" x="0" y="530" type="move"/>
		</contour>
	</outline>
</glyph>
<glyph name="brevecomb" format="1">
	<unicode hex="0306"/>
	<outline>
		<contour>
			<point x="141" y="662" type="curve"/>
			<point x="136" y="672"/>
			<point x="124" y="684"/>
			<point x="111" y="692" type="curve"/>
			<point x="69" y="646"/>
			<point x="42" y="631"/>
			<point x="0" y="631" type="curve" smooth="yes"/>
			<point x="-42" y="631"/>
			<point x="-69" y="646"/>
			<point x="-111" y="692" type="curve"/>
			<point x="-124" y="684"/>
			<point x="-136" y="672"/>
			<point x="-141" y="662" type="curve"/>
			<point x="-102" y="610"/>
			<point x="-57" y="585"/>
			<point x="0" y="585" type="curve" smooth="yes"/>
			<point x="57" y="585"/>
			<point x="102" y="610"/>
		</contour>
		<contour>
			<point name="_top.LC" x="0" y="530" type="move"/>
		</contour>
	</outline>
</glyph>
<glyph name="dotaccentcomb" format="1">
	<unicode hex="0307"/>
	<outline>
		<contour>
			<point x="45" y="632" type="curve" smooth="yes"/>
			<point x="45" y="657"/>
			<point x="28" y="674"/>
			<point x="0" y="674" type="curve" smooth="yes"/>
			<point x="-28" y="674"/>
			<point x="-45" y="657"/>
			<point x="-45" y="632" type="curve" smooth="yes"/>
			<point x="-45" y="607"/>
			<point x="-28" y="590"/>
			<point x="0" y="590" type="curve" smooth="yes"/>
			<point x="28" y="590"/>
			<point x="45" y="607"/>
		</contour>
		<contour>
			<point name="_top.LC" x="0" y="530" type="move"/>
		</contour>
	</outline>
</glyph>
<glyph name="dieresiscomb" format="1">
	<unicode hex="0308"/>
	<outline>
		<contour>
			<point x="-43" y="632" type="curve" smooth="yes"/>
			<point x="-43" y="656"/>
			<point x="-61" y="672"/>
			<point x="-86" y="672" type="curve" smooth="yes"/>
			<point x="-111" y="672"/>
			<point x="-129" y="656"/>
			<point x="-129" y="632" type="curve" smooth="yes"/>
			<point x="-129" y="608"/>
			<point x="-111" y="592"/>
			<point x="-86" y="592" type="curve" smooth="yes"/>
			<point x="-61" y="592"/>
			<point x="-43" y="608"/>
		</contour>
		<contour>
			<point x="129" y="632" type="curve" smooth="yes"/>
			<point x="129" y="656"/>
			<point x="111" y="672"/>
			<point x="86" y="672" type="curve" smooth="yes"/>
			<point x="61" y="672"/>
			<point x="43" y="656"/>
			<point x="43" y="632" type="curve" smooth="yes"/>
			<point x="43" y="608"/>
			<point x="61" y="592"/>
			<point x="86" y="592" type="curve" smooth="yes"/>
			<point x="111" y="592"/>
			<point x="129" y="608"/>
		</contour>
		<contour>
			<point name="_top.LC" x="0" y="530" type="move"/>
		</contour>
	</outline>
</glyph>
<glyph name="ringcomb" format="1">
	<unicode hex="030A"/>
	<outline>
		<contour>
			<point x="0" y="607" type="curve" smooth="yes"/>
			<point x="-35" y="607"/>
			<point x="-57" y="629"/>
			<point x="-57" y="664" type="curve" smooth="yes"/>
			<point x="-57" y="699"/>
			<point x="-35" y="721"/>
			<point x="0" y="721" type="curve" smooth="yes"/>
			<point x="35" y="721"/>
			<point x="57" y="699"/>
			<point x="57" y="664" type="curve" smooth="yes"/>
			<point x="57" y="629"/>
			<point x="35" y="607"/>
		</contour>
		<contour>
			<point x="100" y="664" type="curve" smooth="yes"/>
			<point x="100" y="721"/>
			<point x="61" y="758"/>
			<point x="0" y="758" type="curve" smooth="yes"/>
			<point x="-61" y="758"/>
			<point x="-100" y="721"/>
			<point x="-100" y="664" type="curve" smooth="yes"/>
			<point x="-100" y="607"/>
			<point x="-61" y="570"/>
			<point x="0" y="570" type="curve" smooth="yes"/>
			<point x="61" y="570"/>
			<point x="100" y="607"/>
		</contour>
		<contour>
			<point name="_top.LC" x="0" y="530" type="move"/>
		</contour>
	</outline>
</glyph>
<glyph name="hungarumlautcomb" format="2">
	<unicode hex="030B"/>
	<outline>
		<contour>
			<point x="-4" y="644" type="line"/>
			<point x="47" y="697" type="line"/>
			<point x="34" y="713"/>
			<point x="25" y="721"/>
			<point x="8" y="735" type="curve"/>
			<point x="-43" y="683" type="line"/>
			<point x="-130" y="581" type="line"/>
			<point x="-123" y="571"/>
			<point x="-115" y="564"/>
			<point x="-103" y="556" type="curve"/>
		</contour>
		<contour>
			<point x="161" y="644" type="line"/>
			<point x="212" y="697" type="line"/>
			<point x="199" y="713"/>
			<point x="190" y="721"/>
			<point x="173" y="735" type="curve"/>
			<point x="122" y="683" type="line"/>
			<point x="35" y="581" type="line"/>
			<point x="42" y="571"/>
			<point x="50" y="564"/>
			<point x="62" y="556" type="curve"/>
		</contour>
	</outline>
	<anchor name="_top.LC" x="0" y="530"/>
</glyph>
<glyph name="caroncomb" format="1">
	<unicode hex="030C"/>
	<outline>
		<contour>
			<point x="140" y="691" type="line"/>
			<point x="135" y="700"/>
			<point x="130" y="706"/>
			<point x="117" y="716" type="curve"/>
			<point x="0" y="612" type="line"/>
			<point x="-115" y="716" type="line"/>
			<point x="-128" y="706"/>
			<point x="-135" y="698"/>
			<point x="-140" y="689" type="curve"/>
			<point x="-22" y="558" type="line"/>
			<point x="-16" y="557"/>
			<point x="-8" y="556"/>
			<point x="-1" y="556" type="curve" smooth="yes"/>
			<point x="6" y="556"/>
			<point x="14" y="557"/>
			<point x="20" y="558" type="curve"/>
		</contour>
		<contour>
			<point name="_top.LC" x="0" y="530" type="move"/>
		</contour>
	</outline>
</glyph>
<glyph name="commaturnedabovecomb" format="1">
	<unicode hex="0312"/>
	<outline>
		<contour>
			<point x="6" y="671" type="line"/>
			<point x="9" y="695"/>
			<point x="22" y="728"/>
			<point x="42" y="765" type="curve"/>
			<point x="34" y="773"/>
			<point x="23" y="778"/>
			<point x="9" y="780" type="curve"/>
			<point x="-24" y="735"/>
			<point x="-48" y="677"/>
			<point x="-48" y="645" type="curve" smooth="yes"/>
			<point x="-48" y="612"/>
			<point x="-30" y="590"/>
			<point x="0" y="590" type="curve" smooth="yes"/>
			<point x="27" y="590"/>
			<point x="44" y="609"/>
			<point x="44" y="631" type="curve" smooth="yes"/>
			<point x="44" y="638"/>
			<point x="42" y="645"/>
			<point x="40" y="650" type="curve"/>
		</contour>
		<contour>
			<point name="_top.LC" x="0" y="530" type="move"/>
		</contour>
	</outline>
</glyph>
<glyph name="commaaboverightcomb" format="1">
	<unicode hex="0315"/>
	<outline>
		<contour>
			<point x="47" y="494" type="line"/>
			<point x="52" y="493"/>
			<point x="58" y="492"/>
			<point x="67" y="492" type="curve" smooth="yes"/>
			<point x="72" y="492"/>
			<point x="81" y="493"/>
			<point x="84" y="494" type="curve"/>
			<point x="103" y="670" type="line"/>
			<point x="94" y="671"/>
			<point x="82" y="672"/>
			<point x="75" y="672" type="curve" smooth="yes"/>
			<point x="68" y="672"/>
			<point x="56" y="671"/>
			<point x="47" y="670" type="curve"/>
		</contour>
		<contour>
			<point name="_top_right" x="0" y="510" type="move"/>
		</contour>
	</outline>
</glyph>
<glyph name="commabelowcomb" format="1">
	<unicode hex="0326"/>
	<outline>
		<contour>
			<point x="-6" y="-161" type="line"/>
			<point x="-9" y="-185"/>
			<point x="-22" y="-218"/>
			<point x="-42" y="-255" type="curve"/>
			<point x="-34" y="-263"/>
			<point x="-23" y="-268"/>
			<point x="-9" y="-270" type="curve"/>
			<point x="24" y="-225"/>
			<point x="48" y="-167"/>
			<point x="48" y="-135" type="curve" smooth="yes"/>
			<point x="48" y="-102"/>
			<point x="30" y="-80"/>
			<point x="0" y="-80" type="curve" smooth="yes"/>
			<point x="-27" y="-80"/>
			<point x="-44" y="-99"/>
			<point x="-44" y="-121" type="curve" smooth="yes"/>
			<point x="-44" y="-128"/>
			<point x="-42" y="-135"/>
			<point x="-40" y="-140" type="curve"/>
		</contour>
		<contour>
			<point name="_bottom.LC" x="0" y="-20" type="move"/>
		</contour>
	</outline>
</glyph>
<glyph name="cedillacomb" format="1">
	<unicode hex="0327"/>
	<outline>
		<contour>
			<point x="-56" y="-75" type="line"/>
			<point x="-54" y="-87"/>
			<point x="-52" y="-92"/>
			<point x="-46" y="-102" type="curve"/>
			<point x="-5" y="-102"/>
			<point x="19" y="-119"/>
			<point x="19" y="-148" type="curve" smooth="yes"/>
			<point x="19" y="-175"/>
			<point x="-2" y="-190"/>
			<point x="-40" y="-190" type="curve" smooth="yes"/>
			<point x="-57" y="-190"/>
			<point x="-72" y="-187"/>
			<point x="-88" y="-180" type="curve"/>
			<point x="-95" y="-192"/>
			<point x="-97" y="-200"/>
			<point x="-97" y="-213" type="curve"/>
			<point x="-76" y="-224"/>
			<point x="-57" y="-228"/>
			<point x="-33" y="-228" type="curve" smooth="yes"/>
			<point x="30" y="-228"/>
			<point x="71" y="-195"/>
			<point x="71" y="-145" type="curve" smooth="yes"/>
			<point x="71" y="-102"/>
			<point x="43" y="-73"/>
			<point x="-4" y="-66" type="curve"/>
			<point x="19" y="10" type="line"/>
			<point x="-18" y="10" type="line"/>
		</contour>
		<contour>
			<point name="_bottom.LC" x="0" y="-20" type="move"/>
		</contour>
	</outline>
</glyph>
